<?xml version="1.0" encoding="UTF-8" standalone="no"?>
<!-- Created with Inkscape (http://www.inkscape.org/) -->

<svg
   version="1.1"
   id="svg2"
   width="100"
   height="100"
   viewBox="0 0 100 100"
   sodipodi:docname="aboutusimage.svg"
   inkscape:version="1.2.1 (9c6d41e410, 2022-07-14)"
   xml:space="preserve"
   xmlns:inkscape="http://www.inkscape.org/namespaces/inkscape"
   xmlns:sodipodi="http://sodipodi.sourceforge.net/DTD/sodipodi-0.dtd"
   xmlns="http://www.w3.org/2000/svg"
   xmlns:svg="http://www.w3.org/2000/svg"><defs
     id="defs6" /><sodipodi:namedview
     id="namedview4"
     pagecolor="#ffffff"
     bordercolor="#000000"
     borderopacity="0.25"
     inkscape:showpageshadow="2"
     inkscape:pageopacity="0.0"
     inkscape:pagecheckerboard="0"
     inkscape:deskcolor="#d1d1d1"
     showgrid="false"
     inkscape:zoom="4.4974673"
     inkscape:cx="73.152282"
     inkscape:cy="42.468346"
     inkscape:window-width="2560"
     inkscape:window-height="1334"
     inkscape:window-x="576"
     inkscape:window-y="2149"
     inkscape:window-maximized="1"
     inkscape:current-layer="g8" /><g
     inkscape:groupmode="layer"
     inkscape:label="Image"
     id="g8"><g
       id="g218"
       transform="translate(1.7787787,-2.0011258)"><path
         style="fill:#d0eeed;stroke-width:0.243777"
         d="m 23.066021,76.027994 c -4.295996,-2.328615 -7.635925,-5.80691 -8.781727,-9.145538 -0.973804,-2.837457 -1.179512,-5.101354 -0.753126,-8.288412 0.686381,-5.130414 2.372311,-8.034042 6.408437,-11.037058 l 2.219858,-1.651651 0.302242,-2.492555 c 0.170315,-1.404578 0.618636,-3.397007 1.027101,-4.564657 0.85781,-2.452154 2.865847,-5.968388 4.506134,-7.890598 2.267953,-2.657758 6.361935,-4.853155 10.541668,-5.652969 3.502039,-0.670133 6.26756,-0.247349 10.01518,1.531089 3.392319,1.609829 5.791007,3.586791 7.947055,6.549841 0.917883,1.261446 1.812429,2.293539 1.98788,2.293539 0.175453,0 1.294418,-0.274249 2.486589,-0.609442 2.971281,-0.835411 4.633878,-0.802712 7.076263,0.139172 3.7188,1.434121 5.929568,4.042376 6.647039,7.842152 0.305107,1.615856 0.294127,1.999278 -0.113736,3.972549 -0.248289,1.20124 -0.402283,2.312157 -0.342209,2.468708 0.06007,0.156551 0.826779,0.685918 1.703788,1.176367 0.877009,0.490452 2.427985,1.670057 3.446613,2.621344 1.512387,1.412402 2.056392,2.135644 2.966213,3.943502 1.019372,2.025539 1.123955,2.400541 1.229286,4.407877 0.354032,6.746945 -2.472682,11.438917 -8.737038,14.502331 l -2.497374,1.221273 -23.424185,-0.0077 -23.424183,-0.0077 z m 51.673174,-0.200412 c 3.225159,-1.55923 5.913757,-3.985707 7.075265,-6.38547 1.039679,-2.148056 1.585437,-5.47472 1.35976,-8.288411 -0.130484,-1.626869 -0.322677,-2.27465 -1.159195,-3.906996 -1.205042,-2.351474 -3.717503,-4.882158 -6.25687,-6.302252 -0.908619,-0.508131 -1.712444,-1.081294 -1.786277,-1.273698 -0.07383,-0.192403 0.04949,-1.37025 0.274052,-2.617436 0.521226,-2.894835 0.25286,-4.701751 -1.058053,-7.123846 -1.480488,-2.73541 -3.911054,-4.34898 -7.582806,-5.033967 -1.160609,-0.216518 -1.684722,-0.165152 -3.900429,0.382267 -1.40781,0.347818 -2.787204,0.697842 -3.06532,0.777832 -0.421736,0.121296 -0.796767,-0.253463 -2.25953,-2.257885 -2.304798,-3.158265 -4.636952,-5.105965 -7.997617,-6.679218 -3.538764,-1.656626 -6.215721,-2.099809 -9.37379,-1.551874 -4.129428,0.716467 -8.58717,3.001614 -10.666991,5.468158 -2.675352,3.172809 -4.91825,7.960344 -5.391388,11.508083 -0.149194,1.118705 -0.324755,2.382724 -0.390135,2.808929 -0.0983,0.64078 -0.493742,1.04903 -2.284443,2.358414 -3.739664,2.734486 -5.550447,5.603349 -6.254236,9.908725 -0.829968,5.077264 0.07963,9.664125 2.520577,12.710633 1.473344,1.838854 4.246839,4.087644 6.696075,5.429275 l 2.509722,1.374762 23.321019,-0.08505 23.321016,-0.08505 z M 41.622844,69.612195 c -0.0832,-0.134618 0.749972,-2.875754 1.851492,-6.091414 2.364467,-6.902579 2.387943,-6.633174 -0.578007,-6.633174 -1.385561,0 -1.963246,-0.09181 -2.053232,-0.32631 -0.137943,-0.359473 3.456056,-13.56859 3.780052,-13.892927 0.382859,-0.383258 2.195527,-0.467233 6.237251,-0.288951 3.10667,0.137037 4.084634,0.257845 4.184027,0.516856 0.07134,0.185909 -0.931942,2.249205 -2.229517,4.585104 -1.297575,2.335896 -2.415709,4.463065 -2.484739,4.727042 -0.183106,0.700188 0.286621,0.886409 2.579261,1.022534 1.129072,0.06704 2.089143,0.23219 2.133493,0.367001 0.06715,0.204119 -11.443329,14.387592 -12.828685,15.807802 -0.262546,0.269149 -0.501162,0.352443 -0.591396,0.206437 z m 6.875276,-8.220948 c 3.386937,-4.092784 6.092002,-7.54832 6.011255,-7.67897 -0.08075,-0.130649 -0.915445,-0.237546 -1.854887,-0.237546 -1.937429,0 -2.651131,-0.274741 -2.651131,-1.020554 0,-0.283715 1.095457,-2.486811 2.43435,-4.89577 1.338893,-2.408956 2.374564,-4.476656 2.301491,-4.594888 -0.07307,-0.118232 -2.323087,-0.214967 -5.000039,-0.214967 -4.823909,0 -4.869013,0.0049 -5.073125,0.548498 -0.70666,1.882076 -3.478575,12.647318 -3.345692,12.993603 0.137902,0.359374 0.379255,0.397103 1.684668,0.26336 1.743616,-0.17864 2.610364,0.210199 2.610364,1.171055 0,0.31132 -0.819399,2.937888 -1.820886,5.836819 -1.001486,2.89893 -1.738435,5.270783 -1.63766,5.270783 0.100772,0 2.954353,-3.34864 6.341292,-7.441423 z"
         id="path232" /><path
         style="fill:#9fdddc;stroke-width:0.243777"
         d="m 23.237844,75.758845 c -2.449236,-1.341631 -5.222731,-3.590421 -6.696075,-5.429275 -2.44095,-3.046508 -3.350545,-7.633369 -2.520577,-12.710633 0.703789,-4.305376 2.514572,-7.174239 6.254236,-9.908725 1.790701,-1.309384 2.186147,-1.717634 2.284443,-2.358414 0.06538,-0.426205 0.240941,-1.690224 0.390135,-2.808929 0.473138,-3.547739 2.716036,-8.335274 5.391388,-11.508083 2.079821,-2.466544 6.537563,-4.751691 10.666991,-5.468158 3.158069,-0.547935 5.835026,-0.104752 9.37379,1.551874 3.360665,1.573253 5.692819,3.520953 7.997617,6.679218 1.462763,2.004422 1.837794,2.379181 2.25953,2.257885 0.278116,-0.07999 1.65751,-0.430014 3.06532,-0.777832 2.215707,-0.547419 2.73982,-0.598785 3.900429,-0.382267 3.671752,0.684987 6.102318,2.298557 7.582806,5.033967 1.310913,2.422095 1.579279,4.229011 1.058053,7.123846 -0.22456,1.247186 -0.347885,2.425033 -0.274052,2.617436 0.07383,0.192404 0.877658,0.765567 1.786277,1.273698 2.539367,1.420094 5.051828,3.950778 6.25687,6.302252 0.836518,1.632346 1.028711,2.280127 1.159195,3.906996 0.225677,2.813691 -0.320081,6.140355 -1.35976,8.288411 -1.161508,2.399763 -3.850106,4.82624 -7.075265,6.38547 l -2.349594,1.135932 -23.321016,0.08505 -23.321019,0.08505 z M 74.776693,75.43215 c 1.85245,-0.890744 2.891816,-1.586649 4.168493,-2.790999 2.895368,-2.731346 3.940339,-5.515365 3.959532,-10.549014 0.008,-2.08918 -0.05163,-2.359765 -0.939655,-4.266094 -1.159446,-2.489005 -3.451584,-4.871014 -6.309177,-6.556553 l -1.884292,-1.11144 0.0226,-1.084148 c 0.01243,-0.596283 0.109436,-2.074975 0.215567,-3.285985 0.155968,-1.779724 0.112785,-2.480736 -0.22526,-3.656651 -0.81753,-2.843848 -2.468732,-4.754074 -5.2239,-6.043373 -2.280478,-1.067164 -4.508474,-1.159326 -7.587294,-0.31385 -1.273734,0.34978 -2.500299,0.636042 -2.725698,0.636138 -0.234832,10e-5 -0.988142,-0.820469 -1.764249,-1.921768 -2.148944,-3.049373 -4.916724,-5.487947 -7.820774,-6.890562 -3.953411,-1.909441 -7.229093,-2.340073 -10.969955,-1.442145 -3.502239,0.84065 -6.50211,2.450623 -8.613412,4.622654 -3.054699,3.142562 -5.586025,8.608201 -6.012624,12.982453 -0.241985,2.481275 -0.269188,2.532344 -2.010846,3.775113 -2.355076,1.680473 -3.391821,2.67441 -4.515385,4.32893 -1.315464,1.937107 -2.098224,4.348181 -2.426336,7.473656 -0.544497,5.186678 0.76744,8.999096 4.271966,12.4141 2.369744,2.30921 2.307351,2.264325 5.41136,3.892659 L 26.235119,76.9241 49.272026,76.77143 72.308933,76.61876 Z M 40.568561,71.209494 c 0.07114,-0.301674 1.124191,-3.400686 2.340123,-6.886695 1.215934,-3.486008 2.150423,-6.530171 2.076647,-6.764806 -0.114595,-0.364444 -0.451455,-0.426609 -2.311706,-0.426609 -2.00121,0 -2.177563,-0.03875 -2.177563,-0.478434 0,-0.888652 3.625085,-13.73353 3.97449,-14.082935 0.190526,-0.190527 0.82773,-0.389832 1.416004,-0.442898 l 1.069591,-0.09649 -1.079515,0.23178 c -0.593733,0.127478 -1.164075,0.316435 -1.267427,0.419904 -0.314552,0.314905 -3.900309,13.529256 -3.766108,13.878981 0.08999,0.234501 0.667671,0.32631 2.053232,0.32631 2.966588,0 2.943249,-0.271663 0.571538,6.652057 -1.194716,3.487734 -1.920045,5.954724 -1.789232,6.085537 0.249045,0.249045 13.493589,-15.634214 13.364383,-16.02697 -0.0444,-0.134962 -1.004514,-0.300238 -2.133586,-0.367276 -2.29264,-0.136125 -2.762367,-0.322346 -2.579261,-1.022534 0.06903,-0.263977 1.187164,-2.391146 2.484739,-4.727042 1.297575,-2.335899 2.297974,-4.406708 2.22311,-4.6018 C 54.937835,42.6185 54.367946,42.50313 52.87924,42.442546 l -2.022665,-0.08231 2.103199,-0.04962 c 2.572143,-0.06068 2.871423,0.154753 2.13186,1.53462 -0.277572,0.517884 -1.19232,2.155911 -2.032777,3.640058 -0.840457,1.484148 -1.768561,3.173031 -2.062456,3.753076 -0.773977,1.527561 -0.494904,1.748806 2.205902,1.748806 1.980499,0 2.164143,0.0402 2.164143,0.47368 0,0.260524 -0.58455,1.165546 -1.299001,2.011159 -3.748244,4.43636 -12.888504,15.641029 -13.003318,15.940231 -0.216585,0.564414 -0.636003,0.392817 -0.495566,-0.202754 z"
         id="path230" /><path
         style="fill:#70c9cc;stroke-width:0.243777"
         d="m 23.797352,75.645271 c -3.099292,-1.625859 -3.045633,-1.587367 -5.368485,-3.850864 -1.196111,-1.165545 -2.258256,-2.473459 -2.734885,-3.367706 -0.788735,-1.479817 -1.546185,-3.91437 -1.501336,-4.825505 0.01346,-0.273503 0.173313,0.18143 0.355223,1.010969 0.181911,0.829536 0.768108,2.378118 1.302661,3.44129 1.340117,2.66536 4.179688,5.311926 7.664971,7.143979 l 2.475842,1.301439 23.036906,-0.07433 23.036907,-0.07433 2.476224,-1.098488 c 2.222271,-0.985831 2.675067,-1.302563 4.41509,-3.088384 2.188138,-2.245728 2.873933,-3.41532 3.365387,-5.739498 l 0.341178,-1.613488 -0.124621,1.340772 c -0.331544,3.567004 -3.326729,7.148477 -7.761721,9.281025 l -2.46776,1.18661 -23.036907,0.15267 -23.036907,0.15267 z m 16.292292,-3.783686 c -0.08104,-0.211177 0.105558,-0.923904 0.414655,-1.58384 0.646806,-1.380957 0.939781,-1.460469 0.371708,-0.10088 -0.20897,0.500135 -0.379945,1.06049 -0.379945,1.245232 0,0.480157 0.427709,0.415432 0.599457,-0.09071 0.07962,-0.234635 0.702533,-1.029957 1.384257,-1.767381 l 1.239495,-1.340773 -0.968423,1.218884 c -0.53263,0.670386 -1.15097,1.575408 -1.374087,2.011159 -0.432735,0.845142 -1.044961,1.039359 -1.287117,0.408314 z m 1.198046,-3.333636 c 0.06186,-0.167596 0.304168,-0.88775 0.538474,-1.600341 0.234304,-0.712591 0.468922,-1.25271 0.521368,-1.200262 0.123629,0.123629 -0.881412,3.105324 -1.046712,3.105324 -0.06907,0 -0.07498,-0.137124 -0.01314,-0.304721 z m 3.352577,-1.645493 c 0.561279,-0.670386 1.075358,-1.218884 1.142397,-1.218884 0.06704,0 -0.337341,0.548498 -0.89862,1.218884 -0.561279,0.670386 -1.075358,1.218884 -1.142397,1.218884 -0.06704,0 0.337341,-0.548498 0.89862,-1.218884 z m 2.193991,-2.681545 c 0.561279,-0.670386 1.075358,-1.218884 1.142397,-1.218884 0.06704,0 -0.337341,0.548498 -0.89862,1.218884 -0.561279,0.670386 -1.075358,1.218884 -1.142396,1.218884 -0.06704,0 0.33734,-0.548498 0.898619,-1.218884 z m 35.886601,-1.861902 c -0.04593,-2.207564 -0.134455,-2.649892 -0.829446,-4.144205 -1.159422,-2.492901 -3.471718,-4.940915 -6.230549,-6.59625 l -2.254936,-1.35299 0.03459,-1.006018 0.03459,-1.006016 0.14824,0.965871 c 0.137905,0.898541 0.279586,1.043091 2.032531,2.073699 2.861947,1.682623 5.148132,4.060454 6.317244,6.570485 0.941483,2.021321 0.955015,2.090854 0.877684,4.509871 l -0.07855,2.456897 z M 13.958236,61.878637 c -0.05339,-1.932794 0.417494,-5.081062 1.031339,-6.895432 1.005495,-2.97199 2.686471,-5.03568 6.066172,-7.447279 1.741658,-1.242769 1.768861,-1.293838 2.010846,-3.775113 0.426599,-4.374252 2.957925,-9.839891 6.012624,-12.982453 2.111302,-2.172031 5.111173,-3.782004 8.613412,-4.622654 3.740862,-0.897928 7.016544,-0.467296 10.969955,1.442145 2.90405,1.402615 5.67183,3.841189 7.820781,6.890562 0.776108,1.101299 1.529417,1.921868 1.76425,1.921768 0.225398,-9.6e-5 1.451963,-0.286358 2.725697,-0.636138 3.078821,-0.845476 5.306816,-0.753314 7.587294,0.31385 1.900114,0.889171 3.092909,1.896212 4.071387,3.437352 0.708323,1.115634 1.522462,3.402536 1.488696,4.181715 -0.0091,0.210302 -0.262937,-0.443298 -0.564053,-1.452441 -0.735482,-2.464858 -2.008179,-4.149817 -4.058991,-5.373804 -2.633915,-1.572005 -5.188274,-1.823687 -8.536853,-0.84114 -3.156351,0.926143 -3.129119,0.934072 -4.626896,-1.347321 -2.623713,-3.996403 -7.112814,-7.224341 -11.514463,-8.279604 -3.821269,-0.916122 -7.406643,-0.414613 -11.409985,1.595987 -4.36704,2.193259 -7.718305,6.559528 -9.347225,12.178234 -0.344031,1.186681 -0.688257,2.879292 -0.764947,3.761358 -0.07669,0.882065 -0.183422,1.825925 -0.237182,2.097463 -0.05679,0.286852 -1.037792,1.155031 -2.341374,2.072103 -4.287006,3.015916 -5.987173,6.261395 -6.509695,12.426464 -0.130686,1.541925 -0.230401,2.072481 -0.250789,1.334378 z m 34.58246,0.250171 c 0.314898,-0.335193 0.627391,-0.609442 0.69443,-0.609442 0.06704,0 -0.135755,0.274249 -0.450653,0.609442 -0.314899,0.335193 -0.627392,0.609442 -0.69443,0.609442 -0.06704,0 0.135754,-0.274249 0.450653,-0.609442 z m 1.706437,-2.072103 c 0.561279,-0.670386 1.075358,-1.218884 1.142397,-1.218884 0.06704,0 -0.337341,0.548498 -0.89862,1.218884 -0.561279,0.670386 -1.075358,1.218884 -1.142396,1.218884 -0.06704,0 0.33734,-0.548498 0.898619,-1.218884 z m -6.094419,0.165315 c 0,-0.04315 0.17577,-0.594318 0.390598,-1.224808 0.31066,-0.911737 0.329496,-1.219969 0.09204,-1.506087 -0.174274,-0.209984 -0.195512,-0.359741 -0.05102,-0.359741 0.483498,0 0.551938,0.823843 0.165179,1.988268 -0.3233,0.973366 -0.596802,1.478557 -0.596802,1.102368 z m 7.800857,-2.237418 c 0.314899,-0.335193 0.627391,-0.609442 0.69443,-0.609442 0.06704,0 -0.135755,0.274249 -0.450653,0.609442 -0.314899,0.335193 -0.627392,0.609442 -0.69443,0.609442 -0.06704,0 0.135754,-0.274249 0.450653,-0.609442 z M 40.008706,56.948551 c 1.09e-4,-0.234635 0.22452,-0.975107 0.498691,-1.645494 0.274171,-0.670386 0.432916,-0.944635 0.352762,-0.609442 -0.08015,0.335194 -0.208626,1.015733 -0.285496,1.512309 l -0.139767,0.902866 1.797966,0.08475 1.797963,0.08475 -2.011158,0.04844 c -1.77139,0.04266 -2.011134,-0.0024 -2.010961,-0.378171 z m 13.163749,-0.426609 c 0.314898,-0.335194 0.627391,-0.609442 0.69443,-0.609442 0.06704,0 -0.135755,0.274248 -0.450653,0.609442 -0.314899,0.335193 -0.627392,0.609442 -0.69443,0.609442 -0.06704,0 0.135754,-0.274249 0.450653,-0.609442 z m 1.218884,-1.462661 c 0.314898,-0.335193 0.627391,-0.609442 0.69443,-0.609442 0.06704,0 -0.135755,0.274249 -0.450653,0.609442 -0.314899,0.335193 -0.627392,0.609442 -0.69443,0.609442 -0.06704,0 0.135754,-0.274249 0.450653,-0.609442 z m 0.904677,-1.406354 0.127266,-0.665749 H 53.24963 c -2.097943,0 -2.769717,-0.20535 -2.751307,-0.84103 0.0041,-0.140781 0.119227,-0.06399 0.25589,0.170644 0.208588,0.358125 0.614113,0.426609 2.526162,0.426609 2.429901,0 2.874426,0.226776 2.214256,1.129608 -0.29612,0.404969 -0.314257,0.38487 -0.198615,-0.220082 z m -14.293155,-0.07662 c 0.0117,-0.283988 0.06946,-0.341751 0.147281,-0.147283 0.07042,0.175975 0.06176,0.386233 -0.01923,0.46724 -0.08101,0.08101 -0.138622,-0.06298 -0.128037,-0.319957 z m 0.258799,-0.832905 c 0,-0.201116 0.09428,-0.585064 0.209509,-0.853219 0.132059,-0.307315 0.209509,-0.352374 0.209509,-0.121888 0,0.201116 -0.09428,0.585064 -0.209509,0.853219 -0.132059,0.307314 -0.209509,0.352374 -0.209509,0.121888 z m 0.472532,-1.84864 c 0.0117,-0.283988 0.06946,-0.341751 0.14728,-0.147283 0.07042,0.175976 0.06176,0.386233 -0.01923,0.46724 -0.08101,0.08101 -0.138621,-0.06298 -0.128036,-0.319957 z m 9.731825,-0.589128 c 0.273606,-0.536309 0.552313,-0.975107 0.619352,-0.975107 0.06704,0 -0.10197,0.438798 -0.375575,0.975107 -0.273605,0.536309 -0.552313,0.975107 -0.619351,0.975107 -0.06704,0 0.101969,-0.438798 0.375574,-0.975107 z M 41.99299,50.061856 c 0,-0.201116 0.09428,-0.585064 0.209509,-0.853219 0.132059,-0.307314 0.209509,-0.352374 0.209509,-0.121888 0,0.201116 -0.09428,0.585064 -0.209509,0.853219 -0.132059,0.307315 -0.209509,0.352374 -0.209509,0.121888 z m 0.472532,-1.84864 c 0.0117,-0.283988 0.06946,-0.341751 0.14728,-0.147282 0.07042,0.175975 0.06176,0.386232 -0.01923,0.467239 -0.08101,0.08101 -0.138621,-0.06298 -0.128036,-0.319957 z M 52.80679,47.867865 c 0.208002,-0.402232 0.433035,-0.731331 0.500074,-0.731331 0.06704,0 -0.04829,0.329099 -0.256298,0.731331 -0.208002,0.402232 -0.433035,0.73133 -0.500074,0.73133 -0.06704,0 0.0483,-0.329098 0.256298,-0.73133 z M 73.701574,47.5022 c -0.005,-0.402232 0.07628,-1.279829 0.180692,-1.950215 0.155239,-0.996684 0.192493,-1.063344 0.204351,-0.365665 0.008,0.46927 -0.07334,1.346867 -0.180693,1.950214 -0.141914,0.797572 -0.197693,0.897379 -0.20435,0.365666 z M 42.724321,47.380311 c 0,-0.201116 0.09428,-0.585064 0.209509,-0.853219 0.132058,-0.307314 0.209509,-0.352374 0.209509,-0.121888 0,0.201116 -0.09428,0.585064 -0.209509,0.853219 -0.132059,0.307315 -0.209509,0.352374 -0.209509,0.121888 z M 53.903785,45.91765 c 0.143512,-0.268154 0.315781,-0.487553 0.38282,-0.487553 0.06704,0 0.0045,0.219399 -0.139043,0.487553 -0.143511,0.268155 -0.315781,0.487554 -0.38282,0.487554 -0.06704,0 -0.0045,-0.219399 0.139043,-0.487554 z M 43.196853,45.531671 c 0.0117,-0.283987 0.06946,-0.34175 0.14728,-0.147282 0.07042,0.175975 0.06176,0.386232 -0.01923,0.467239 -0.08101,0.08101 -0.138621,-0.06298 -0.128037,-0.319957 z m 0.258798,-0.832905 c 0,-0.201115 0.09428,-0.585064 0.209509,-0.853218 0.132059,-0.307315 0.209509,-0.352375 0.209509,-0.121889 0,0.201116 -0.09428,0.585065 -0.209509,0.853219 -0.132059,0.307315 -0.209509,0.352375 -0.209509,0.121888 z m 11.423241,-0.487553 c 0.143512,-0.268155 0.315781,-0.487554 0.38282,-0.487554 0.06704,0 0.0045,0.219399 -0.139043,0.487554 -0.143511,0.268154 -0.315781,0.487553 -0.38282,0.487553 -0.06704,0 -0.0045,-0.219399 0.139043,-0.487553 z m -10.969955,-1.12686 c 0,-0.414163 0.915382,-1.129783 1.265723,-0.989505 0.212966,0.08527 0.181767,0.134049 -0.09396,0.146905 -0.227032,0.01058 -0.583556,0.263053 -0.792275,0.561041 -0.208717,0.297987 -0.379487,0.424689 -0.379487,0.281559 z m 11.335621,-0.579578 c -0.08286,-0.134077 -0.03449,-0.243777 0.1075,-0.243777 0.14199,0 0.258165,0.1097 0.258165,0.243777 0,0.134077 -0.04838,0.243777 -0.107501,0.243777 -0.05913,0 -0.1753,-0.1097 -0.258164,-0.243777 z m -6.52103,-0.425144 c 1.106138,-0.04517 2.91618,-0.04517 4.022317,0 1.106138,0.04517 0.201116,0.08213 -2.011158,0.08213 -2.212274,0 -3.117296,-0.03696 -2.011159,-0.08213 z"
         id="path228" /><path
         style="fill:#56b8c3;stroke-width:0.243777"
         d="m 28.113724,76.452999 c 0.899156,-0.04677 2.434949,-0.04708 3.412875,-7.31e-4 0.977926,0.04639 0.242254,0.08466 -1.634828,0.08504 -1.877081,4.88e-4 -2.677202,-0.03758 -1.778047,-0.08434 z m 22.43813,-0.245939 c 3.988798,-0.03759 10.515922,-0.03759 14.504719,0 3.988798,0.03759 0.725236,0.06834 -7.252359,0.06834 -7.977596,0 -11.241157,-0.03075 -7.25236,-0.06834 z M 22.639412,74.787657 c -0.911345,-0.494413 -0.855872,-0.700336 0.06094,-0.226232 0.402232,0.208003 0.73133,0.430217 0.73133,0.493814 0,0.15687 -0.02619,0.148024 -0.792274,-0.267582 z m 53.082396,-0.261492 c 0.670386,-0.342099 2.096466,-1.46141 3.169064,-2.487359 l 1.950183,-1.865363 -1.828295,1.908116 c -1.560186,1.628305 -3.650084,3.117715 -4.3189,3.077958 -0.105014,-0.0062 0.357562,-0.29125 1.027948,-0.633352 z m -54.91862,-1.000791 c -0.583078,-0.569829 -0.592796,-0.597799 -0.06479,-0.186485 1.040405,0.810473 1.090089,0.856871 0.917564,0.856871 -0.09174,0 -0.475487,-0.301674 -0.852774,-0.670386 z m -2.741633,-2.437768 -1.577507,-1.645494 1.645493,1.577507 c 1.528404,1.465257 1.756931,1.71348 1.577507,1.71348 -0.03739,0 -0.777865,-0.740472 -1.645493,-1.645493 z m 21.953754,1.044247 c -0.163169,-0.196609 -0.24011,-0.498282 -0.170982,-0.670386 0.08095,-0.201526 0.132541,-0.165366 0.144935,0.101579 0.01058,0.227973 0.21122,0.526312 0.445856,0.662973 0.234635,0.136664 0.302917,0.251814 0.151736,0.25589 -0.151178,0.0041 -0.408373,-0.153448 -0.571545,-0.350056 z m 1.699637,-1.441009 c 0,-0.05062 0.191974,-0.242594 0.426609,-0.426609 0.386645,-0.303227 0.395267,-0.294604 0.09204,0.09204 -0.318462,0.406071 -0.518649,0.535207 -0.518649,0.334569 z m -1.201608,-0.761178 c 0,-0.134077 0.156775,-0.518026 0.348389,-0.853219 0.191613,-0.335193 0.348389,-0.499742 0.348389,-0.365665 0,0.134077 -0.156776,0.518026 -0.348389,0.853219 -0.191614,0.335193 -0.348389,0.499742 -0.348389,0.365665 z m 40.742593,-0.969759 c 0.291701,-0.600405 0.572176,-1.049834 0.623281,-0.998732 0.11028,0.110283 -0.874737,2.090379 -1.039878,2.090379 -0.06257,0 0.124899,-0.491242 0.416597,-1.091647 z m -38.200213,0.11654 c 0.242677,-0.268154 0.496081,-0.487554 0.56312,-0.487554 0.06704,0 -0.07667,0.2194 -0.319343,0.487554 -0.242678,0.268155 -0.496081,0.487554 -0.56312,0.487554 -0.06704,0 0.07667,-0.219399 0.319343,-0.487554 z m 0.609442,-0.823371 c 0,-0.05062 0.191974,-0.242594 0.426609,-0.426609 0.386645,-0.303227 0.395267,-0.294604 0.09204,0.09204 -0.318463,0.406071 -0.51865,0.535207 -0.51865,0.334569 z m 38.292202,-1.025269 c 0.0117,-0.283988 0.06946,-0.341751 0.14728,-0.147283 0.07042,0.175976 0.06176,0.386233 -0.01923,0.46724 -0.081,0.08101 -0.138621,-0.06298 -0.128036,-0.319957 z M 44.884044,66.790415 c 0,-0.05062 0.191974,-0.242594 0.426609,-0.426609 0.386645,-0.303227 0.395267,-0.294604 0.09204,0.09204 -0.318463,0.406072 -0.51865,0.535207 -0.51865,0.334569 z m 37.336339,-0.883066 c 0,-0.335194 0.05533,-0.472318 0.122958,-0.304721 0.06763,0.167596 0.06763,0.441845 0,0.609442 -0.06763,0.167596 -0.122958,0.03047 -0.122958,-0.304721 z m -67.52617,-0.731331 c 0,-0.335193 0.05533,-0.472317 0.122958,-0.304721 0.06763,0.167597 0.06763,0.441846 0,0.609442 -0.06763,0.167597 -0.122958,0.03047 -0.122958,-0.304721 z m 31.164938,0.395513 c 0,-0.05062 0.191974,-0.242594 0.426609,-0.426609 0.386645,-0.303227 0.395267,-0.294604 0.09204,0.09204 -0.318463,0.406072 -0.51865,0.535207 -0.51865,0.334569 z m 36.618292,-3.118063 c -0.02848,-1.430366 -0.114907,-2.80161 -0.192069,-3.047211 -0.129248,-0.41139 -0.118998,-0.413494 0.130206,-0.02672 0.169171,0.262559 0.241119,1.404035 0.192069,3.04721 l -0.07843,2.627385 z m -68.027007,1.503666 c 0,-0.335193 0.05533,-0.472317 0.122958,-0.304721 0.06763,0.167597 0.06763,0.441846 0,0.609442 -0.06763,0.167597 -0.122958,0.03047 -0.122958,-0.304721 z m 32.627599,0.151737 c 0,-0.05062 0.191974,-0.242595 0.426609,-0.42661 0.386645,-0.303227 0.395267,-0.294604 0.09204,0.09204 -0.318463,0.406071 -0.51865,0.535207 -0.51865,0.334569 z M 14.250128,61.519366 c 0,-1.005579 0.04303,-1.416953 0.09562,-0.914163 0.05259,0.50279 0.05259,1.325536 0,1.828326 -0.05259,0.50279 -0.09562,0.09142 -0.09562,-0.914163 z m 33.803014,1.370621 c 0,-0.05062 0.191974,-0.242595 0.42661,-0.42661 0.386644,-0.303227 0.395267,-0.294604 0.09204,0.09204 -0.318463,0.406072 -0.51865,0.535208 -0.51865,0.33457 z m 1.218884,-1.462661 c 0,-0.05062 0.191974,-0.242595 0.42661,-0.42661 0.386644,-0.303226 0.395267,-0.294604 0.09204,0.09204 -0.318463,0.406071 -0.51865,0.535207 -0.51865,0.33457 z m 1.218884,-1.462661 c 0,-0.05062 0.191974,-0.242595 0.426609,-0.42661 0.386645,-0.303226 0.395267,-0.294604 0.09204,0.09204 -0.318463,0.406071 -0.51865,0.535207 -0.51865,0.334569 z M 14.459469,58.228379 c 0.005,-0.402232 0.0596,-0.537269 0.121411,-0.300082 0.06181,0.237188 0.05774,0.566286 -0.009,0.731331 -0.06678,0.165044 -0.117347,-0.02902 -0.112379,-0.431249 z m 37.006548,0.517402 c 0,-0.05062 0.191974,-0.242595 0.42661,-0.42661 0.386644,-0.303226 0.395267,-0.294604 0.09204,0.09204 -0.318463,0.406071 -0.51865,0.535207 -0.51865,0.33457 z m -6.806504,-0.781493 c 0.0117,-0.283987 0.06946,-0.34175 0.147281,-0.147282 0.07042,0.175975 0.06176,0.386232 -0.01923,0.467239 -0.08101,0.08101 -0.138622,-0.06298 -0.128037,-0.319957 z m -4.803538,-0.702974 c -0.07548,-0.196694 -0.0807,-0.498367 -0.0116,-0.670386 0.0691,-0.172019 0.134299,-0.07256 0.144884,0.221018 0.0156,0.432825 0.192149,0.551869 0.933409,0.629407 l 0.914163,0.09562 -0.921813,0.04098 c -0.614405,0.02731 -0.967579,-0.07828 -1.059047,-0.316644 z m 12.828926,0.02181 c 0,-0.05062 0.191974,-0.242595 0.42661,-0.426609 0.386644,-0.303227 0.395267,-0.294605 0.09204,0.09204 -0.318463,0.406071 -0.51865,0.535207 -0.51865,0.334569 z M 81.206786,57.17272 c 0,-0.156037 -0.407383,-0.750243 -0.905295,-1.320459 -0.859242,-0.984014 -0.864374,-0.99955 -0.100909,-0.305423 0.884301,0.803991 1.367525,1.548266 1.147843,1.767945 -0.0779,0.0779 -0.141639,0.01397 -0.141639,-0.142063 z M 14.918744,56.014074 c 0.0117,-0.283988 0.06946,-0.341751 0.147282,-0.147283 0.07042,0.175976 0.06176,0.386233 -0.01925,0.46724 -0.081,0.081 -0.138622,-0.06298 -0.128037,-0.319957 z m 38.985041,-0.193615 c 0,-0.05062 0.191974,-0.242594 0.42661,-0.426609 0.386644,-0.303227 0.395267,-0.294605 0.09204,0.09204 -0.318463,0.406071 -0.51865,0.535207 -0.51865,0.334569 z m 24.240455,-2.406672 -0.715995,-0.792274 0.792275,0.715994 c 0.738512,0.667407 0.904327,0.868555 0.715994,0.868555 -0.04195,0 -0.398477,-0.356524 -0.792274,-0.792275 z M 16.53121,52.237106 c 0.242215,-0.412541 0.596169,-0.878764 0.786565,-1.036052 0.190395,-0.157289 0.03869,0.180244 -0.337116,0.750072 -0.789108,1.196503 -1.100304,1.394513 -0.449449,0.28598 z m 34.287599,0.130116 c -0.0794,-0.206899 -0.08989,-0.430649 -0.02331,-0.497222 0.06657,-0.06658 0.179557,0.102706 0.251071,0.376179 0.151909,0.580903 -0.01687,0.670603 -0.227761,0.121043 z M 75.46368,51.632956 c -0.454405,-0.364054 -0.451416,-0.368554 0.07529,-0.11331 0.301674,0.146191 0.548498,0.316791 0.548498,0.379112 0,0.186543 -0.126425,0.132673 -0.623793,-0.265802 z m -1.218884,-0.73133 c -0.454405,-0.364054 -0.451416,-0.368554 0.0753,-0.11331 0.301674,0.14619 0.548498,0.31679 0.548498,0.379112 0,0.186543 -0.126425,0.132673 -0.623793,-0.265802 z m -56.663753,-0.18472 c 0,-0.04195 0.356524,-0.398477 0.792275,-0.792274 l 0.792275,-0.715995 -0.715995,0.792275 c -0.667408,0.738512 -0.868555,0.904327 -0.868555,0.715994 z m 55.674729,-0.518922 c -0.07417,-0.193284 -0.09189,-0.549807 -0.03938,-0.792275 0.05962,-0.275275 0.14306,-0.143287 0.222173,0.351426 0.132761,0.830185 0.04647,1.038297 -0.182793,0.440849 z M 19.287481,49.238485 c 0,-0.05062 0.191974,-0.242594 0.426609,-0.426609 0.386644,-0.303227 0.395266,-0.294604 0.09204,0.09204 -0.318462,0.406072 -0.518648,0.535207 -0.518648,0.334569 z m 54.175004,-1.614397 c 0,-0.46927 0.05017,-0.661244 0.111486,-0.426609 0.06131,0.234635 0.06131,0.618583 0,0.853219 -0.06132,0.234635 -0.111486,0.04266 -0.111486,-0.42661 z m -52.468567,0.398865 c 0,-0.06704 0.329099,-0.356228 0.731331,-0.642642 0.402232,-0.286413 0.73133,-0.465903 0.73133,-0.398865 0,0.06704 -0.329098,0.356229 -0.73133,0.642642 -0.402232,0.286413 -0.731331,0.465904 -0.731331,0.398865 z m 1.844,-1.44543 c 0.09154,-0.240418 0.227856,-0.375714 0.302911,-0.300658 0.07506,0.07506 1.55e-4,0.27176 -0.166446,0.437124 -0.240758,0.238964 -0.268759,0.210964 -0.136465,-0.136466 z m 50.859311,-0.781761 c 0.005,-0.402232 0.0596,-0.537269 0.121411,-0.300082 0.06181,0.237188 0.05774,0.566286 -0.009,0.731331 -0.06678,0.165044 -0.117347,-0.02902 -0.112379,-0.431249 z M 23.249386,44.333101 c 0.0027,-0.536309 0.05263,-0.727003 0.110937,-0.423767 0.05831,0.303237 0.0561,0.742035 -0.0049,0.975107 -0.06102,0.233073 -0.108724,-0.01503 -0.106018,-0.55134 z m 32.399327,-1.584549 c 0,-0.335193 0.05533,-0.472318 0.122958,-0.304721 0.06763,0.167597 0.06763,0.441845 0,0.609442 -0.06763,0.167597 -0.122958,0.03047 -0.122958,-0.304721 z m -32.197781,-0.38598 c 0.0117,-0.283986 0.06946,-0.341751 0.147282,-0.147282 0.07042,0.175977 0.06176,0.386234 -0.01925,0.467239 -0.08101,0.081 -0.138622,-0.06298 -0.128037,-0.319957 z m 20.800509,-0.04063 c 0.409706,-0.483908 0.668065,-0.542876 2.193991,-0.500752 l 1.729599,0.04775 -1.700948,0.08655 c -1.142458,0.05813 -1.862833,0.222544 -2.193991,0.500751 -0.490172,0.411795 -0.49034,0.411013 -0.02865,-0.13429 z M 54.833184,42.09447 c 0.175975,-0.07042 0.386233,-0.06176 0.46724,0.01925 0.081,0.081 -0.06298,0.138622 -0.319957,0.128037 -0.283988,-0.0117 -0.341751,-0.06946 -0.147283,-0.147282 z m 18.348214,-0.463229 c 0.0117,-0.283986 0.06946,-0.341751 0.14728,-0.147282 0.07042,0.175976 0.06176,0.386234 -0.01923,0.467239 -0.08101,0.081 -0.138621,-0.06298 -0.128036,-0.319957 z M 23.694709,41.387465 c 0.0117,-0.283986 0.06946,-0.341751 0.147282,-0.147282 0.07042,0.175976 0.06176,0.386234 -0.01925,0.467239 -0.08101,0.081 -0.138621,-0.06298 -0.128036,-0.319957 z m 48.915425,-1.139167 -0.43013,-0.790733 0.491074,0.575504 c 0.417865,0.489711 0.641204,1.012842 0.430129,1.007504 -0.03352,-8.53e-4 -0.254503,-0.357371 -0.491073,-0.792275 z M 24.197285,39.82323 c 0,-0.201116 0.09428,-0.585064 0.209509,-0.853219 0.132057,-0.307314 0.209508,-0.352374 0.209508,-0.121888 0,0.201116 -0.09428,0.585064 -0.209508,0.853219 -0.132058,0.307314 -0.209509,0.352374 -0.209509,0.121888 z m 47.47111,-0.914163 c -0.303227,-0.386643 -0.294605,-0.395266 0.09204,-0.09204 0.406071,0.318463 0.535207,0.518649 0.334569,0.518649 -0.05062,0 -0.242594,-0.191975 -0.426609,-0.426609 z M 70.937064,37.93396 c -0.303226,-0.386644 -0.294604,-0.395266 0.09204,-0.09204 0.406071,0.318462 0.535207,0.518648 0.334569,0.518648 -0.05062,0 -0.242595,-0.191974 -0.42661,-0.426609 z m -1.08025,-0.683834 c -0.454405,-0.364055 -0.451416,-0.368556 0.07529,-0.113312 0.301674,0.146191 0.548498,0.316792 0.548498,0.379114 0,0.186543 -0.126425,0.132672 -0.623793,-0.265802 z m -11.74324,-0.521152 c 0.237187,-0.06181 0.566286,-0.05774 0.73133,0.009 0.165044,0.06678 -0.02902,0.117347 -0.431248,0.112379 -0.402232,-0.005 -0.53727,-0.0596 -0.300082,-0.121411 z m 10.173042,-0.318619 c -0.469271,-0.256915 -0.765496,-0.471716 -0.65828,-0.477335 0.25833,-0.01354 1.633387,0.701403 1.633387,0.84926 0,0.159555 -0.01426,0.154112 -0.975107,-0.371925 z m -8.090342,-0.166527 c 0.175975,-0.07042 0.386232,-0.06176 0.467239,0.01925 0.081,0.081 -0.06298,0.138621 -0.319957,0.128036 -0.283988,-0.0117 -0.34175,-0.06946 -0.147282,-0.147282 z M 56.39475,35.130527 c -0.889746,-1.313969 -1.082218,-1.645494 -0.955317,-1.645494 0.05597,0 0.502363,0.603348 0.991984,1.340773 0.489623,0.737425 0.839523,1.340772 0.777557,1.340772 -0.06197,0 -0.428369,-0.466223 -0.814224,-1.036051 z m 5.507961,0.625747 c 0.175975,-0.07042 0.386233,-0.06176 0.46724,0.01925 0.081,0.081 -0.06298,0.138622 -0.319957,0.128037 -0.283988,-0.0117 -0.341751,-0.06946 -0.147283,-0.147282 z m 4.616523,0.0051 c 0.167597,-0.06763 0.441846,-0.06763 0.609442,0 0.167597,0.06763 0.03047,0.122958 -0.304721,0.122958 -0.335193,0 -0.472317,-0.05533 -0.304721,-0.122958 z M 26.113231,35.191471 c 0.143512,-0.268154 0.315781,-0.487554 0.382819,-0.487554 0.06704,0 0.0045,0.2194 -0.139042,0.487554 -0.143512,0.268154 -0.315781,0.487554 -0.382819,0.487554 -0.06704,0 -0.0045,-0.2194 0.139042,-0.487554 z M 63.3447,35.503083 c 0.432759,-0.05385 1.200656,-0.05474 1.706437,-0.002 0.505778,0.05277 0.151702,0.09683 -0.786838,0.09792 -0.938541,0.0011 -1.352362,-0.0421 -0.919599,-0.09595 z M 26.844561,33.972587 c 0.143512,-0.268155 0.315781,-0.487554 0.38282,-0.487554 0.06704,0 0.0045,0.219399 -0.139043,0.487554 -0.143512,0.268154 -0.31578,0.487554 -0.382819,0.487554 -0.06704,0 -0.0045,-0.2194 0.139042,-0.487554 z m 0.853219,-1.218884 c 0.242677,-0.268155 0.49608,-0.487554 0.563119,-0.487554 0.06704,0 -0.07667,0.219399 -0.319342,0.487554 -0.242676,0.268154 -0.49608,0.487554 -0.563118,0.487554 -0.06704,0 0.07666,-0.2194 0.319341,-0.487554 z m 26.449782,-0.609442 c -0.592141,-0.603348 -1.021771,-1.096996 -0.954732,-1.096996 0.06704,0 0.606368,0.493648 1.198509,1.096996 0.592141,0.603348 1.021771,1.096996 0.954732,1.096996 -0.06704,0 -0.606368,-0.493648 -1.198509,-1.096996 z M 29.404218,30.803488 c 0.523692,-0.536308 1.007016,-0.975107 1.074055,-0.975107 0.06704,0 -0.306587,0.438799 -0.830278,0.975107 -0.523692,0.536309 -1.007017,0.975108 -1.074056,0.975108 -0.06704,0 0.306587,-0.438799 0.830279,-0.975108 z m 22.168352,-1.036051 -0.715995,-0.792275 0.792275,0.715995 c 0.738512,0.667408 0.904326,0.868555 0.715994,0.868555 -0.04195,0 -0.398477,-0.356524 -0.792274,-0.792275 z M 30.988767,29.492565 c 0,-0.05062 0.191974,-0.242596 0.426609,-0.426609 0.386644,-0.303227 0.395266,-0.294605 0.09204,0.09204 -0.318462,0.406071 -0.518648,0.535207 -0.518648,0.33457 z m 17.551929,-1.49251 c -1.139657,-0.58988 -1.987393,-1.078019 -1.883858,-1.084752 0.259124,-0.01685 4.077849,1.91466 4.077849,2.06258 0,0.165203 0.103359,0.211268 -2.193991,-0.977828 z m -13.6515,-0.73133 c 0.335193,-0.191614 0.719141,-0.348389 0.853218,-0.348389 0.134078,0 -0.03047,0.156775 -0.365665,0.348389 -0.335193,0.191613 -0.719141,0.348388 -0.853219,0.348388 -0.134077,0 0.03047,-0.156775 0.365666,-0.348388 z m 1.416952,-0.532193 c 0.175975,-0.07042 0.386233,-0.06176 0.46724,0.01925 0.081,0.08101 -0.06298,0.138622 -0.319957,0.128037 -0.283988,-0.0117 -0.341751,-0.06946 -0.147283,-0.147282 z m 9.507295,0 c 0.175975,-0.07042 0.386233,-0.06176 0.46724,0.01925 0.081,0.08101 -0.06298,0.138622 -0.319957,0.128037 -0.283988,-0.0117 -0.341751,-0.06946 -0.147283,-0.147282 z m -8.532188,-0.243777 c 0.175975,-0.07042 0.386233,-0.06176 0.46724,0.01925 0.08101,0.08101 -0.06298,0.138621 -0.319957,0.128036 -0.283988,-0.0117 -0.341751,-0.06946 -0.147283,-0.147282 z m 7.557081,0 c 0.175975,-0.07042 0.386232,-0.06176 0.467239,0.01925 0.08101,0.08101 -0.06298,0.138621 -0.319957,0.128036 -0.283987,-0.0117 -0.34175,-0.06946 -0.147282,-0.147282 z m -6.581974,-0.243776 c 0.175976,-0.07042 0.386236,-0.06176 0.46724,0.01925 0.081,0.081 -0.06298,0.138621 -0.319957,0.128036 -0.283988,-0.0117 -0.341751,-0.06946 -0.147283,-0.147282 z m 5.606867,0 c 0.175975,-0.07042 0.386232,-0.06176 0.467239,0.01925 0.081,0.081 -0.06298,0.138621 -0.319957,0.128036 -0.283988,-0.0117 -0.34175,-0.06946 -0.147282,-0.147282 z m -3.671888,-0.255744 c 0.569828,-0.05132 1.502274,-0.05132 2.072102,0 0.569829,0.05132 0.103606,0.09332 -1.036051,0.09332 -1.139656,0 -1.60588,-0.04199 -1.036051,-0.09332 z"
         id="path226" /><path
         style="fill:#48acbb;stroke-width:0.243777"
         d="m 24.002807,75.281517 c -2.564217,-1.338995 -3.326614,-1.889982 -5.532994,-3.9987 -3.00515,-2.872134 -4.24948,-6.383366 -3.97837,-11.226112 0.177479,-3.170254 0.948914,-5.759583 2.362212,-7.928797 1.166599,-1.790565 1.84233,-2.434557 4.435685,-4.22734 1.745803,-1.206874 1.84203,-1.322577 1.988465,-2.390937 0.08463,-0.617479 0.153881,-1.426808 0.153881,-1.798507 0,-0.371701 0.367912,-1.940828 0.817582,-3.486951 1.093524,-3.75992 2.624525,-6.451493 5.165951,-9.08199 1.668676,-1.727158 2.286624,-2.182443 4.142782,-3.052267 2.894457,-1.356389 5.116938,-1.909831 7.669391,-1.909831 5.607868,0 11.505151,3.377373 14.910534,8.539263 0.746206,1.131099 1.504586,2.007278 1.802023,2.08193 0.282466,0.07089 1.540732,-0.166605 2.796146,-0.527778 1.944761,-0.559492 2.596113,-0.6388 4.401176,-0.53588 1.871516,0.106709 2.325331,0.231169 3.891121,1.067152 2.216618,1.183463 3.58406,2.898946 4.367924,5.47965 0.460273,1.515352 0.497907,1.94708 0.282357,3.239297 l -0.248696,1.490927 0.120589,-1.511399 c 0.271575,-3.403804 -1.502584,-6.658866 -4.607386,-8.453204 -1.474855,-0.852353 -1.844915,-0.956835 -3.77972,-1.067153 -1.834881,-0.10462 -2.474617,-0.0274 -4.427365,0.534387 -1.255414,0.361172 -2.536653,0.592907 -2.847196,0.514966 -0.359054,-0.09012 -1.090713,-0.916974 -2.009595,-2.27107 -3.495394,-5.150925 -9.09512,-8.337312 -14.651912,-8.337312 -2.457038,0 -4.695638,0.541695 -7.435192,1.799163 -5.116849,2.348658 -9.36969,9.05416 -10.138028,15.984742 -0.126555,1.141553 -0.275727,2.202077 -0.331494,2.356722 -0.05577,0.154645 -1.156709,1.016946 -2.44654,1.916224 -1.843598,1.285367 -2.601965,2.000747 -3.545986,3.344986 -1.574763,2.242381 -2.440127,5.010055 -2.611685,8.352896 -0.341035,6.645099 2.380032,11.071569 9.078885,14.768988 l 1.950214,1.076419 23.402572,-0.08949 23.402572,-0.08949 2.315879,-1.164441 c 1.813248,-0.911713 2.665197,-1.527186 3.925362,-2.835787 2.649552,-2.75139 3.364135,-4.742571 3.379378,-9.416613 0.0079,-2.413042 -0.05153,-2.758935 -0.7326,-4.266094 -0.967875,-2.14184 -3.560631,-4.809648 -6.122238,-6.29946 C 74.292203,51.265743 73.328685,50.628181 73.177339,50.445819 72.979485,50.20742 72.97006,49.678776 73.1438,48.56445 l 0.241637,-1.549804 -0.117277,1.634204 -0.117273,1.634204 2.302099,1.354858 c 2.735763,1.610083 5.076858,4.046488 6.229632,6.483257 0.681737,1.441079 0.742684,1.781194 0.742859,4.1457 4.88e-4,4.944281 -0.787484,7.052307 -3.698255,9.895256 -1.336099,1.304969 -2.339691,2.018389 -3.980521,2.82962 L 72.55271,76.076461 49.355593,76.24182 26.158476,76.407179 Z m 15.944757,-2.811721 c -0.606782,-0.353418 -0.536248,-0.862173 0.386915,-2.790784 0.447438,-0.93476 1.50099,-3.763304 2.341228,-6.285656 0.84024,-2.522351 1.569715,-4.544085 1.621062,-4.492738 0.160039,0.160037 -2.777081,8.729228 -3.720819,10.855676 -0.796582,1.794868 -0.855976,2.061416 -0.531612,2.38578 0.441097,0.441098 1.109192,0.232676 1.31305,-0.409627 0.148412,-0.467606 3.930394,-5.337545 4.145125,-5.337545 0.06242,0 -0.722479,1.069415 -1.744221,2.37648 -1.021744,1.307063 -1.949083,2.616788 -2.060752,2.9105 -0.111667,0.29371 -0.420471,0.65039 -0.686229,0.792619 -0.574131,0.307266 -0.527775,0.30747 -1.063747,-0.0047 z m 6.033475,-6.806224 c 0.242678,-0.268155 0.496081,-0.487554 0.56312,-0.487554 0.06704,0 -0.07666,0.219399 -0.319343,0.487554 -0.242677,0.268154 -0.496081,0.487553 -0.563119,0.487553 -0.06704,0 0.07667,-0.219399 0.319342,-0.487553 z m 1.096996,-1.340773 c 0.314899,-0.335193 0.627391,-0.609442 0.69443,-0.609442 0.06704,0 -0.135754,0.274249 -0.450653,0.609442 -0.314899,0.335193 -0.627391,0.609442 -0.69443,0.609442 -0.06704,0 0.135754,-0.274249 0.450653,-0.609442 z m 1.096996,-1.340772 c 0.242677,-0.268155 0.49608,-0.487554 0.563119,-0.487554 0.06704,0 -0.07666,0.219399 -0.319343,0.487554 -0.242677,0.268154 -0.49608,0.487553 -0.563119,0.487553 -0.06704,0 0.07666,-0.219399 0.319343,-0.487553 z m 1.096995,-1.340773 c 0.314899,-0.335193 0.627391,-0.609442 0.69443,-0.609442 0.06704,0 -0.135754,0.274249 -0.450653,0.609442 -0.314899,0.335194 -0.627391,0.609442 -0.69443,0.609442 -0.06704,0 0.135754,-0.274248 0.450653,-0.609442 z m 1.218884,-1.46266 c 0.314899,-0.335193 0.627391,-0.609442 0.69443,-0.609442 0.06704,0 -0.135754,0.274249 -0.450653,0.609442 -0.314899,0.335193 -0.627391,0.609442 -0.69443,0.609442 -0.06704,0 0.135754,-0.274249 0.450653,-0.609442 z m 1.096996,-1.340773 c 0.242677,-0.268154 0.496081,-0.487553 0.563119,-0.487553 0.06704,0 -0.07666,0.219399 -0.319343,0.487553 -0.242677,0.268155 -0.49608,0.487554 -0.563119,0.487554 -0.06704,0 0.07666,-0.219399 0.319343,-0.487554 z M 44.39649,58.070526 c 0,-0.507548 -0.06416,-0.518584 -2.103452,-0.361833 -2.894416,0.222483 -3.25435,-0.138377 -2.307764,-2.313702 0.255375,-0.586874 1.145524,-3.590131 1.978109,-6.673907 0.832588,-3.083777 1.667785,-5.906951 1.855997,-6.273721 0.373898,-0.728624 1.107337,-1.01334 2.193148,-0.851367 0.548081,0.08176 0.483366,0.112318 -0.298427,0.140923 -0.653338,0.0239 -1.150409,0.204638 -1.438578,0.523062 -0.25343,0.280038 -1.095069,2.892522 -1.983012,6.155363 -0.848487,3.117856 -1.773086,6.30741 -2.054663,7.087898 -0.752975,2.087117 -0.678764,2.157127 2.080928,1.96314 l 2.321491,-0.163185 v 0.645424 c 0,0.354983 -0.05485,0.645423 -0.121888,0.645423 -0.06704,0 -0.121889,-0.235583 -0.121889,-0.523518 z m 8.288411,-0.573477 c 0.314899,-0.335193 0.627391,-0.609442 0.69443,-0.609442 0.06704,0 -0.135754,0.274249 -0.450653,0.609442 -0.314899,0.335193 -0.627391,0.609442 -0.69443,0.609442 -0.06704,0 0.135755,-0.274249 0.450653,-0.609442 z m 1.218884,-1.462661 c 0.314899,-0.335193 0.627391,-0.609442 0.69443,-0.609442 0.06704,0 -0.135754,0.274249 -0.450653,0.609442 -0.314899,0.335193 -0.627391,0.609442 -0.69443,0.609442 -0.06704,0 0.135755,-0.274249 0.450653,-0.609442 z m 1.313099,-1.54231 C 55.567296,54.046042 55.854,53.470119 55.854,53.21225 c 0,-0.429506 -0.193123,-0.468849 -2.301492,-0.468849 -1.265821,0 -2.3527,-0.08227 -2.415287,-0.182833 -0.06259,-0.100558 1.000509,-0.127982 2.362436,-0.06094 2.310226,0.113717 2.48128,0.157326 2.551521,0.650485 0.0473,0.332087 -0.212202,0.83052 -0.698059,1.340772 l -0.773353,0.812176 z m -4.23842,-2.573371 c 0,-0.261619 0.725328,-1.613074 0.865739,-1.613074 0.06704,0 -0.05943,0.356524 -0.281041,0.792275 -0.452505,0.889761 -0.584698,1.075331 -0.584698,0.820799 z m 1.706437,-3.319512 c 0.143512,-0.268154 0.315781,-0.487553 0.38282,-0.487553 0.06704,0 0.0045,0.219399 -0.139043,0.487553 -0.143511,0.268155 -0.315781,0.487554 -0.38282,0.487554 -0.06704,0 -0.0045,-0.219399 0.139043,-0.487554 z m 1.218884,-2.193991 c 0.143512,-0.268154 0.315781,-0.487554 0.38282,-0.487554 0.06704,0 0.0045,0.2194 -0.139043,0.487554 -0.143511,0.268155 -0.315781,0.487554 -0.38282,0.487554 -0.06704,0 -0.0045,-0.219399 0.139043,-0.487554 z m 0.853219,-1.462661 c 0.208002,-0.402231 0.433035,-0.73133 0.500074,-0.73133 0.06704,0 -0.0483,0.329099 -0.256297,0.73133 -0.208003,0.402232 -0.433036,0.731331 -0.500074,0.731331 -0.06704,0 0.04829,-0.329099 0.256297,-0.731331 z m 0.918141,-1.656461 c 0.244998,-0.669311 0.233614,-0.845155 -0.06828,-1.05461 -0.319479,-0.221655 -0.319081,-0.239713 0.0034,-0.152771 0.506563,0.13659 0.579647,0.941648 0.138426,1.52484 -0.33679,0.445156 -0.342936,0.418603 -0.0735,-0.317459 z m -6.098398,-1.449633 c 0.905021,-0.0469 2.385965,-0.0469 3.290987,0 0.905021,0.0469 0.164549,0.08528 -1.645494,0.08528 -1.810042,0 -2.550514,-0.03838 -1.645493,-0.08528 z"
         id="path224" /><path
         style="fill:#218daf;stroke-width:0.243777"
         d="m 23.91924,74.973839 c -6.676584,-3.491576 -9.544234,-8.102882 -9.200773,-14.795245 0.171558,-3.342841 1.036922,-6.110515 2.611685,-8.352896 0.944021,-1.344239 1.702388,-2.059619 3.545986,-3.344986 1.289831,-0.899278 2.390773,-1.761579 2.44654,-1.916224 0.05577,-0.154645 0.204939,-1.215169 0.331494,-2.356722 0.768338,-6.930582 5.021179,-13.636084 10.138028,-15.984742 2.739554,-1.257468 4.978154,-1.799163 7.435192,-1.799163 5.556792,0 11.156518,3.186387 14.651912,8.337312 0.918882,1.354096 1.650541,2.180953 2.009595,2.27107 0.310543,0.07794 1.591782,-0.153794 2.847196,-0.514966 1.952748,-0.56179 2.592484,-0.639007 4.427365,-0.534387 1.934805,0.110318 2.304865,0.2148 3.77972,1.067153 2.173567,1.256156 3.500971,2.902169 4.202207,5.210836 0.530873,1.747777 0.532706,1.808329 0.145657,4.809848 -0.293988,2.27983 -0.322802,3.123149 -0.115258,3.373222 0.1522,0.183391 1.116417,0.821794 2.142705,1.418677 2.561607,1.489812 5.154363,4.15762 6.122238,6.299456 0.68107,1.507159 0.740469,1.853052 0.7326,4.266094 -0.01524,4.674042 -0.729826,6.665223 -3.379378,9.416613 -1.261174,1.309652 -2.110661,1.923084 -3.925362,2.834592 l -2.315879,1.163245 -23.280684,0.107418 -23.280683,0.10742 z m 17.092071,-2.499338 c 0.265758,-0.142229 0.576291,-0.503455 0.690071,-0.802721 0.267645,-0.703959 3.757183,-5.141401 9.685973,-12.317091 3.308902,-4.004804 4.710719,-5.878851 4.66044,-6.230399 -0.06573,-0.459553 -0.260522,-0.508387 -2.265898,-0.568012 -1.206695,-0.03588 -2.333895,-0.115777 -2.504887,-0.17755 -0.373937,-0.135091 0.30817,-1.547939 3.001933,-6.217891 1.016318,-1.761906 1.812651,-3.387574 1.769629,-3.612596 -0.04753,-0.248625 -0.411861,-0.471871 -0.92867,-0.569055 l -0.850452,-0.159924 0.975108,0.03804 c 1.505224,0.05871 1.40421,0.619359 -0.805566,4.470963 -2.184686,3.807874 -2.972975,5.310032 -2.972975,5.66527 0,0.142198 0.995414,0.273881 2.376824,0.314433 2.365047,0.06943 2.377192,0.07295 2.451159,0.711127 0.05989,0.516724 -0.604209,1.464172 -3.417424,4.875536 -6.408731,7.771365 -8.480086,10.370548 -8.480086,10.641001 0,1.194609 2.156016,-0.06219 4.631759,-2.699972 3.042778,-3.241931 7.26088,-8.411879 7.94041,-9.732221 0.782728,-1.520855 0.77698,-3.010763 -0.01767,-4.578918 -0.802425,-1.583511 -0.768764,-2.587779 0.157731,-4.706065 1.066297,-2.437919 1.1039,-4.224993 0.110728,-5.262448 -1.016303,-1.061616 -2.616219,-1.332629 -6.605709,-1.118954 -1.777131,0.09518 -3.381033,0.265692 -3.564224,0.37891 -0.707448,0.437227 0.231505,0.699278 2.835616,0.791388 1.472831,0.0521 0.884327,0.06686 -1.307787,0.03281 -3.610029,-0.05607 -4.028416,-0.01915 -4.439324,0.391754 -0.489647,0.489648 -0.522238,0.592104 -2.541244,7.989243 -0.744101,2.726195 -1.515565,5.271261 -1.714367,5.655705 -0.917581,1.774402 -0.359527,2.244767 2.410623,2.031835 1.81007,-0.139133 2.103453,-0.108783 2.103453,0.217603 0,0.639704 -3.312142,10.197335 -4.117459,11.881481 -0.868135,1.815516 -0.930123,2.313335 -0.331468,2.662019 0.535973,0.312175 0.489616,0.311971 1.063747,0.0047 z"
         id="path222" /><path
         style="fill:#137493;stroke-width:0.243777"
         d="m 44.482858,68.706123 c -0.143309,-0.373461 0.99496,-1.839603 8.393718,-10.811496 2.813215,-3.411364 3.477315,-4.358812 3.417424,-4.875536 -0.07397,-0.638176 -0.08611,-0.641701 -2.451159,-0.711127 -1.38141,-0.04055 -2.376824,-0.172235 -2.376824,-0.314433 0,-0.355238 0.788289,-1.857396 2.972975,-5.66527 1.168652,-2.036943 1.902322,-3.57837 1.856475,-3.900429 -0.06902,-0.484875 -0.261119,-0.546687 -2.147905,-0.691137 -1.139657,-0.08725 -3.190048,-0.169525 -4.556427,-0.182832 -2.372853,-0.02311 -3.264759,-0.290974 -2.513939,-0.755007 0.575682,-0.35579 6.692254,-0.550527 8.101651,-0.257936 2.84863,0.591373 3.495947,2.69697 1.929879,6.277532 -0.926496,2.118286 -0.960156,3.122554 -0.157731,4.706065 0.794644,1.568155 0.800392,3.058063 0.01767,4.578918 -1.32441,2.573357 -9.313071,11.587933 -11.038852,12.456478 -1.224201,0.616112 -1.265045,0.620239 -1.446949,0.14621 z"
         id="path220" /></g></g></svg>
