<?xml version="1.0" encoding="UTF-8" standalone="no"?>
<!-- Created with Inkscape (http://www.inkscape.org/) -->

<svg
   version="1.1"
   id="svg2"
   width="292.66666"
   height="276.66666"
   viewBox="0 0 292.66666 276.66666"
   sodipodi:docname="Bitcoin.svg"
   inkscape:version="1.2.1 (9c6d41e410, 2022-07-14)"
   xmlns:inkscape="http://www.inkscape.org/namespaces/inkscape"
   xmlns:sodipodi="http://sodipodi.sourceforge.net/DTD/sodipodi-0.dtd"
   xmlns="http://www.w3.org/2000/svg"
   xmlns:svg="http://www.w3.org/2000/svg">
  <defs
     id="defs6" />
  <sodipodi:namedview
     id="namedview4"
     pagecolor="#ffffff"
     bordercolor="#000000"
     borderopacity="0.25"
     inkscape:showpageshadow="2"
     inkscape:pageopacity="0.0"
     inkscape:pagecheckerboard="0"
     inkscape:deskcolor="#d1d1d1"
     showgrid="false"
     inkscape:zoom="2.6248145"
     inkscape:cx="-41.717233"
     inkscape:cy="141.34332"
     inkscape:window-width="2560"
     inkscape:window-height="1334"
     inkscape:window-x="-11"
     inkscape:window-y="-11"
     inkscape:window-maximized="1"
     inkscape:current-layer="g8" />
  <g
     inkscape:groupmode="layer"
     inkscape:label="Image"
     id="g8">
    <g
       id="g170"
       transform="translate(-6)">
      <path
         style="fill:#dedede;fill-opacity:1;stroke-width:0.666667"
         d="m 118,250.33333 v -13.66667 h -21.000002 -21 v -9 -9 h 9 9 v -84 -83.999995 h -9 -9 v -8.999999 -9 h 21 H 118 V 19 5.3333332 h 9.33333 9.33333 V 19 32.666666 H 145.33333 154 V 19 5.3333332 h 9.33333 9.33333 V 19.613088 33.892844 l 3.5,1.145762 c 10.92859,3.577593 21.33049,11.605259 27.46635,21.197147 11.5015,17.979739 10.23099,42.589918 -3.04955,59.070917 -1.84046,2.28399 -3.24966,4.22025 -3.13154,4.30279 0.1181,0.0825 1.8592,0.81642 3.8691,1.63084 13.38156,5.42228 26.37876,18.43153 31.97649,32.00617 3.54956,8.60778 4.32924,12.89149 4.32336,23.75353 -0.004,7.56532 -0.29748,11.05502 -1.20504,14.33333 -7.45028,26.91214 -30.90522,45.33333 -57.72106,45.33333 h -6.02811 v 13.66667 13.66666 H 163.33333 154 v -13.66666 -13.66667 h -8.66667 -8.66667 v 13.66667 13.66666 H 127.33333 118 Z m 65.33696,-32.37328 c 16.11548,-2.02071 29.98589,-13.44891 34.7319,-28.61653 6.07655,-19.41989 -2.72854,-40.46556 -20.78189,-49.67226 -8.96934,-4.57411 -8.44292,-4.52166 -48.45364,-4.82818 l -36.16667,-0.27707 v 42.05033 42.05032 h 32.51749 c 18.91477,0 34.87486,-0.29559 38.15281,-0.70661 z M 165,115.97306 c 14.02871,-2.00569 25.66478,-13.64738 27.62638,-27.639729 2.51314,-17.926513 -10.14683,-34.665478 -27.96683,-36.977661 -2.74609,-0.356311 -15.56789,-0.6571 -28.49289,-0.668421 l -23.5,-0.02058 v 33 32.999991 L 136.5,116.65346 c 13.10833,-0.007 25.93333,-0.31344 28.5,-0.6804 z"
         id="path216" />
      <path
         style="fill:#d6d6d6;fill-opacity:1;stroke-width:0.666667"
         d="m 118,250.33333 v -13.66667 h -21.000002 -21 v -9 -9 h 9 9 v -84 -83.999995 h -9 -9 v -8.999999 -9 h 21 H 118 V 19 5.3333332 h 9.33333 9.33333 V 19 32.666666 H 145.33333 154 V 19 5.3333332 h 9.32033 9.32033 L 172.82033,19.760171 173,34.187009 l 2.7702,0.817519 c 8.50108,2.508774 18.85117,9.598287 24.59604,16.847583 4.08007,5.148514 8.0158,13.288254 9.71714,20.096641 1.17312,4.694559 1.34856,6.935719 1.06986,13.666666 -0.18335,4.428186 -0.82,9.799173 -1.41477,11.935533 -1.59436,5.726769 -5.38923,13.082429 -9.16989,17.774179 -1.83228,2.27384 -3.23478,4.22109 -3.11666,4.32723 0.1181,0.10614 1.86474,0.88956 3.88141,1.74095 16.76624,7.07825 28.88768,20.80957 34.41094,38.98111 1.611,5.3002 1.81628,7.06433 1.85708,15.95891 0.0494,10.77417 -0.8269,15.36155 -4.68853,24.54377 -8.8468,21.03603 -31.1971,35.78956 -54.21805,35.78956 h -6.02811 v 13.66667 13.66666 H 163.33333 154 v -13.66666 -13.66667 h -8.66667 -8.66667 v 13.66667 13.66666 H 127.33333 118 Z m 65.74379,-32.38625 c 32.06338,-4.45961 47.06524,-41.11819 27.39687,-66.94708 -3.54945,-4.66122 -8.4476,-8.62742 -14.30273,-11.5814 -8.61677,-4.34728 -8.21963,-4.30931 -48.0046,-4.58932 l -36.16667,-0.25454 v 42.04596 42.04596 h 32.95176 c 19.9434,0 34.99415,-0.28407 38.12537,-0.71958 z M 165.33333,115.97009 C 185.65374,112.75084 198.34334,90.820351 190.87361,71.830685 186.69257,61.201561 176.29469,52.975075 165,51.360271 c -2.56667,-0.366957 -15.39167,-0.673137 -28.5,-0.6804 l -23.83334,-0.01321 v 33 32.999999 l 24.16667,-0.005 c 13.29866,-0.003 26.11541,-0.31377 28.5,-0.69154 z"
         id="path214" />
      <path
         style="fill:#cfcfcf;fill-opacity:1;stroke-width:0.666667"
         d="m 118,250.33333 v -13.66667 h -21.000002 -21 v -9 -9 h 9 9 v -84 -83.999995 h -9 -9 v -8.999999 -9 h 21 H 118 V 19 5.3333332 h 9.33333 9.33333 V 19 32.666666 H 145.33333 154 V 19 5.3333332 h 9.32033 9.32033 L 172.82033,19.760171 173,34.187009 l 2.7702,0.817519 c 8.50108,2.508774 18.85117,9.598287 24.59604,16.847583 4.08007,5.148514 8.0158,13.288254 9.71714,20.096641 1.17312,4.694559 1.34856,6.935719 1.06986,13.666666 -0.18335,4.428186 -0.82,9.799173 -1.41477,11.935533 -1.59436,5.726769 -5.38923,13.082429 -9.16989,17.774179 -1.83228,2.27384 -3.23478,4.22109 -3.11666,4.32723 0.1181,0.10614 1.86474,0.88956 3.88141,1.74095 16.76624,7.07825 28.88768,20.80957 34.41094,38.98111 1.611,5.3002 1.81628,7.06433 1.85708,15.95891 0.0494,10.77417 -0.8269,15.36155 -4.68853,24.54377 -8.8468,21.03603 -31.1971,35.78956 -54.21805,35.78956 h -6.02811 v 13.66667 13.66666 H 163.33333 154 v -13.66666 -13.66667 h -8.66667 -8.66667 v 13.66667 13.66666 H 127.33333 118 Z m 65.74379,-32.38625 c 32.06338,-4.45961 47.06524,-41.11819 27.39687,-66.94708 -3.54945,-4.66122 -8.4476,-8.62742 -14.30273,-11.5814 -8.61677,-4.34728 -8.21963,-4.30931 -48.0046,-4.58932 l -36.16667,-0.25454 v 42.04596 42.04596 h 32.95176 c 19.9434,0 34.99415,-0.28407 38.12537,-0.71958 z M 165.33333,115.97009 C 185.65374,112.75084 198.34334,90.820351 190.87361,71.830685 186.69257,61.201561 176.29469,52.975075 165,51.360271 c -2.56667,-0.366957 -15.39167,-0.673137 -28.5,-0.6804 l -23.83334,-0.01321 v 33 32.999999 l 24.16667,-0.005 c 13.29866,-0.003 26.11541,-0.31377 28.5,-0.69154 z"
         id="path212" />
      <path
         style="fill:#c7c7c7;fill-opacity:1;stroke-width:0.666667"
         d="m 118,250.33333 v -13.66667 h -21.000002 -21 v -9 -9 h 9 9 v -84 -83.999995 h -9 -9 v -8.999999 -9 h 21 H 118 V 19 5.3333332 h 9.33333 9.33333 V 19 32.666666 H 145.33333 154 V 19 5.3333332 h 9.32033 9.32033 L 172.82033,19.804437 173,34.275541 l 2.66666,0.792121 c 7.78604,2.312808 14.85628,6.70346 21.31306,13.235514 7.01113,7.092871 11.32836,15.190165 13.45974,25.244756 1.23866,5.843239 0.88492,18.283106 -0.6799,23.910712 -1.57114,5.650316 -5.54539,13.342356 -9.30274,18.005186 -2.3436,2.90839 -3.05769,4.22477 -2.40906,4.44097 0.50704,0.16902 3.77872,1.7479 7.2704,3.50864 11.54142,5.81995 20.41455,14.87222 26.38719,26.91989 4.70244,9.48549 5.87474,14.81894 5.8614,26.66667 -0.0101,8.95381 -0.20076,10.62341 -1.82248,15.9589 -3.62856,11.93799 -10.99246,23.16966 -19.91655,30.37743 -4.94812,3.99648 -17.08956,10.1087 -23.16106,11.65971 -2.38333,0.60883 -7.85833,1.27497 -12.16666,1.48031 l -7.83334,0.37334 v 13.57515 13.57515 H 163.33333 154 v -13.66666 -13.66667 h -8.66667 -8.66667 v 13.66667 13.66666 H 127.33333 118 Z m 73.143,-33.86724 c 16.65652,-5.604 27.64278,-19.85915 28.66279,-37.19127 1.19103,-20.23799 -11.01655,-37.29377 -30.80579,-43.04018 -3.53202,-1.02562 -8.23135,-1.19014 -40.16667,-1.4062 l -36.16667,-0.24468 v 42.07796 42.07794 l 36.5,-0.21555 c 36.5,-0.21554 36.5,-0.21554 41.97634,-2.05802 z M 167.17351,115.66295 C 186.37688,111.1353 197.29418,92.202304 191.47373,73.520992 188.6498,64.457319 180.23512,55.891495 170.985,52.664271 166.40634,51.066846 165.9122,51.037697 139.5,50.806983 L 112.66666,50.57259 v 33.047035 33.047035 l 25.16667,-0.01 c 19.83182,-0.008 26.05137,-0.21845 29.34018,-0.99386 z"
         id="path210" />
      <path
         style="fill:#bfbfbf;fill-opacity:1;stroke-width:0.666667"
         d="m 118,250.33333 v -13.66667 h -21.000002 -21 v -9 -9 h 9 9 v -84 -83.999995 h -9 -9 v -8.999999 -9 h 21 H 118 V 19 5.3333332 h 9.33333 9.33333 V 19 32.666666 H 145.33333 154 V 19 5.3333332 h 9.32033 9.32033 L 172.82033,19.804437 173,34.275541 l 2.66666,0.792121 c 7.78604,2.312808 14.85628,6.70346 21.31306,13.235514 7.01113,7.092871 11.32836,15.190165 13.45974,25.244756 1.23866,5.843239 0.88492,18.283106 -0.6799,23.910712 -1.57114,5.650316 -5.54539,13.342356 -9.30274,18.005186 -2.3436,2.90839 -3.05769,4.22477 -2.40906,4.44097 0.50704,0.16902 3.77872,1.7479 7.2704,3.50864 11.54142,5.81995 20.41455,14.87222 26.38719,26.91989 4.70244,9.48549 5.87474,14.81894 5.8614,26.66667 -0.0101,8.95381 -0.20076,10.62341 -1.82248,15.9589 -3.62856,11.93799 -10.99246,23.16966 -19.91655,30.37743 -4.94812,3.99648 -17.08956,10.1087 -23.16106,11.65971 -2.38333,0.60883 -7.85833,1.27497 -12.16666,1.48031 l -7.83334,0.37334 v 13.57515 13.57515 H 163.33333 154 v -13.66666 -13.66667 h -8.66667 -8.66667 v 13.66667 13.66666 H 127.33333 118 Z m 73.143,-33.86724 c 16.65652,-5.604 27.64278,-19.85915 28.66279,-37.19127 1.19103,-20.23799 -11.01655,-37.29377 -30.80579,-43.04018 -3.53202,-1.02562 -8.23135,-1.19014 -40.16667,-1.4062 l -36.16667,-0.24468 v 42.07796 42.07794 l 36.5,-0.21555 c 36.5,-0.21554 36.5,-0.21554 41.97634,-2.05802 z M 167.17351,115.66295 C 186.37688,111.1353 197.29418,92.202304 191.47373,73.520992 188.6498,64.457319 180.23512,55.891495 170.985,52.664271 166.40634,51.066846 165.9122,51.037697 139.5,50.806983 L 112.66666,50.57259 v 33.047035 33.047035 l 25.16667,-0.01 c 19.83182,-0.008 26.05137,-0.21845 29.34018,-0.99386 z"
         id="path208" />
      <path
         style="fill:#b7b7b7;fill-opacity:1;stroke-width:0.666667"
         d="M 118.46289,263.574 C 118.2083,263.31941 118,257.16111 118,249.88888 v -13.22222 h -21.000002 -21 v -9 -9 h 9 9 v -84 -83.999995 h -9 -9 v -8.999999 -9 h 20.986193 20.986199 l 0.18047,-13.5 0.18047,-13.4999995 h 9 9 l 0.18047,13.4999995 0.18047,13.5 h 8.63906 8.63906 l 0.18047,-13.5 0.18047,-13.4999995 h 9 9 L 172.66666,19.881508 173,34.09635 l 5.66666,2.137941 c 13.09476,4.940441 23.86866,15.470982 29.1135,28.455913 7.03642,17.420407 3.30884,39.220306 -9.04498,52.897526 -1.15795,1.282 -1.46233,2.0198 -0.91497,2.21785 0.45111,0.16323 3.45111,1.57747 6.66667,3.14275 15.38049,7.48701 26.97207,21.68477 31.61109,38.71833 1.18866,4.36452 1.45364,7.14986 1.45873,15.33334 0.005,9.00383 -0.17563,10.5977 -1.81929,16 -3.59343,11.81073 -11.1325,23.28507 -19.90969,30.30221 -5.32124,4.25419 -16.07052,9.72176 -22.49439,11.44166 -2.88858,0.77337 -8.30218,1.50041 -12.81982,1.72168 l -7.81982,0.38302 -0.18018,13.40904 -0.18018,13.40905 h -9 -9 l -0.18047,-13.5 -0.18047,-13.5 h -8.63906 -8.63906 l -0.18047,13.5 -0.18047,13.5 -8.70377,0.18511 c -4.78708,0.10182 -8.91208,-0.0232 -9.16667,-0.27777 z m 70.87044,-46.42732 c 11.94124,-3.59117 21.11084,-11.24656 26.21768,-21.88826 3.47664,-7.24465 4.44898,-11.29183 4.44898,-18.51793 0,-9.84811 -4.00154,-20.62133 -10.35879,-27.88862 -4.15892,-4.75427 -11.89532,-9.76425 -18.4982,-11.97917 -5.47634,-1.83703 -5.47634,-1.83703 -41.97634,-2.06267 l -36.5,-0.22563 v 42.07763 42.07763 l 36.5,-0.24514 c 31.55203,-0.21191 36.99706,-0.39462 40.16667,-1.34784 z M 166.3095,115.94798 c 11.2758,-2.08444 21.40738,-10.87312 25.10843,-21.780409 2.1038,-6.20006 2.13037,-14.090086 0.0695,-20.645746 C 188.60912,64.365807 179.9805,55.606158 170.82828,52.548967 166.5178,51.109103 165.23208,51.037981 139.5,50.815985 l -26.83334,-0.231497 v 33.04109 33.041082 h 24.87756 c 14.93677,0 26.43105,-0.28718 28.76528,-0.71868 z"
         id="path206" />
      <path
         style="fill:#afafaf;fill-opacity:1;stroke-width:0.666667"
         d="M 118.46289,263.574 C 118.2083,263.31941 118,257.16111 118,249.88888 v -13.22222 h -21.000002 -21 v -9 -9 h 9 9 v -84 -83.999995 h -9 -9 v -8.999999 -9 h 20.986193 20.986199 l 0.18047,-13.5 0.18047,-13.4999995 h 9 9 l 0.18047,13.4999995 0.18047,13.5 h 8.63906 8.63906 l 0.18047,-13.5 0.18047,-13.4999995 h 9 9 L 172.66666,19.881508 173,34.09635 l 5.66666,2.137941 c 13.09476,4.940441 23.86866,15.470982 29.1135,28.455913 7.03642,17.420407 3.30884,39.220306 -9.04498,52.897526 -1.15795,1.282 -1.46233,2.0198 -0.91497,2.21785 0.45111,0.16323 3.45111,1.57747 6.66667,3.14275 15.38049,7.48701 26.97207,21.68477 31.61109,38.71833 1.18866,4.36452 1.45364,7.14986 1.45873,15.33334 0.005,9.00383 -0.17563,10.5977 -1.81929,16 -3.59343,11.81073 -11.1325,23.28507 -19.90969,30.30221 -5.32124,4.25419 -16.07052,9.72176 -22.49439,11.44166 -2.88858,0.77337 -8.30218,1.50041 -12.81982,1.72168 l -7.81982,0.38302 -0.18018,13.40904 -0.18018,13.40905 h -9 -9 l -0.18047,-13.5 -0.18047,-13.5 h -8.63906 -8.63906 l -0.18047,13.5 -0.18047,13.5 -8.70377,0.18511 c -4.78708,0.10182 -8.91208,-0.0232 -9.16667,-0.27777 z m 70.87044,-46.42732 c 11.94124,-3.59117 21.11084,-11.24656 26.21768,-21.88826 3.47664,-7.24465 4.44898,-11.29183 4.44898,-18.51793 0,-9.84811 -4.00154,-20.62133 -10.35879,-27.88862 -4.15892,-4.75427 -11.89532,-9.76425 -18.4982,-11.97917 -5.47634,-1.83703 -5.47634,-1.83703 -41.97634,-2.06267 l -36.5,-0.22563 v 42.07763 42.07763 l 36.5,-0.24514 c 31.55203,-0.21191 36.99706,-0.39462 40.16667,-1.34784 z M 166.3095,115.94798 c 11.2758,-2.08444 21.40738,-10.87312 25.10843,-21.780409 2.1038,-6.20006 2.13037,-14.090086 0.0695,-20.645746 C 188.60912,64.365807 179.9805,55.606158 170.82828,52.548967 166.5178,51.109103 165.23208,51.037981 139.5,50.815985 l -26.83334,-0.231497 v 33.04109 33.041082 h 24.87756 c 14.93677,0 26.43105,-0.28718 28.76528,-0.71868 z"
         id="path204" />
      <path
         style="fill:#a8a8a8;fill-opacity:1;stroke-width:0.666667"
         d="M 118.46289,263.574 C 118.2083,263.31941 118,257.16111 118,249.88888 v -13.22222 h -21.000002 -21 v -9 -9 h 9 9 v -84 -83.999995 h -9 -9 v -8.999999 -9 h 20.986193 20.986199 l 0.18047,-13.5 0.18047,-13.4999995 h 9 9 l 0.18047,13.4999995 0.18047,13.5 h 8.63906 8.63906 l 0.18047,-13.5 0.18047,-13.4999995 h 9 9 L 172.66666,19.881508 173,34.09635 l 5.66666,2.13412 c 14.6071,5.501174 26.02618,17.781411 30.78149,33.102862 1.31269,4.229453 1.55185,6.438353 1.55185,14.333333 0,7.919679 -0.23648,10.090646 -1.56124,14.333333 -2.03197,6.507522 -5.37179,12.823022 -9.47212,17.911492 -1.81202,2.24868 -2.91232,4.08851 -2.44513,4.08851 1.45085,0 10.26392,4.47128 14.54992,7.38184 11.26554,7.65028 20.27104,20.55532 24.0652,34.48584 2.06438,7.5795 2.04739,21.64464 -0.0356,29.46565 -6.91172,25.95168 -29.05647,43.94112 -55.58753,45.1569 l -7.81982,0.35834 -0.18018,13.40904 -0.18017,13.40905 h -9 -9 l -0.18047,-13.5 -0.18047,-13.5 h -8.63906 -8.63906 l -0.18047,13.5 -0.18047,13.5 -8.70377,0.18511 c -4.78708,0.10182 -8.91208,-0.0232 -9.16667,-0.27777 z m 71.98658,-46.67124 c 17.41046,-5.91398 28.5201,-20.16905 29.40188,-37.72632 0.40813,-8.12623 -0.56223,-13.2746 -3.80284,-20.17644 -4.41663,-9.40654 -11.14646,-16.1238 -20.41237,-20.37426 -8.12463,-3.72694 -10.97468,-3.95908 -48.60804,-3.95908 h -34.36144 v 42.03622 42.03622 L 149.5,218.52001 c 35.33903,-0.21019 37.00032,-0.2758 40.94947,-1.61725 z M 166.80052,115.92994 c 9.5073,-1.98262 18.96339,-9.38735 23.12588,-18.109062 6.11493,-12.812687 3.5568,-27.210313 -6.61858,-37.250593 -5.05506,-4.987944 -10.68331,-8.040078 -16.93026,-9.181092 -2.38348,-0.435346 -13.8438,-0.722528 -28.83334,-0.722528 h -24.87756 v 33 32.999995 h 25.30052 c 15.89523,0 26.61382,-0.27387 28.83334,-0.73672 z"
         id="path202" />
      <path
         style="fill:#a0a0a0;fill-opacity:1;stroke-width:0.666667"
         d="M 118.46289,263.574 C 118.2083,263.31941 118,257.16111 118,249.88888 v -13.22222 h -21.000002 -21 v -9 -9 h 9 9 v -84 -83.999995 h -9 -9 v -8.999999 -9 h 20.986193 20.986199 l 0.18047,-13.5 0.18047,-13.4999995 h 9 9 l 0.18047,13.4999995 0.18047,13.5 h 8.63906 8.63906 l 0.18047,-13.5 0.18047,-13.4999995 h 9 9 L 172.66666,19.881508 173,34.09635 l 5.66666,2.13412 c 14.6071,5.501174 26.02618,17.781411 30.78149,33.102862 1.31269,4.229453 1.55185,6.438353 1.55185,14.333333 0,7.919679 -0.23648,10.090646 -1.56124,14.333333 -2.03197,6.507522 -5.37179,12.823022 -9.47212,17.911492 -1.81202,2.24868 -2.91232,4.08851 -2.44513,4.08851 1.45085,0 10.26392,4.47128 14.54992,7.38184 11.26554,7.65028 20.27104,20.55532 24.0652,34.48584 2.06438,7.5795 2.04739,21.64464 -0.0356,29.46565 -6.91172,25.95168 -29.05647,43.94112 -55.58753,45.1569 l -7.81982,0.35834 -0.18018,13.40904 -0.18017,13.40905 h -9 -9 l -0.18047,-13.5 -0.18047,-13.5 h -8.63906 -8.63906 l -0.18047,13.5 -0.18047,13.5 -8.70377,0.18511 c -4.78708,0.10182 -8.91208,-0.0232 -9.16667,-0.27777 z m 71.98658,-46.67124 c 17.41046,-5.91398 28.5201,-20.16905 29.40188,-37.72632 0.40813,-8.12623 -0.56223,-13.2746 -3.80284,-20.17644 -4.41663,-9.40654 -11.14646,-16.1238 -20.41237,-20.37426 -8.12463,-3.72694 -10.97468,-3.95908 -48.60804,-3.95908 h -34.36144 v 42.03622 42.03622 L 149.5,218.52001 c 35.33903,-0.21019 37.00032,-0.2758 40.94947,-1.61725 z M 166.80052,115.92994 c 9.5073,-1.98262 18.96339,-9.38735 23.12588,-18.109062 6.11493,-12.812687 3.5568,-27.210313 -6.61858,-37.250593 -5.05506,-4.987944 -10.68331,-8.040078 -16.93026,-9.181092 -2.38348,-0.435346 -13.8438,-0.722528 -28.83334,-0.722528 h -24.87756 v 33 32.999995 h 25.30052 c 15.89523,0 26.61382,-0.27387 28.83334,-0.73672 z"
         id="path200" />
      <path
         style="fill:#989898;fill-opacity:1;stroke-width:0.666667"
         d="M 118.46289,263.574 C 118.2083,263.31941 118,257.16111 118,249.88888 v -13.22222 h -21.000002 -21 v -9 -9 h 9 9 v -84 -83.999995 h -9 -9 v -8.999999 -9 h 20.986193 20.986199 l 0.18047,-13.5 0.18047,-13.4999995 h 9 9 l 0.18047,13.4999995 0.18047,13.5 h 8.63906 8.63906 l 0.18047,-13.5 0.18047,-13.4999995 h 9 9 L 172.66666,19.937174 173,34.207683 176.47712,35.3888 c 16.0498,5.451837 28.8305,18.986457 33.33271,35.298965 1.62107,5.87348 1.62229,19.886346 0.002,25.978899 -1.59259,5.989396 -5.77251,14.226576 -9.65265,19.022076 l -3.25436,4.02208 4.53356,1.85802 c 16.50231,6.76326 29.75693,22.25424 34.6875,40.54007 2.10149,7.79373 2.09808,20.37263 -0.008,28.89109 -6.35917,25.723 -29.0332,44.2726 -55.60481,45.49023 l -7.81982,0.35834 -0.18018,13.40904 -0.17994,13.40905 h -9 -9 l -0.18047,-13.5 -0.18047,-13.5 h -8.63906 -8.63906 l -0.18047,13.5 -0.18047,13.5 -8.70377,0.18511 c -4.78708,0.10182 -8.91208,-0.0232 -9.16667,-0.27777 z M 187,217.66709 c 6.19798,-1.29682 14.44702,-5.4571 19.13556,-9.65075 4.99617,-4.4688 9.8842,-11.88002 11.90469,-18.04986 1.37249,-4.19108 1.62641,-6.26754 1.62641,-13.29982 0,-10.33402 -1.45505,-15.57841 -6.35473,-22.90403 -5.53151,-8.27029 -12.59817,-13.63311 -22.64527,-17.18524 -4.28698,-1.51565 -4.72733,-1.53446 -41.16666,-1.75761 l -36.83334,-0.22556 v 42.03622 42.03622 L 147.5,218.65506 c 27.98584,-0.009 35.7507,-0.20352 39.5,-0.98799 z M 167.8461,115.66157 c 5.78066,-1.36291 10.03172,-3.66597 14.59675,-7.90797 11.09479,-10.309696 13.91883,-25.843982 7.13839,-39.266375 -2.47792,-4.905247 -9.77262,-11.879843 -15.00533,-14.346884 -6.88323,-3.245203 -9.29107,-3.473676 -36.60873,-3.473676 h -25.30052 v 33 32.999995 l 25.5,-0.01 c 20.14192,-0.008 26.37819,-0.21691 29.67944,-0.99524 z"
         id="path198" />
      <path
         style="fill:#909090;fill-opacity:1;stroke-width:0.666667"
         d="M 118.46289,263.574 C 118.2083,263.31941 118,257.16111 118,249.88888 v -13.22222 h -21.000002 -21 v -9 -9 h 9 9 v -84 -83.999995 h -9 -9 v -8.999999 -9 h 20.986193 20.986199 l 0.18047,-13.5 0.18047,-13.4999995 h 9 9 l 0.18047,13.4999995 0.18047,13.5 h 8.63906 8.63906 l 0.18047,-13.5 0.18047,-13.4999995 h 9 9 L 172.66666,19.937174 173,34.207683 176.47712,35.3888 c 16.0498,5.451837 28.8305,18.986457 33.33271,35.298965 1.62107,5.87348 1.62229,19.886346 0.002,25.978899 -1.59259,5.989396 -5.77251,14.226576 -9.65265,19.022076 l -3.25436,4.02208 4.53356,1.85802 c 16.50231,6.76326 29.75693,22.25424 34.6875,40.54007 2.10149,7.79373 2.09808,20.37263 -0.008,28.89109 -6.35917,25.723 -29.0332,44.2726 -55.60481,45.49023 l -7.81982,0.35834 -0.18018,13.40904 -0.17994,13.40905 h -9 -9 l -0.18047,-13.5 -0.18047,-13.5 h -8.63906 -8.63906 l -0.18047,13.5 -0.18047,13.5 -8.70377,0.18511 c -4.78708,0.10182 -8.91208,-0.0232 -9.16667,-0.27777 z M 187,217.66709 c 6.19798,-1.29682 14.44702,-5.4571 19.13556,-9.65075 4.99617,-4.4688 9.8842,-11.88002 11.90469,-18.04986 1.37249,-4.19108 1.62641,-6.26754 1.62641,-13.29982 0,-10.33402 -1.45505,-15.57841 -6.35473,-22.90403 -5.53151,-8.27029 -12.59817,-13.63311 -22.64527,-17.18524 -4.28698,-1.51565 -4.72733,-1.53446 -41.16666,-1.75761 l -36.83334,-0.22556 v 42.03622 42.03622 L 147.5,218.65506 c 27.98584,-0.009 35.7507,-0.20352 39.5,-0.98799 z M 167.8461,115.66157 c 5.78066,-1.36291 10.03172,-3.66597 14.59675,-7.90797 11.09479,-10.309696 13.91883,-25.843982 7.13839,-39.266375 -2.47792,-4.905247 -9.77262,-11.879843 -15.00533,-14.346884 -6.88323,-3.245203 -9.29107,-3.473676 -36.60873,-3.473676 h -25.30052 v 33 32.999995 l 25.5,-0.01 c 20.14192,-0.008 26.37819,-0.21691 29.67944,-0.99524 z"
         id="path196" />
      <path
         style="fill:#888888;fill-opacity:1;stroke-width:0.666667"
         d="M 118.46289,263.574 C 118.2083,263.31941 118,257.16111 118,249.88888 v -13.22222 h -21.000002 -21 v -9 -9 h 9 9 v -84 -83.999995 h -9 -9 v -8.999999 -9 h 20.986193 20.986199 l 0.18047,-13.5 0.18047,-13.4999995 h 9 9 l 0.18047,13.4999995 0.18047,13.5 h 8.63906 8.63906 l 0.18047,-13.5 0.18047,-13.4999995 h 9 9 L 172.66666,19.937174 173,34.207683 176.47712,35.3888 c 15.30892,5.200175 26.86074,16.876592 32.29895,32.647338 2.02615,5.875794 2.17277,6.899467 2.19113,15.297193 0.0142,6.491927 -0.3031,10.207593 -1.13859,13.333333 -1.56798,5.866196 -5.84477,14.224836 -9.72623,19.009116 l -3.19775,3.94154 4.80157,2.08732 c 17.35848,7.54603 30.06225,22.95171 34.74699,42.13715 2.42162,9.91729 1.23596,24.56071 -2.82837,34.93163 -8.7355,22.29029 -31.50182,37.84626 -55.44435,37.88448 l -5.4862,0.009 -0.18047,13.5 -0.18047,13.5 h -9 -9 l -0.18047,-13.5 -0.18047,-13.49997 h -8.63906 -8.63906 l -0.18047,13.5 -0.18047,13.5 -8.70377,0.18511 c -4.78708,0.10182 -8.91208,-0.0232 -9.16667,-0.27777 z M 187,217.66709 c 15.18363,-3.1769 28.1972,-15.63984 31.99423,-30.64049 2.44932,-9.67635 0.5975,-22.98925 -4.37711,-31.46762 -3.69593,-6.29906 -10.83213,-12.94264 -17.3575,-16.1593 -9.3389,-4.60358 -10.44331,-4.70838 -49.75962,-4.72144 l -34.83334,-0.0116 v 42 42 L 147.5,218.65506 c 27.98584,-0.009 35.7507,-0.20352 39.5,-0.98799 z M 167.85432,115.65965 c 11.9657,-2.82109 21.33253,-12.02037 24.45822,-24.020686 1.8973,-7.284246 0.86162,-16.050592 -2.73474,-23.147652 -2.26748,-4.474659 -9.59446,-11.801641 -14.06912,-14.069121 -6.80612,-3.448924 -9.65786,-3.734974 -37.34202,-3.745672 l -25.5,-0.0099 v 33 32.999991 l 25.5,-0.01 c 20.16426,-0.008 26.37625,-0.21644 29.68766,-0.99716 z"
         id="path194" />
      <path
         style="fill:#818181;fill-opacity:1;stroke-width:0.666667"
         d="M 118.46289,263.574 C 118.2083,263.31941 118,257.16111 118,249.88888 v -13.22222 h -21.000002 -21 v -9 -9 h 9 9 v -84 -83.999995 h -9 -9 v -8.999999 -9 h 20.986193 20.986199 l 0.18047,-13.5 0.18047,-13.4999995 h 9 9 l 0.18047,13.4999995 0.18047,13.5 h 8.63906 8.63906 l 0.18047,-13.5 0.18047,-13.4999995 h 9 9 L 172.66666,19.937174 173,34.207683 176.47712,35.3888 c 15.30892,5.200175 26.86074,16.876592 32.29895,32.647338 2.02615,5.875794 2.17277,6.899467 2.19113,15.297193 0.0142,6.491927 -0.3031,10.207593 -1.13859,13.333333 -1.56798,5.866196 -5.84477,14.224836 -9.72623,19.009116 l -3.19775,3.94154 4.80157,2.08732 c 17.35848,7.54603 30.06225,22.95171 34.74699,42.13715 2.42162,9.91729 1.23596,24.56071 -2.82837,34.93163 -8.7355,22.29029 -31.50182,37.84626 -55.44435,37.88448 l -5.4862,0.009 -0.18047,13.5 -0.18047,13.5 h -9 -9 l -0.18047,-13.5 -0.18047,-13.49997 h -8.63906 -8.63906 l -0.18047,13.5 -0.18047,13.5 -8.70377,0.18511 c -4.78708,0.10182 -8.91208,-0.0232 -9.16667,-0.27777 z M 187,217.66709 c 15.18363,-3.1769 28.1972,-15.63984 31.99423,-30.64049 2.44932,-9.67635 0.5975,-22.98925 -4.37711,-31.46762 -3.69593,-6.29906 -10.83213,-12.94264 -17.3575,-16.1593 -9.3389,-4.60358 -10.44331,-4.70838 -49.75962,-4.72144 l -34.83334,-0.0116 v 42 42 L 147.5,218.65506 c 27.98584,-0.009 35.7507,-0.20352 39.5,-0.98799 z M 167.85432,115.65965 c 11.9657,-2.82109 21.33253,-12.02037 24.45822,-24.020686 1.8973,-7.284246 0.86162,-16.050592 -2.73474,-23.147652 -2.26748,-4.474659 -9.59446,-11.801641 -14.06912,-14.069121 -6.80612,-3.448924 -9.65786,-3.734974 -37.34202,-3.745672 l -25.5,-0.0099 v 33 32.999991 l 25.5,-0.01 c 20.16426,-0.008 26.37625,-0.21644 29.68766,-0.99716 z"
         id="path192" />
      <path
         style="fill:#797979;fill-opacity:1;stroke-width:0.666667"
         d="M 118.66666,249.99999 V 236.66666 H 97.666664 76.666665 v -9 -9 h 9 9 v -84 -83.999995 h -9 -9 v -8.999999 -9 H 97.666664 118.66666 V 19.333333 5.9999999 H 127.33333 136 V 19.333333 32.666666 h 9.33333 9.33333 V 19.333333 5.9999999 h 8.65341 8.65341 l 0.17992,14.0755781 0.17993,14.075578 3.66769,1.134359 c 8.14277,2.518433 16.59608,8.117147 22.73804,15.059629 12.47791,14.104251 15.97752,34.758087 8.87167,52.358536 -2.1334,5.28421 -3.61549,7.80543 -7.65599,13.02382 l -3.14423,4.06083 3.16198,1.13703 c 8.51851,3.06322 20.03566,11.994 26.19852,20.31522 8.079,10.9084 12.5968,26.57499 11.46551,39.75942 -2.72458,31.75305 -28.39899,55.50919 -60.13652,55.6434 l -5.5,0.0233 v 13.33333 13.33334 h -8.66667 -8.66667 V 249.99999 236.66666 H 145.33333 136 v 13.33333 13.33334 h -8.66667 -8.66667 z m 72.18354,-33.15122 c 11.65817,-4.40635 20.2208,-11.78819 24.95701,-21.51544 1.51751,-3.11667 3.10932,-7.42231 3.53735,-9.56808 1.06599,-5.34402 0.90897,-14.60708 -0.32942,-19.43192 -2.93481,-11.43425 -11.2654,-21.76221 -21.70438,-26.90831 -9.40572,-4.63674 -10.43007,-4.73371 -50.1441,-4.74678 L 112,134.66666 v 42.03099 42.03098 l 37.5,-0.21232 c 36.66206,-0.20757 37.58603,-0.24483 41.3502,-1.66754 z m -22.54457,-101.2029 c 14.34847,-3.73731 25.05613,-17.270372 25.01785,-31.619272 -0.0129,-4.835727 -1.54607,-11.19458 -3.74568,-15.535286 -2.26779,-4.475276 -9.59466,-11.801742 -14.07068,-14.069917 -7.0314,-3.563075 -8.93603,-3.75473 -37.31386,-3.75473 H 112 v 33 32.999995 h 26.19326 c 21.36928,0 26.91505,-0.188 30.11237,-1.02079 z"
         id="path190" />
      <path
         style="fill:#717171;fill-opacity:1;stroke-width:0.666667"
         d="M 118.66666,249.99999 V 236.66666 H 97.666664 76.666665 v -9 -9 h 9 9 v -84 -83.999995 h -9 -9 v -8.999999 -9 H 97.666664 118.66666 V 19.333333 5.9999999 H 127.33333 136 V 19.333333 32.666666 h 9.33333 9.33333 V 19.333333 5.9999999 h 8.65341 8.65341 l 0.17992,14.0755781 0.17993,14.075578 3.66769,1.134359 c 8.14277,2.518433 16.59608,8.117147 22.73804,15.059629 12.47791,14.104251 15.97752,34.758087 8.87167,52.358536 -2.1334,5.28421 -3.61549,7.80543 -7.65599,13.02382 l -3.14423,4.06083 3.16198,1.13703 c 8.51851,3.06322 20.03566,11.994 26.19852,20.31522 8.079,10.9084 12.5968,26.57499 11.46551,39.75942 -2.72458,31.75305 -28.39899,55.50919 -60.13652,55.6434 l -5.5,0.0233 v 13.33333 13.33334 h -8.66667 -8.66667 V 249.99999 236.66666 H 145.33333 136 v 13.33333 13.33334 h -8.66667 -8.66667 z m 72.18354,-33.15122 c 11.65817,-4.40635 20.2208,-11.78819 24.95701,-21.51544 1.51751,-3.11667 3.10932,-7.42231 3.53735,-9.56808 1.06599,-5.34402 0.90897,-14.60708 -0.32942,-19.43192 -2.93481,-11.43425 -11.2654,-21.76221 -21.70438,-26.90831 -9.40572,-4.63674 -10.43007,-4.73371 -50.1441,-4.74678 L 112,134.66666 v 42.03099 42.03098 l 37.5,-0.21232 c 36.66206,-0.20757 37.58603,-0.24483 41.3502,-1.66754 z m -22.54457,-101.2029 c 14.34847,-3.73731 25.05613,-17.270372 25.01785,-31.619272 -0.0129,-4.835727 -1.54607,-11.19458 -3.74568,-15.535286 -2.26779,-4.475276 -9.59466,-11.801742 -14.07068,-14.069917 -7.0314,-3.563075 -8.93603,-3.75473 -37.31386,-3.75473 H 112 v 33 32.999995 h 26.19326 c 21.36928,0 26.91505,-0.188 30.11237,-1.02079 z"
         id="path188" />
      <path
         style="fill:#696969;fill-opacity:1;stroke-width:0.666667"
         d="M 118.66666,249.99999 V 236.66666 H 97.666664 76.666665 v -9 -9 h 9 9 v -84 -83.999995 h -9 -9 v -8.999999 -9 H 97.666664 118.66666 V 19.333333 5.9999999 H 127.33333 136 V 19.333333 32.666666 h 9.33333 9.33333 V 19.333333 5.9999999 h 8.65341 8.65341 l 0.17992,14.1053421 0.17993,14.105343 4.35158,1.467454 c 16.54405,5.579036 28.15593,18.20681 33.3998,36.321859 0.52735,1.821747 0.86179,6.53476 0.85152,12 -0.0158,8.395926 -0.16363,9.43132 -2.20296,15.426213 -2.04403,6.008709 -6.02709,13.037509 -10.36486,18.290609 l -1.69293,2.05016 4.44271,1.82448 c 17.17953,7.0551 30.7806,23.30454 35.29428,42.16666 2.49334,10.41937 0.96504,26.18474 -3.54089,36.52632 -6.39925,14.68697 -20.09112,27.59655 -34.6717,32.6907 -6.14421,2.14665 -15.05268,3.69152 -21.28721,3.69152 H 172 v 13.33333 13.33334 h -8.66667 -8.66667 V 249.99999 236.66666 H 145.33333 136 v 13.33333 13.33334 h -8.66667 -8.66667 z m 72.66667,-33.24291 c 6.90975,-2.46044 11.30311,-5.2866 16.77557,-10.79138 8.20148,-8.24992 12.06246,-17.72785 12.08222,-29.65937 0.0116,-7.00332 -1.04324,-11.38856 -4.40344,-18.30633 -5.2356,-10.77873 -15.41462,-18.92076 -27.52734,-22.01867 -4.80052,-1.22777 -7.4908,-1.31467 -40.70032,-1.31467 H 112 v 42.03099 42.03098 l 37.5,-0.21426 c 37.23963,-0.21278 37.53008,-0.22498 41.83333,-1.75729 z M 171.66666,114.73304 C 190.3838,107.26426 198.5907,86.277391 189.67468,68.682492 187.2802,63.957203 180.7373,57.245415 176.1332,54.791453 168.74102,50.851458 167.04129,50.666665 138.19326,50.666665 H 112 v 33.033826 33.033819 l 27.83333,-0.20256 c 27.5723,-0.20067 27.87085,-0.21753 31.83333,-1.79871 z"
         id="path186" />
      <path
         style="fill:#616161;fill-opacity:1;stroke-width:0.666667"
         d="M 118.66666,249.99999 V 236.66666 H 97.666664 76.666665 v -9 -9 h 9 9 v -84 -83.999995 h -9 -9 v -8.999999 -9 H 97.666664 118.66666 V 19.333333 5.9999999 H 127.33333 136 V 19.333333 32.666666 h 9.33333 9.33333 V 19.333333 5.9999999 h 8.65341 8.65341 l 0.17992,14.1053421 0.17993,14.105343 4.35158,1.467454 c 16.54405,5.579036 28.15593,18.20681 33.3998,36.321859 0.52735,1.821747 0.86179,6.53476 0.85152,12 -0.0158,8.395926 -0.16363,9.43132 -2.20296,15.426213 -2.04403,6.008709 -6.02709,13.037509 -10.36486,18.290609 l -1.69293,2.05016 4.44271,1.82448 c 17.17953,7.0551 30.7806,23.30454 35.29428,42.16666 2.49334,10.41937 0.96504,26.18474 -3.54089,36.52632 -6.39925,14.68697 -20.09112,27.59655 -34.6717,32.6907 -6.14421,2.14665 -15.05268,3.69152 -21.28721,3.69152 H 172 v 13.33333 13.33334 h -8.66667 -8.66667 V 249.99999 236.66666 H 145.33333 136 v 13.33333 13.33334 h -8.66667 -8.66667 z m 72.66667,-33.24291 c 6.90975,-2.46044 11.30311,-5.2866 16.77557,-10.79138 8.20148,-8.24992 12.06246,-17.72785 12.08222,-29.65937 0.0116,-7.00332 -1.04324,-11.38856 -4.40344,-18.30633 -5.2356,-10.77873 -15.41462,-18.92076 -27.52734,-22.01867 -4.80052,-1.22777 -7.4908,-1.31467 -40.70032,-1.31467 H 112 v 42.03099 42.03098 l 37.5,-0.21426 c 37.23963,-0.21278 37.53008,-0.22498 41.83333,-1.75729 z M 171.66666,114.73304 C 190.3838,107.26426 198.5907,86.277391 189.67468,68.682492 187.2802,63.957203 180.7373,57.245415 176.1332,54.791453 168.74102,50.851458 167.04129,50.666665 138.19326,50.666665 H 112 v 33.033826 33.033819 l 27.83333,-0.20256 c 27.5723,-0.20067 27.87085,-0.21753 31.83333,-1.79871 z"
         id="path184" />
      <path
         style="fill:#5a5a5a;fill-opacity:1;stroke-width:0.666667"
         d="M 118.66666,249.99999 V 236.66666 H 97.666664 76.666665 v -9 -9 h 9 9 v -84 -83.999995 h -9 -9 v -8.999999 -9 H 97.666664 118.66666 V 19.333333 5.9999999 H 127.33333 136 V 19.333333 32.666666 h 9.33333 9.33333 V 19.333333 5.9999999 h 8.65341 8.65341 l 0.17992,14.0797091 0.17993,14.079709 5.1752,1.826218 c 26.94069,9.506804 40.68353,39.833929 30.10805,66.441174 -2.07914,5.23096 -5.42014,10.75084 -8.75568,14.46581 -1.26384,1.4076 -2.19956,2.65108 -2.0794,2.76326 0.12018,0.1122 2.1685,1.02026 4.55183,2.01792 13.18479,5.51916 24.37628,16.40882 30.67308,29.84586 3.9259,8.37762 5.51242,15.78993 5.45378,25.48034 -0.12577,20.78588 -9.9676,38.65405 -27.64805,50.19598 -8.83581,5.76807 -17.92041,8.53929 -30.31214,9.24657 l -7.5,0.42808 v 13.23134 13.23136 h -8.66667 -8.66667 V 249.99999 236.66666 H 145.33333 136 v 13.33333 13.33334 h -8.66667 -8.66667 z m 68.91394,-32.32695 c 11.7458,-2.48853 23.06731,-11.45021 28.26958,-22.37716 3.42807,-7.20038 4.42131,-11.50872 4.37164,-18.96255 -0.0769,-11.53876 -3.92233,-20.68502 -12.21471,-29.05239 -5.37057,-5.41913 -9.77973,-8.24984 -16.67378,-10.7047 -4.30325,-1.5323 -4.5937,-1.54451 -41.83333,-1.75728 L 112,134.60469 v 42.03099 42.03098 l 35.5,-0.0116 c 28.49892,-0.009 36.40335,-0.20297 40.0806,-0.98205 z M 167.46718,115.9166 c 13.84914,-2.94038 24.58261,-15.34122 25.68196,-29.671475 1.24263,-16.197893 -9.04331,-30.442235 -24.98,-34.593216 -3.02654,-0.788314 -9.01812,-0.985244 -29.97588,-0.985244 H 112 v 33 32.999995 h 25.96718 c 16.69856,0 27.22818,-0.26772 29.5,-0.75006 z"
         id="path182" />
      <path
         style="fill:#525252;fill-opacity:1;stroke-width:0.666667"
         d="M 118.66666,249.99999 V 236.66666 H 97.666664 76.666665 v -9 -9 h 9 9 v -84 -83.999995 h -9 -9 v -8.999999 -9 H 97.666664 118.66666 V 19.333333 5.9999999 H 127.33333 136 V 19.333333 32.666666 h 9.33333 9.33333 V 19.333333 5.9999999 h 8.65341 8.65341 l 0.17992,14.0797091 0.17993,14.079709 5.1752,1.826218 c 26.94069,9.506804 40.68353,39.833929 30.10805,66.441174 -2.07914,5.23096 -5.42014,10.75084 -8.75568,14.46581 -1.26384,1.4076 -2.19956,2.65108 -2.0794,2.76326 0.12018,0.1122 2.1685,1.02026 4.55183,2.01792 13.18479,5.51916 24.37628,16.40882 30.67308,29.84586 3.9259,8.37762 5.51242,15.78993 5.45378,25.48034 -0.12577,20.78588 -9.9676,38.65405 -27.64805,50.19598 -8.83581,5.76807 -17.92041,8.53929 -30.31214,9.24657 l -7.5,0.42808 v 13.23134 13.23136 h -8.66667 -8.66667 V 249.99999 236.66666 H 145.33333 136 v 13.33333 13.33334 h -8.66667 -8.66667 z m 68.91394,-32.32695 c 11.7458,-2.48853 23.06731,-11.45021 28.26958,-22.37716 3.42807,-7.20038 4.42131,-11.50872 4.37164,-18.96255 -0.0769,-11.53876 -3.92233,-20.68502 -12.21471,-29.05239 -5.37057,-5.41913 -9.77973,-8.24984 -16.67378,-10.7047 -4.30325,-1.5323 -4.5937,-1.54451 -41.83333,-1.75728 L 112,134.60469 v 42.03099 42.03098 l 35.5,-0.0116 c 28.49892,-0.009 36.40335,-0.20297 40.0806,-0.98205 z M 167.46718,115.9166 c 13.84914,-2.94038 24.58261,-15.34122 25.68196,-29.671475 1.24263,-16.197893 -9.04331,-30.442235 -24.98,-34.593216 -3.02654,-0.788314 -9.01812,-0.985244 -29.97588,-0.985244 H 112 v 33 32.999995 h 25.96718 c 16.69856,0 27.22818,-0.26772 29.5,-0.75006 z"
         id="path180" />
      <path
         style="fill:#4a4a4a;fill-opacity:1;stroke-width:0.666667"
         d="M 118.66666,249.99999 V 236.66666 H 97.666664 76.666665 v -9 -9 h 9 9 v -84 -83.999995 h -9 -9 v -8.999999 -9 H 97.666664 118.66666 V 19.333333 5.9999999 H 127.33333 136 V 19.333333 32.666666 h 9.33333 9.33333 V 19.333333 5.9999999 h 8.65341 8.65341 l 0.17992,14.0478241 0.17993,14.047824 5.78467,2.175495 c 15.53585,5.842718 26.76218,18.088762 31.34858,34.196069 2.08805,7.333119 2.08867,19.063666 0.001,26.393779 -1.93217,6.785439 -5.24568,13.276319 -9.45457,18.520699 l -3.39428,4.22936 5.96427,2.78819 c 7.3565,3.43902 11.18799,6.02163 16.65936,11.2292 11.88719,11.31405 18.23547,26.341 18.20341,43.08916 -0.0399,20.86544 -9.92122,38.91532 -27.63405,50.47838 -8.84122,5.77161 -17.62077,8.41449 -30.64548,9.22511 l -7.16666,0.44602 v 13.23311 13.23311 h -8.66667 -8.66667 v -13.33334 -13.33333 h -9.33333 -9.33333 v 13.33333 13.33334 h -8.66667 -8.66667 v -13.33334 z m 68.91394,-32.32695 c 14.41738,-3.05454 27.11002,-15.15472 31.47558,-30.00638 1.57903,-5.37186 1.5814,-15.85101 0.005,-21.66666 -4.01731,-14.81976 -16.91997,-27.25485 -31.48049,-30.33972 -3.67725,-0.77908 -11.58168,-0.97275 -40.0806,-0.98204 L 112,134.66666 v 42 42 l 35.5,-0.0116 c 28.49892,-0.009 36.40335,-0.20297 40.0806,-0.98205 z M 167.46718,115.93219 c 12.02004,-2.49897 22.6601,-13.1344 25.25773,-25.246726 1.03031,-4.804186 0.44299,-13.506073 -1.22371,-18.130699 -3.20572,-8.894941 -10.96909,-16.684835 -20.05597,-20.124472 -3.60855,-1.36594 -5.03089,-1.439315 -31.6119,-1.630786 L 112,50.599016 v 33.033822 33.033822 h 25.96718 c 16.32743,0 27.27867,-0.27266 29.5,-0.73447 z"
         id="path178" />
      <path
         style="fill:#424242;fill-opacity:1;stroke-width:0.666667"
         d="M 118.66666,249.99999 V 236.66666 H 97.666664 76.666665 v -9 -9 h 9 9 v -84 -83.999995 h -9 -9 v -8.999999 -9 H 97.666664 118.66666 V 19.333333 5.9999999 H 127.33333 136 V 19.333333 32.666666 h 9.33333 9.33333 V 19.333333 5.9999999 h 8.65341 8.65341 l 0.17992,14.0478241 0.17993,14.047824 5.78467,2.175495 c 15.53585,5.842718 26.76218,18.088762 31.34858,34.196069 2.08805,7.333119 2.08867,19.063666 0.001,26.393779 -1.93217,6.785439 -5.24568,13.276319 -9.45457,18.520699 l -3.39428,4.22936 5.96427,2.78819 c 7.3565,3.43902 11.18799,6.02163 16.65936,11.2292 11.88719,11.31405 18.23547,26.341 18.20341,43.08916 -0.0399,20.86544 -9.92122,38.91532 -27.63405,50.47838 -8.84122,5.77161 -17.62077,8.41449 -30.64548,9.22511 l -7.16666,0.44602 v 13.23311 13.23311 h -8.66667 -8.66667 v -13.33334 -13.33333 h -9.33333 -9.33333 v 13.33333 13.33334 h -8.66667 -8.66667 v -13.33334 z m 68.91394,-32.32695 c 14.41738,-3.05454 27.11002,-15.15472 31.47558,-30.00638 1.57903,-5.37186 1.5814,-15.85101 0.005,-21.66666 -4.01731,-14.81976 -16.91997,-27.25485 -31.48049,-30.33972 -3.67725,-0.77908 -11.58168,-0.97275 -40.0806,-0.98204 L 112,134.66666 v 42 42 l 35.5,-0.0116 c 28.49892,-0.009 36.40335,-0.20297 40.0806,-0.98205 z M 167.46718,115.93219 c 12.02004,-2.49897 22.6601,-13.1344 25.25773,-25.246726 1.03031,-4.804186 0.44299,-13.506073 -1.22371,-18.130699 -3.20572,-8.894941 -10.96909,-16.684835 -20.05597,-20.124472 -3.60855,-1.36594 -5.03089,-1.439315 -31.6119,-1.630786 L 112,50.599016 v 33.033822 33.033822 h 25.96718 c 16.32743,0 27.27867,-0.27266 29.5,-0.73447 z"
         id="path176" />
      <path
         style="fill:#3a3a3a;fill-opacity:1;stroke-width:0.666667"
         d="M 118.66666,249.99999 V 236.66666 H 97.666664 76.666665 v -9 -9 h 9 9 v -84 -83.999995 h -9 -9 v -8.999999 -9 H 97.666664 118.66666 V 19.333333 5.9999999 H 127.33333 136 V 19.333333 32.666666 h 9.33333 9.33333 V 19.333333 5.9999999 H 163.33333 172 V 20.014292 c 0,13.917221 0.0104,14.018306 1.5,14.593696 0.825,0.318673 3.71815,1.427311 6.42923,2.463641 2.71108,1.036329 6.61108,3.047796 8.66667,4.469926 24.89204,17.221203 29.96256,50.724043 11.21367,74.092905 l -3.19042,3.97659 6.07809,2.84139 c 15.5725,7.27986 26.69883,19.65122 31.88699,35.45514 2.06606,6.29353 2.82042,11.41775 2.80462,19.05134 -0.0166,8.01975 -1.32877,15.11709 -4.01551,21.71918 -9.56913,23.51409 -31.61346,37.98856 -57.85586,37.98856 H 172 v 13.33333 13.33334 h -8.66667 -8.66667 V 249.99999 236.66666 H 145.33333 136 v 13.33333 13.33334 h -8.66667 -8.66667 z m 69.32322,-32.37197 c 14.85465,-3.50105 26.50462,-14.73152 31.08052,-29.96136 1.63781,-5.45108 1.64079,-16.53178 0.006,-22 -3.12064,-10.43771 -11.31814,-20.80288 -20.47712,-25.89191 -8.95744,-4.97699 -10.25876,-5.10809 -50.70592,-5.10809 H 112 v 42 42 l 35.83333,-0.01 c 29.79226,-0.008 36.56218,-0.18163 40.15655,-1.02878 z M 168.57905,115.69824 c 8.39817,-2.23526 16.94228,-8.82728 20.89901,-16.124196 3.54592,-6.53932 4.82959,-16.202053 3.13174,-23.574046 C 190.01529,64.734726 179.26527,53.984704 168,51.390192 166.20561,50.976926 154.3504,50.692711 138.5,50.682963 l -26.5,-0.0163 v 33 32.999997 l 26.5,-0.008 c 20.83525,-0.006 27.26507,-0.21154 30.07905,-0.96051 z"
         id="path174" />
      <path
         style="fill:#333333;fill-opacity:1;stroke-width:0.666667"
         d="M 118.66666,249.99999 V 236.66666 H 97.666664 76.666665 v -9 -9 h 9 9 v -84 -83.999995 h -9 -9 v -8.999999 -9 H 97.666664 118.66666 V 19.333333 5.9999999 H 127.33333 136 V 19.333333 32.666666 h 9.33333 9.33333 V 19.333333 5.9999999 H 163.33333 172 V 20.014292 c 0,13.917221 0.0104,14.018306 1.5,14.593696 0.825,0.318673 3.71815,1.427311 6.42923,2.463641 2.71108,1.036329 6.61108,3.047796 8.66667,4.469926 24.89204,17.221203 29.96256,50.724043 11.21367,74.092905 l -3.19042,3.97659 6.07809,2.84139 c 15.5725,7.27986 26.69883,19.65122 31.88699,35.45514 2.06606,6.29353 2.82042,11.41775 2.80462,19.05134 -0.0166,8.01975 -1.32877,15.11709 -4.01551,21.71918 -9.56913,23.51409 -31.61346,37.98856 -57.85586,37.98856 H 172 v 13.33333 13.33334 h -8.66667 -8.66667 V 249.99999 236.66666 H 145.33333 136 v 13.33333 13.33334 h -8.66667 -8.66667 z m 69.32322,-32.37197 c 14.85465,-3.50105 26.50462,-14.73152 31.08052,-29.96136 1.63781,-5.45108 1.64079,-16.53178 0.006,-22 -3.12064,-10.43771 -11.31814,-20.80288 -20.47712,-25.89191 -8.95744,-4.97699 -10.25876,-5.10809 -50.70592,-5.10809 H 112 v 42 42 l 35.83333,-0.01 c 29.79226,-0.008 36.56218,-0.18163 40.15655,-1.02878 z M 168.57905,115.69824 c 8.39817,-2.23526 16.94228,-8.82728 20.89901,-16.124196 3.54592,-6.53932 4.82959,-16.202053 3.13174,-23.574046 C 190.01529,64.734726 179.26527,53.984704 168,51.390192 166.20561,50.976926 154.3504,50.692711 138.5,50.682963 l -26.5,-0.0163 v 33 32.999997 l 26.5,-0.008 c 20.83525,-0.006 27.26507,-0.21154 30.07905,-0.96051 z"
         id="path172" />
    </g>
  </g>
</svg>
