<?xml version="1.0" encoding="UTF-8" standalone="no"?>
<!-- Created with Inkscape (http://www.inkscape.org/) -->

<svg
   version="1.1"
   id="svg2"
   width="320"
   height="64.666664"
   viewBox="0 0 320 64.666664"
   sodipodi:docname="header.svg"
   inkscape:version="1.2.1 (9c6d41e410, 2022-07-14)"
   xmlns:inkscape="http://www.inkscape.org/namespaces/inkscape"
   xmlns:sodipodi="http://sodipodi.sourceforge.net/DTD/sodipodi-0.dtd"
   xmlns="http://www.w3.org/2000/svg"
   xmlns:svg="http://www.w3.org/2000/svg">
  <defs
     id="defs6" />
  <sodipodi:namedview
     id="namedview4"
     pagecolor="#ffffff"
     bordercolor="#000000"
     borderopacity="0.25"
     inkscape:showpageshadow="2"
     inkscape:pageopacity="0.0"
     inkscape:pagecheckerboard="0"
     inkscape:deskcolor="#d1d1d1"
     showgrid="false"
     inkscape:zoom="4"
     inkscape:cx="97.25"
     inkscape:cy="85.5"
     inkscape:window-width="2560"
     inkscape:window-height="1334"
     inkscape:window-x="-11"
     inkscape:window-y="-11"
     inkscape:window-maximized="1"
     inkscape:current-layer="g8" />
  <g
     inkscape:groupmode="layer"
     inkscape:label="Image"
     id="g8">
    <g
       id="g182"
       transform="translate(-1.2327322,-0.56561432)">
      <path
         style="fill:#b9b9b9;fill-opacity:1;stroke-width:0.666667"
         d="m 157.77195,37.700617 c -0.24728,-0.644403 -0.0503,-0.843111 0.5915,-0.596811 0.52922,0.203082 0.79624,0.637803 0.59338,0.966049 -0.51096,0.826735 -0.75515,0.750639 -1.18488,-0.369238 z m 60.0296,0.07716 c -0.1876,-0.488889 0.0517,-0.888889 0.53178,-0.888889 0.48009,0 0.71939,0.4 0.53178,0.888889 -0.1876,0.488889 -0.4269,0.888889 -0.53178,0.888889 -0.10487,0 -0.34417,-0.4 -0.53178,-0.888889 z m 36.63706,-0.07716 c -0.24728,-0.644403 -0.0503,-0.843111 0.59151,-0.596811 0.52922,0.203082 0.79624,0.637803 0.59337,0.966049 -0.51095,0.826735 -0.75514,0.750639 -1.18488,-0.369238 z m 30.89472,0.338726 c 0,-0.345027 0.29657,-0.810609 0.65904,-1.034625 0.3779,-0.23356 0.48966,0.03404 0.262,0.627322 -0.44319,1.154944 -0.92104,1.366258 -0.92104,0.407303 z"
         id="path192" />
      <path
         style="fill:#8c8c8c;fill-opacity:1;stroke-width:0.666667"
         d="m 78.30592,39.288978 c -0.241687,-0.391062 -0.296453,-0.854 -0.1217,-1.028752 0.174747,-0.174753 0.495373,0.145206 0.7125,0.71102 0.450787,1.174738 0.0666,1.381372 -0.5908,0.317732 z m 102,0 c -0.24169,-0.391062 -0.29645,-0.854 -0.1217,-1.028752 0.17475,-0.174753 0.49537,0.145206 0.7125,0.71102 0.45079,1.174738 0.0666,1.381372 -0.5908,0.317732 z M 286.05263,35.61111 c 0.032,-0.776629 0.18996,-0.9346 0.40278,-0.402778 0.19258,0.48125 0.1689,1.05625 -0.0526,1.277778 -0.22153,0.221527 -0.3791,-0.172223 -0.35015,-0.875 z M 69.709527,28.862084 c -0.361787,-0.950132 -0.285214,-1.026708 0.3732,-0.373197 0.455613,0.452223 0.660446,0.990161 0.455186,1.195419 -0.20526,0.205259 -0.578033,-0.164741 -0.828386,-0.822222 z m 138.666663,0 c -0.36178,-0.950132 -0.28521,-1.026708 0.3732,-0.373197 0.45562,0.452223 0.66045,0.990161 0.45519,1.195419 -0.20526,0.205259 -0.57803,-0.164741 -0.82839,-0.822222 z m 90.66667,0 c -0.36179,-0.950132 -0.28521,-1.026708 0.3732,-0.373197 0.45561,0.452223 0.66045,0.990161 0.45519,1.195419 -0.20526,0.205259 -0.57804,-0.164741 -0.82839,-0.822222 z m -146,-9.333333 c -0.36179,-0.950132 -0.28521,-1.026708 0.3732,-0.373196 0.45561,0.452222 0.66045,0.99016 0.45519,1.195418 -0.20526,0.205259 -0.57804,-0.164741 -0.82839,-0.822222 z m 96.66667,0 c -0.36179,-0.950132 -0.28522,-1.026708 0.3732,-0.373196 0.45561,0.452222 0.66044,0.99016 0.45518,1.195418 -0.20526,0.205259 -0.57803,-0.164741 -0.82838,-0.822222 z"
         id="path190" />
      <path
         style="fill:#606060;fill-opacity:1;stroke-width:0.666667"
         d="m 156.05263,30.944443 c 0.032,-0.776628 0.18996,-0.9346 0.40278,-0.402778 0.19258,0.48125 0.1689,1.05625 -0.0526,1.277778 -0.22154,0.221528 -0.3791,-0.172222 -0.35015,-0.875 z m 96.66667,0 c 0.032,-0.776628 0.18996,-0.9346 0.40277,-0.402778 0.19258,0.48125 0.1689,1.05625 -0.0526,1.277778 -0.22152,0.221528 -0.37909,-0.172222 -0.35014,-0.875 z"
         id="path188" />
      <path
         style="fill:#494949;fill-opacity:1;stroke-width:0.666667"
         d="m 298.37619,41.52875 c -0.36178,-0.950132 -0.28521,-1.026708 0.3732,-0.373196 0.45562,0.452222 0.66045,0.99016 0.45519,1.195418 -0.20526,0.205259 -0.57803,-0.164741 -0.82839,-0.822222 z M 61.385965,36.277777 c 0.03199,-0.776629 0.18996,-0.9346 0.402778,-0.402778 0.19258,0.48125 0.168896,1.056249 -0.05263,1.277777 -0.221528,0.221528 -0.379094,-0.172222 -0.350146,-0.874999 z m 138.666665,0 c 0.032,-0.776629 0.18996,-0.9346 0.40278,-0.402778 0.19258,0.48125 0.1689,1.056249 -0.0526,1.277777 -0.22153,0.221528 -0.3791,-0.172222 -0.35015,-0.874999 z M 43.385965,35.61111 c 0.03199,-0.776629 0.18996,-0.9346 0.402778,-0.402778 0.19258,0.48125 0.168896,1.05625 -0.05263,1.277778 -0.221528,0.221527 -0.379094,-0.172223 -0.350146,-0.875 z m 51.333335,0 c 0.032,-0.776629 0.18996,-0.9346 0.402773,-0.402778 0.19258,0.48125 0.1689,1.05625 -0.0526,1.277778 -0.221533,0.221527 -0.379093,-0.172223 -0.350146,-0.875 z m 64,0 c 0.032,-0.776629 0.18996,-0.9346 0.40277,-0.402778 0.19258,0.48125 0.1689,1.05625 -0.0526,1.277778 -0.22153,0.221527 -0.37909,-0.172223 -0.35014,-0.875 z m 96.66667,0 c 0.032,-0.776629 0.18996,-0.9346 0.40277,-0.402778 0.19258,0.48125 0.1689,1.05625 -0.0526,1.277778 -0.22153,0.221527 -0.37909,-0.172223 -0.35015,-0.875 z M 55.709529,28.862084 c -0.36179,-0.950132 -0.285214,-1.026708 0.373196,-0.373197 0.455612,0.452223 0.660448,0.990161 0.45519,1.195419 -0.205258,0.205259 -0.578032,-0.164741 -0.828386,-0.822222 z m 51.333331,0 c -0.36179,-0.950132 -0.28521,-1.026708 0.3732,-0.373197 0.45561,0.452223 0.66045,0.990161 0.45519,1.195419 -0.20526,0.205259 -0.57804,-0.164741 -0.82839,-0.822222 z m 64,0 c -0.36179,-0.950132 -0.28521,-1.026708 0.3732,-0.373197 0.45561,0.452223 0.66045,0.990161 0.45519,1.195419 -0.20526,0.205259 -0.57804,-0.164741 -0.82839,-0.822222 z m 96.66667,0 c -0.36179,-0.950132 -0.28522,-1.026708 0.3732,-0.373197 0.45561,0.452223 0.66044,0.990161 0.45518,1.195419 -0.20526,0.205259 -0.57803,-0.164741 -0.82838,-0.822222 z m 8.62852,-0.187783 c -0.23356,-0.377906 0.0341,-0.489671 0.62732,-0.262007 1.15495,0.443194 1.36626,0.921038 0.40731,0.921038 -0.34503,0 -0.81061,-0.296564 -1.03463,-0.659031 z M 20.052631,26.944444 c 0.03199,-0.776629 0.189961,-0.9346 0.402778,-0.402778 0.192581,0.48125 0.168896,1.05625 -0.05263,1.277778 -0.221528,0.221527 -0.379094,-0.172223 -0.350147,-0.875 z m 13.546497,0.222222 c -0.263759,-0.458334 -0.234067,-0.610936 0.06598,-0.339118 0.300049,0.271819 1.023147,0.121819 1.606884,-0.333333 0.939057,-0.732203 0.955922,-0.693133 0.146376,0.339117 -1.090515,1.390513 -1.199384,1.41046 -1.819242,0.333334 z m 85.786842,-0.222222 c 0.032,-0.776629 0.18996,-0.9346 0.40277,-0.402778 0.19258,0.48125 0.1689,1.05625 -0.0526,1.277778 -0.22153,0.221527 -0.37909,-0.172223 -0.35015,-0.875 z m 13.54649,0.222222 c -0.26376,-0.458334 -0.23407,-0.610936 0.066,-0.339118 0.30005,0.271819 1.02315,0.121819 1.60688,-0.333333 0.93906,-0.732203 0.95592,-0.693133 0.14638,0.339117 -1.09052,1.390513 -1.19939,1.41046 -1.81925,0.333334 z"
         id="path186" />
      <path
         style="fill:#333333;fill-opacity:1;stroke-width:0.666667"
         d="m 283.4338,50.261999 c -2.04395,-1.431643 -2.72773,-3.50941 -1.91867,-5.830259 0.78992,-2.265983 3.89427,-3.765075 7.79679,-3.765075 1.47845,0 2.68808,-0.320216 2.68808,-0.711592 0,-0.416413 -0.5729,-0.529759 -1.38111,-0.273245 -1.8894,0.599672 -3.95222,-1.393232 -3.95222,-3.818261 0,-2.693239 1.68762,-5.668677 3.84462,-6.77841 2.14758,-1.10489 8.29302,-1.005562 8.67494,0.140213 0.14528,0.435813 -0.6622,3.017536 -1.79438,5.737163 -1.13218,2.719626 -2.05852,5.094765 -2.05852,5.278086 0,0.183321 0.675,0.429177 1.5,0.546345 0.98455,0.139828 1.5,0.671217 1.5,1.546368 0,1.05925 -0.51336,1.375834 -2.49736,1.540086 -2.00412,0.165918 -2.57763,0.526586 -2.9038,1.826143 -0.53202,2.11975 -4.56994,5.63377 -6.4737,5.63377 -0.82232,0 -2.18342,-0.482099 -3.02467,-1.071332 z m 5.5284,-3.743672 c 1.49533,-2.134879 1.31049,-2.518329 -1.21391,-2.518329 -2.46515,0 -4.11794,1.408453 -3.51046,2.99151 0.58415,1.522285 3.5336,1.226875 4.72437,-0.473181 z m 5.27619,-12.018328 c 1.0184,-2.427742 0.84917,-3.166667 -0.72524,-3.166667 -1.63387,0 -3.51315,2.016669 -3.51315,3.769992 0,1.222641 0.3628,1.563341 1.66475,1.563341 1.24731,0 1.89267,-0.54331 2.57364,-2.166666 z M 38.537767,43.166665 c -0.577724,-0.458333 -2.015898,-3.383333 -3.195944,-6.5 -1.180046,-3.116666 -2.304746,-5.927811 -2.499334,-6.246988 -0.194587,-0.319177 -1.229744,1.473002 -2.30035,3.982621 -1.811514,4.24639 -2.768273,5.562118 -4.063062,5.587492 -1.482104,0.02905 -1.014698,-2.647449 1.505202,-8.619202 1.537478,-3.643572 2.692526,-7.167507 2.566775,-7.830966 -0.151954,-0.8017 -0.93203,-1.274755 -2.325805,-1.410419 -3.664862,-0.356722 -5.781293,4.705295 -2.831212,6.771612 1.560632,1.093109 1.49151,3.30791 -0.11288,3.616888 -0.570276,0.109825 -1.841832,-0.433504 -2.825678,-1.207398 -3.926641,-3.088695 -1.447539,-10.365707 4.093652,-12.016266 4.78172,-1.424336 8.962842,1.988608 7.517058,6.135985 -0.406377,1.165736 -0.606724,2.251662 -0.445216,2.41317 0.161509,0.161509 2.3771,-1.874059 4.923536,-4.523484 4.420046,-4.598811 6.212046,-5.463509 6.649685,-3.208688 0.106807,0.550294 -1.778357,3.131072 -4.189253,5.735062 l -4.383448,4.734529 1.869884,4.876359 1.869884,4.87636 4.097885,0.333333 c 4.597179,0.373947 5.446637,0.84029 4.220891,2.317223 -1.055745,1.272095 -8.597874,1.408014 -10.14227,0.182777 z m 99.333333,0 c -0.57772,-0.458333 -2.0159,-3.383333 -3.19595,-6.5 -1.18004,-3.116666 -2.30474,-5.927811 -2.49933,-6.246988 -0.19459,-0.319177 -1.22974,1.473002 -2.30035,3.982621 -1.81151,4.24639 -2.76827,5.562118 -4.06306,5.587492 -1.4821,0.02905 -1.0147,-2.647449 1.5052,-8.619202 1.53748,-3.643572 2.69253,-7.167507 2.56678,-7.830966 -0.15196,-0.8017 -0.93203,-1.274755 -2.32581,-1.410419 -3.66486,-0.356722 -5.78129,4.705295 -2.83121,6.771612 1.56063,1.093109 1.49151,3.30791 -0.11288,3.616888 -0.57028,0.109825 -1.84183,-0.433504 -2.82568,-1.207398 -3.92664,-3.088695 -1.44754,-10.365707 4.09366,-12.016266 4.78172,-1.424336 8.96284,1.988608 7.51705,6.135985 -0.40637,1.165736 -0.60672,2.251662 -0.44521,2.41317 0.1615,0.161509 2.3771,-1.874059 4.92353,-4.523484 4.42005,-4.598811 6.21205,-5.463509 6.64969,-3.208688 0.1068,0.550294 -1.77836,3.131072 -4.18926,5.735062 l -4.38344,4.734529 1.86988,4.876359 1.86988,4.87636 4.09789,0.333333 c 4.59718,0.373947 5.44663,0.84029 4.22089,2.317223 -1.05574,1.272095 -8.59788,1.408014 -10.14227,0.182777 z M 45.103325,38.780838 C 44.487228,38.100058 44,36.451419 44,35.047505 c 0,-1.970366 0.490271,-3.004444 2.266667,-4.78084 2.285695,-2.285695 3.926249,-2.756865 5.697412,-1.636308 0.590044,0.373302 1.434484,0.358188 2.176558,-0.03896 0.919676,-0.492197 1.315594,-0.380184 1.639476,0.463838 0.365648,0.952864 0.03557,2.347248 -1.591966,6.725048 -0.159548,0.429158 0.404785,0.879157 1.254072,0.999999 0.849288,0.120843 1.642158,0.733995 1.761933,1.362562 0.283447,1.487502 -2.72924,2.287556 -4.896173,1.300236 -1.003359,-0.457159 -1.740564,-0.4885 -1.990183,-0.08461 -0.670463,1.08483 -4.048622,0.710614 -5.214471,-0.577634 z m 5.951901,-4.476851 c 1.104437,-2.643291 0.809985,-3.637322 -1.077451,-3.637322 -1.447984,0 -3.610538,3.591444 -3.046934,5.060172 0.716754,1.86783 3.091799,1.048475 4.124385,-1.42285 z m 12.111441,4.993038 c -1.516187,-0.905311 -1.555541,-5.095671 -0.06334,-6.744532 1.036453,-1.145268 1.01625,-1.219161 -0.333333,-1.219161 -0.790163,0 -1.436659,0.413267 -1.436659,0.91837 0,1.506102 -1.699118,2.584327 -2.50536,1.589851 -0.481975,-0.594501 -0.22545,-1.869044 0.873816,-4.341554 1.589077,-3.574217 2.485074,-4.238972 3.432257,-2.546451 0.305343,0.545618 1.814367,1.044722 3.527375,1.166667 3.715886,0.264525 4.175239,1.674526 1.158306,3.555458 -1.394636,0.869497 -2.225831,1.969041 -2.359646,3.121451 -0.183134,1.577155 0.04389,1.80316 1.999999,1.990992 1.691513,0.162424 2.206587,0.523116 2.206587,1.545216 0,1.083863 -0.49894,1.363922 -2.666667,1.49682 -1.466667,0.08992 -3.191667,-0.14999 -3.833333,-0.533127 z m 8.478866,0.0021 c -0.475726,-0.769739 2.744634,-9.06808 4.10394,-10.575201 0.67986,-0.753786 1.048867,-0.777918 1.84112,-0.120404 0.758827,0.629772 1.327194,0.642316 2.42728,0.05357 1.076934,-0.57636 1.894447,-0.579038 3.266534,-0.0107 1.387973,0.574918 2.259173,0.562553 3.60618,-0.05119 1.346053,-0.613301 2.17962,-0.625371 3.442746,-0.04985 1.920027,0.874822 2.083594,2.293964 0.65772,5.706553 -1.000013,2.393353 -0.994466,2.414726 0.62732,2.414726 2.008067,0 2.769,1.063291 1.690727,2.362537 -1.02074,1.229916 -5.566187,1.26759 -6.57298,0.05448 -0.58016,-0.699045 -0.453273,-1.632993 0.535113,-3.938809 1.369034,-3.193828 1.254607,-3.811541 -0.70608,-3.811541 -0.811646,0 -1.872213,1.306635 -3.207306,3.951435 -2.182107,4.322729 -3.102787,5.236959 -4.184534,4.15521 -0.502906,-0.502904 -0.308293,-1.678358 0.666034,-4.022852 1.457593,-3.507356 1.36528,-4.083793 -0.654007,-4.083793 -0.886693,0 -1.77362,1.133807 -2.998653,3.833333 -2.079494,4.582464 -3.47704,5.854239 -4.541154,4.132471 z M 96.43666,38.78086 c -0.6161,-0.680802 -1.103327,-2.329441 -1.103327,-3.733355 0,-1.970366 0.490274,-3.004444 2.266667,-4.78084 2.285693,-2.285695 3.92625,-2.756865 5.69741,-1.636308 0.59005,0.373302 1.43448,0.358188 2.17656,-0.03896 0.91968,-0.492197 1.3156,-0.380184 1.63948,0.463838 0.36564,0.952864 0.0355,2.347248 -1.59197,6.725048 -0.15955,0.429158 0.40479,0.879157 1.25407,0.999999 0.84929,0.120843 1.64216,0.733995 1.76194,1.362562 0.28344,1.487502 -2.72924,2.287556 -4.89618,1.300236 -1.00336,-0.457162 -1.74056,-0.488503 -1.99018,-0.08461 -0.67046,1.084831 -4.048623,0.710615 -5.21447,-0.577634 z m 5.9519,-4.476851 c 1.10443,-2.643313 0.80999,-3.637344 -1.07745,-3.637344 -1.447983,0 -3.610537,3.591444 -3.046937,5.060172 0.716754,1.86783 3.091797,1.048475 4.124387,-1.42285 z m 40.62523,5.051648 c -0.47698,-0.771753 6.69027,-18.603773 8.0361,-19.99373 0.72464,-0.748406 1.12185,-0.790164 1.73012,-0.18189 0.60828,0.608275 0.38764,1.802516 -0.96104,5.201786 l -1.75059,4.412246 1.64616,-0.413158 C 153.84583,27.845969 156,29.017514 156,30.711533 c 0,0.73221 -0.43469,2.371655 -0.96598,3.643212 -0.95113,2.276357 -0.94055,2.31192 0.68759,2.31192 1.89102,0 2.93417,1.842352 1.5422,2.723741 -0.51176,0.324046 -2.06489,0.593769 -3.4514,0.599384 -3.16635,0.01282 -3.72464,-1.20383 -2.30727,-5.028088 1.13301,-3.057009 0.97767,-3.62837 -0.98647,-3.62837 -0.88669,0 -1.77362,1.133807 -2.99865,3.833333 -2.05424,4.526813 -3.47893,5.851191 -4.50623,4.188969 z m 17.42287,-0.574797 c -0.6161,-0.680802 -1.10333,-2.329441 -1.10333,-3.733355 0,-1.970366 0.49028,-3.004444 2.26667,-4.78084 2.28569,-2.285695 3.92625,-2.756865 5.69741,-1.636308 0.59005,0.373302 1.43448,0.358188 2.17656,-0.03896 0.91968,-0.492197 1.3156,-0.380184 1.63948,0.463838 0.36682,0.955943 0.0316,2.365298 -1.61232,6.778094 -0.18026,0.483869 0.22269,0.833333 0.96088,0.833333 0.69923,0 1.62437,0.353048 2.05588,0.784552 0.60162,0.601624 1.17675,-0.102292 2.46666,-3.019009 0.92516,-2.091955 1.68212,-4.05827 1.68212,-4.369586 0,-0.311315 0.45,-0.939494 1,-1.395954 0.776,-0.644023 1.21445,-0.651945 1.95738,-0.03537 0.7281,0.604265 1.30141,0.610445 2.39382,0.02581 1.07694,-0.576359 1.89445,-0.579038 3.26654,-0.0107 1.38797,0.574918 2.25917,0.562553 3.60618,-0.05119 1.34605,-0.613301 2.17962,-0.625372 3.44274,-0.04985 1.92003,0.874822 2.0836,2.293964 0.65772,5.706554 -1.00001,2.393373 -0.99446,2.414746 0.62732,2.414746 2.00807,0 2.769,1.063291 1.69073,2.362537 -1.02074,1.229916 -5.56619,1.26759 -6.57298,0.05448 -0.58016,-0.699045 -0.45327,-1.632993 0.53511,-3.938809 1.36904,-3.193828 1.25461,-3.811541 -0.70608,-3.811541 -0.81164,0 -1.87221,1.306635 -3.2073,3.951435 -2.18211,4.322729 -3.10279,5.236959 -4.18454,4.15521 -0.5029,-0.502904 -0.30829,-1.678358 0.66604,-4.022852 1.46062,-3.514652 1.36678,-4.083793 -0.67333,-4.083793 -0.92117,0 -1.77083,1.114113 -3.0405,3.986854 -1.75161,3.963149 -3.12541,5.279921 -4.29175,4.113578 -0.36882,-0.368814 -1.36038,-0.326686 -2.5082,0.106566 -1.38136,0.521405 -2.3584,0.506854 -3.5881,-0.05344 -1.05591,-0.481102 -1.8386,-0.529278 -2.08634,-0.12842 -0.67046,1.08483 -4.04862,0.710614 -5.21447,-0.577634 z m 5.9519,-4.476851 c 1.10443,-2.643313 0.80999,-3.637344 -1.07745,-3.637344 -1.44798,0 -3.61054,3.591444 -3.04694,5.060172 0.71676,1.86783 3.0918,1.048475 4.12439,-1.42285 z m 35.44477,4.993016 c -1.51618,-0.905311 -1.55554,-5.095671 -0.0633,-6.744532 1.03645,-1.145268 1.01624,-1.219161 -0.33334,-1.219161 -0.79017,0 -1.43666,0.413267 -1.43666,0.91837 0,1.506102 -1.69912,2.584327 -2.50536,1.589851 -0.48197,-0.594501 -0.22545,-1.869044 0.87381,-4.341554 1.58908,-3.574217 2.48508,-4.238972 3.43226,-2.546451 0.30534,0.545618 1.81437,1.044722 3.52738,1.166667 3.71588,0.264525 4.17524,1.674526 1.1583,3.555458 -1.39463,0.869497 -2.22583,1.969041 -2.35964,3.121451 -0.18314,1.577155 0.0439,1.80316 2,1.990992 1.69151,0.162424 2.20658,0.523116 2.20658,1.545216 0,1.083863 -0.49894,1.363922 -2.66666,1.49682 -1.46667,0.08992 -3.19167,-0.14999 -3.83334,-0.533127 z M 211.5,39.558478 c -1.19163,-0.480833 -1.03357,-2.330095 0.54419,-6.367133 1.71106,-4.378087 2.95182,-5.795337 4.08318,-4.663979 0.62696,0.626966 0.55403,1.499737 -0.33187,3.971429 -1.42951,3.988364 -1.4198,4.16787 0.22542,4.16787 1.65407,0 2.52617,1.911171 1.24289,2.723741 -0.99128,0.627679 -4.3799,0.72649 -5.76381,0.168072 z m 8.66667,0 c -1.12168,-0.452605 -1.04912,-2.212544 0.21606,-5.240527 0.7832,-1.87446 0.85111,-2.634088 0.26773,-2.994634 -1.19283,-0.73721 -0.47495,-2.965279 1.02507,-3.181447 0.73071,-0.105303 1.85298,-1.105193 2.49392,-2.221976 1.32839,-2.314584 2.86971,-2.231878 2.75029,0.147578 -0.0441,0.879556 0.33085,1.839101 0.83333,2.13232 1.54998,0.90449 1.0166,2.479605 -0.97452,2.87783 -1.36098,0.272197 -2.10548,0.97872 -2.66666,2.530665 -1.03713,2.868111 -1.00132,3.058378 0.5757,3.058378 1.65407,0 2.52617,1.911171 1.24289,2.723741 -0.99129,0.627679 -4.37991,0.72649 -5.76381,0.168072 z m 8.14862,-0.25435 c -0.7381,-1.19427 1.01316,-2.554152 3.56324,-2.766911 1.75485,-0.146412 2.50988,-0.552721 2.67844,-1.441365 0.37092,-1.95545 -1.0445,-2.929003 -2.12,-1.458172 -1.00951,1.38058 -2.44279,0.882125 -2.426,-0.843693 0.0173,-1.773697 2.92653,-6.460655 4.01024,-6.460655 0.58894,0 1.06797,0.783689 1.2027,1.967615 0.12314,1.082188 0.79814,2.697646 1.5,3.589906 3.03426,3.857441 0.35619,8.109145 -5.1078,8.109145 -1.57892,0 -3.06428,-0.313141 -3.30082,-0.69587 z m 11.36516,0.05151 c -0.47697,-0.771753 6.69028,-18.603773 8.0361,-19.99373 0.72465,-0.748406 1.12186,-0.790164 1.73013,-0.18189 0.60827,0.608275 0.38763,1.802516 -0.96105,5.201786 l -1.75058,4.412246 1.64616,-0.413158 c 2.13128,-0.53492 4.28546,0.636625 4.28546,2.330644 0,0.73221 -0.4347,2.371655 -0.96598,3.643212 -0.95113,2.276357 -0.94055,2.31192 0.68758,2.31192 1.89102,0 2.93418,1.842352 1.54221,2.723741 -0.51177,0.324046 -2.06489,0.593769 -3.4514,0.599384 -3.16635,0.01282 -3.72465,-1.20383 -2.30727,-5.028088 1.133,-3.057009 0.97766,-3.62837 -0.98647,-3.62837 -0.88669,0 -1.77362,1.133807 -2.99865,3.833333 -2.05424,4.526813 -3.47893,5.851191 -4.50624,4.188969 z m 17.42288,-0.574797 C 256.48723,38.100058 256,36.451419 256,35.047505 c 0,-1.970366 0.49027,-3.004444 2.26667,-4.78084 2.28569,-2.285695 3.92624,-2.756865 5.69741,-1.636308 0.59005,0.373302 1.43448,0.358188 2.17655,-0.03896 0.91968,-0.492197 1.3156,-0.380184 1.63948,0.463838 0.36683,0.955943 0.0316,2.365298 -1.61232,6.778094 -0.18026,0.483869 0.2227,0.833333 0.96088,0.833333 0.69924,0 1.62438,0.353048 2.05588,0.784552 0.60162,0.601624 1.17676,-0.102292 2.46667,-3.019009 0.92516,-2.091955 1.68211,-4.05827 1.68211,-4.369586 0,-0.311315 0.45,-0.939494 1,-1.395954 0.776,-0.644023 1.21446,-0.651945 1.95739,-0.03537 0.73458,0.609646 1.29723,0.612682 2.41766,0.01304 1.06734,-0.571224 1.88606,-0.587519 3.04261,-0.06055 1.82941,0.833533 2.00244,2.453609 0.61636,5.77096 -0.95112,2.276357 -0.94054,2.31192 0.68759,2.31192 1.89102,0 2.93417,1.842352 1.54221,2.723741 -0.51177,0.324046 -2.0649,0.593769 -3.4514,0.599384 -3.16595,0.01282 -3.7413,-1.231386 -2.35374,-5.090027 1.1141,-3.098181 0.98815,-3.566431 -0.95932,-3.566431 -0.92118,0 -1.77083,1.114113 -3.0405,3.986854 -1.75161,3.963149 -3.12542,5.279921 -4.29176,4.113578 -0.36881,-0.368814 -1.36038,-0.326686 -2.5082,0.106566 -1.38136,0.521405 -2.35839,0.506854 -3.5881,-0.05344 -1.0559,-0.481102 -1.83859,-0.529278 -2.08634,-0.12842 -0.67046,1.08483 -4.04862,0.710614 -5.21446,-0.577634 z m 5.9519,-4.476851 c 1.10443,-2.643291 0.80998,-3.637322 -1.07746,-3.637322 -1.44798,0 -3.61053,3.591444 -3.04693,5.060172 0.71675,1.86783 3.0918,1.048475 4.12439,-1.42285 z M 215.5,26.891812 c -1.21535,-0.490402 -1.01917,-2.677846 0.28503,-3.178316 0.62539,-0.239988 1.5552,0.0077 2.1094,0.561881 0.81426,0.814265 0.83804,1.175377 0.13334,2.024497 -0.89738,1.081274 -1.16168,1.143167 -2.52777,0.591938 z"
         id="path184" />
    </g>
  </g>
</svg>
