<?xml version="1.0" encoding="UTF-8" standalone="no"?>
<!-- Created with Inkscape (http://www.inkscape.org/) -->

<svg
   version="1.1"
   id="svg253"
   width="274.66666"
   height="280"
   viewBox="0 0 274.66666 280"
   sodipodi:docname="LP1.svg"
   inkscape:version="1.2.1 (9c6d41e410, 2022-07-14)"
   xmlns:inkscape="http://www.inkscape.org/namespaces/inkscape"
   xmlns:sodipodi="http://sodipodi.sourceforge.net/DTD/sodipodi-0.dtd"
   xmlns="http://www.w3.org/2000/svg"
   xmlns:svg="http://www.w3.org/2000/svg">
  <defs
     id="defs257" />
  <sodipodi:namedview
     id="namedview255"
     pagecolor="#ffffff"
     bordercolor="#000000"
     borderopacity="0.25"
     inkscape:showpageshadow="2"
     inkscape:pageopacity="0.0"
     inkscape:pagecheckerboard="0"
     inkscape:deskcolor="#d1d1d1"
     showgrid="false"
     inkscape:zoom="3.6678571"
     inkscape:cx="95.696203"
     inkscape:cy="143.40798"
     inkscape:window-width="2560"
     inkscape:window-height="1334"
     inkscape:window-x="-11"
     inkscape:window-y="-11"
     inkscape:window-maximized="1"
     inkscape:current-layer="g259" />
  <g
     inkscape:groupmode="layer"
     inkscape:label="Image"
     id="g259">
    <g
       id="g263">
      <path
         style="fill:#d0d0d0;fill-opacity:1;stroke-width:0.666667"
         d="m 77.333285,229.5 -4e-5,-37.83333 -3.855807,-3.33334 c -12.593122,-10.88672 -22.023751,-25.1636 -27.082642,-41 C 42.828836,136.17043 42.332611,132.458 42.340259,117 42.349402,98.519227 43.865141,91.190793 50.626292,76.93792 66.355156,43.780632 99.523698,23.826214 136,25.576529 c 23.24589,1.115454 43.77358,10.152664 60.05687,26.439726 16.47008,16.473892 26.60979,40.691592 26.60979,63.554835 v 5.06664 l 10.94433,19.00243 c 6.01938,10.45133 11.30689,20.10102 11.75003,21.44375 1.01158,3.06511 0.45702,8.8899 -1.06797,11.21733 -0.63188,0.96437 -2.40767,2.49111 -3.9462,3.39275 -2.51438,1.47352 -3.54206,1.63934 -10.15974,1.63934 h -7.36242 l -0.32388,12.83334 c -0.33982,13.46505 -0.81248,15.93692 -4.38723,22.94402 -2.01093,3.94174 -7.84681,10.06824 -12.39883,13.01628 -6.49831,4.2085 -10.86533,5.20636 -22.78498,5.20636 h -10.26311 v 18 18 H 125 77.333331 Z M 166,243.33333 v -18 l 11.5,-0.01 c 12.74055,-0.0109 17.89011,-0.8493 23.29908,-3.79324 4.28492,-2.33214 9.59975,-7.718 11.70712,-11.86358 3.04075,-5.98168 3.47741,-9.00302 3.48588,-24.11974 l 0.008,-14.11973 10.31666,-0.2136 c 9.58185,-0.19838 10.42073,-0.31779 11.77778,-1.67655 1.06717,-1.06852 1.45166,-2.23688 1.42602,-4.33334 -0.0303,-2.47642 -1.6336,-5.62876 -11.68206,-22.96824 l -11.64696,-20.09788 -0.3669,-9.23546 c -0.5494,-13.828843 -2.76469,-22.746157 -8.55043,-34.418403 -4.32337,-8.72206 -8.32231,-14.217178 -15.92621,-21.884926 -16.07637,-16.211359 -36.41424,-24.592368 -59.68125,-24.59397 -40.242989,-0.0028 -74.150547,28.103704 -82.103918,68.057159 -1.544932,7.76091 -1.525784,26.09968 0.0357,34.18736 3.86898,20.03935 13.825363,37.21032 29.028365,50.06288 l 4.706527,3.97889 v 36.52111 36.52112 H 124.66667 166 v -18 z m -59.66667,-67.96357 c -2.4308,-0.99491 -3.85201,-3.26177 -4.17909,-6.66574 -0.2901,-3.01905 -0.13529,-3.4922 1.76388,-5.39137 C 105.43859,161.79217 106,160.61539 106,158.94872 v -2.28205 H 95.781651 85.563298 L 79.043031,149 c -5.978593,-7.02976 -6.710879,-7.66667 -8.814753,-7.66667 -6.560858,0 -10.242215,-6.35524 -6.877856,-11.87345 4.491996,-7.36775 15.044656,-3.25555 14.455063,5.6329 -0.11484,1.73129 0.77902,3.19954 5.17472,8.5 L 88.293745,150 H 97.146871 106 v -7.10722 -7.10721 l 7.96821,-8.05994 7.96822,-8.05992 -4.96822,-5.08212 L 112,109.50149 V 83.783867 C 112,63.293695 111.82243,57.957889 111.12642,57.533127 109.45232,56.511444 108,53.687747 108,51.454524 c 0,-8.612554 11.50781,-10.647777 14.57904,-2.578388 1.15456,3.033507 0.57112,5.409601 -1.94652,7.927236 -1.69337,1.693369 -1.96586,2.466991 -1.96586,5.581243 V 66 h 12 12 v 10.25666 c 0,10.15878 0.0157,10.266907 1.6391,11.33064 0.90954,0.595953 1.99816,2.272393 2.44578,3.766453 2.48601,8.297534 -9.23484,13.446217 -13.63866,5.99114 C 131.1236,93.97732 132.11012,88.974347 135.12642,87.13354 135.757,86.748707 136,84.6625 136,79.63354 v -6.966873 h -8.66667 -8.66667 v 17.17448 17.174483 l 10.5,10.46311 c 9.31658,9.28384 10.73896,10.45511 12.62019,10.39205 6.09395,-0.20424 10.01937,5.51634 7.5009,10.93118 -1.72797,3.71521 -7.36363,5.27878 -10.83304,3.00553 -2.03296,-1.33204 -4.01391,-5.48351 -3.53226,-7.40255 0.29513,-1.17588 -0.51993,-2.366 -3.94561,-5.76123 l -4.31757,-4.27919 -6.9963,6.97249 -6.99631,6.97249 v 11.34741 11.34741 l 1.94884,1.83939 c 6.22508,5.87547 -0.3255,15.78265 -8.28217,12.52604 z m -17.999999,-48 c -2.4308,-0.99491 -3.852013,-3.26177 -4.179093,-6.66574 -0.290093,-3.01905 -0.135287,-3.4922 1.76388,-5.39137 2.06508,-2.06508 2.08188,-2.13796 2.08188,-9.0306 V 99.333333 H 73.666665 c -15.619939,0 -15.021048,0.171747 -13.60145,-3.90052 l 0.731884,-2.09948 h 7.601453 7.601446 v -5.63354 c 0,-3.92954 -0.264233,-5.7948 -0.873573,-6.166666 -1.674107,-1.02168 -3.126427,-3.84538 -3.126427,-6.0786 0,-8.61256 11.507813,-10.64778 14.579047,-2.578394 1.15456,3.033514 0.571113,5.4096 -1.94652,7.92724 -1.84588,1.845874 -1.96586,2.28824 -1.96586,7.247907 v 5.282053 h 6 5.999999 v 9.835497 9.8355 l 1.948834,1.83939 c 6.225082,5.87547 -0.325494,15.78265 -8.282167,12.52604 z M 173.53203,82.85 c -0.80738,-0.14722 -2.38238,-1.309133 -3.5,-2.582033 C 168.4318,78.4454 168,77.336053 168,75.047433 c 0,-2.787606 -0.21758,-3.10232 -5.33334,-7.7141 l -5.33333,-4.807928 v -9.250923 -9.250923 l 3.16667,1.174316 3.16666,1.174316 0.18974,6.791236 0.18974,6.791236 4.37122,3.856002 c 2.40417,2.120801 5.01879,3.901442 5.81026,3.956975 0.79148,0.05553 2.10931,0.130533 2.92852,0.166667 0.81922,0.03613 2.41274,0.890693 3.54117,1.899026 2.37765,2.124614 3.22174,6.172 1.8288,8.769067 -1.62133,3.022887 -5.54593,4.876347 -8.99408,4.2476 z"
         id="path279" />
      <path
         style="fill:#b9b9b9;fill-opacity:1;stroke-width:0.666667"
         d="m 77.333331,229.68289 v -37.65045 l -7.842319,-7.84955 C 57.843688,172.52481 51.340319,162.14293 46.407912,147.33333 42.967999,137.00497 41.756156,127.40801 42.19879,114 42.733982,97.78834 45.371665,86.92486 51.790069,74.49764 74.231252,31.047383 126.63569,13.382343 171.05742,34.293752 c 23.44704,11.037631 41.84436,33.199541 48.34763,58.240861 1.68335,6.481874 3.23166,17.764797 3.2486,23.673357 l 0.013,4.54129 10.43928,18.12253 c 5.7416,9.9674 10.98501,19.32381 11.65202,20.79204 2.63978,5.81068 0.84616,12.56584 -4.20633,15.84193 -2.6453,1.71526 -3.27655,1.82757 -10.27152,1.82757 h -7.453 l -0.32371,12.5 c -0.26676,10.30075 -0.57238,13.27087 -1.73705,16.88142 -2.78465,8.63258 -9.52294,16.62559 -17.34408,20.57369 -6.45964,3.26081 -10.57474,4.04489 -21.229,4.04489 h -9.5266 v 18 18 H 125 77.333331 Z M 166,243.33333 v -18 h 11.63385 c 6.39862,0 13.22362,-0.33758 15.16667,-0.75017 10.34828,-2.19741 19.11564,-10.40674 22.19757,-20.78473 0.75773,-2.55154 1.0019,-6.91874 1.0019,-17.91943 v -14.54567 h 9.96283 c 9.57055,0 10.03647,-0.0633 11.83333,-1.60894 1.54041,-1.325 1.86012,-2.11915 1.81167,-4.5 -0.0505,-2.48204 -1.71029,-5.74358 -11.73197,-23.05384 l -11.67313,-20.16278 -0.41345,-9.83722 C 214.8176,89.051573 206.20853,70.334133 189.18711,54.333333 173.38966,39.483112 154.07758,31.971519 131.66666,31.960269 112.86248,31.950829 96.558138,37.326505 81.802251,48.40098 64.986386,61.02149 53.757714,79.023933 49.55271,100.10527 c -1.409861,7.06819 -1.582997,26.0779 -0.302633,33.22806 C 52.825251,153.29884 63.95899,172.47079 79.254485,185 l 4.069293,3.33333 0.0047,36.5 0.0047,36.5 h 41.333332 41.33334 v -18 z M 105.84171,174.95641 C 103.72962,173.8104 102,170.82855 102,168.33333 c 0,-2.27137 1.67255,-5.44451 3.34023,-6.33702 0.93233,-0.49897 1.32643,-1.3962 1.32643,-3.01976 v -2.30988 l -10.499996,-0.001 -10.499999,-0.001 -6.540727,-7.66549 c -6.34962,-7.4412 -6.61974,-7.66518 -9.2451,-7.66518 -2.252553,0 -3.136786,-0.43241 -5.292604,-2.58823 -1.916974,-1.91697 -2.588236,-3.13587 -2.588236,-4.69977 0,-2.59816 1.500126,-5.6196 3.477864,-7.00486 1.945556,-1.36272 6.164823,-1.32692 8.533696,0.0724 2.517587,1.48717 3.528487,3.55985 3.603313,7.38798 0.05813,2.97576 0.39992,3.57156 5.356734,9.33884 L 88.266211,150 h 9.200227 9.200222 v -7.15665 -7.15666 l 7.79076,-7.81111 7.79077,-7.81111 -4.79077,-5.30569 -4.79076,-5.30569 V 84.307347 59.161601 l -2.33333,-2.582721 c -3.25798,-3.606196 -3.28056,-7.098323 -0.0667,-10.312213 C 112.16759,44.365737 113.01364,44 115.51009,44 c 3.61845,0 6.07339,1.717908 7.16001,5.010425 0.96178,2.914195 -0.0479,6.403416 -2.38503,8.241764 -1.36959,1.077314 -1.61841,1.847643 -1.61841,5.010424 V 66 h 12 12 v 10.30988 c 0,9.387973 0.11146,10.369527 1.24644,10.976947 0.68554,0.366886 1.77009,1.7706 2.41012,3.119366 2.374,5.002834 -1.11716,10.260477 -6.81313,10.260477 -2.49645,0 -3.3425,-0.36574 -5.24343,-2.26667 -3.21389,-3.213893 -3.19131,-6.70602 0.0667,-10.312213 2.32629,-2.574934 2.33333,-2.602087 2.33333,-9.00192 v -6.4192 h -9 -9 v 17.17448 17.174483 l 10.50758,10.49218 c 10.33349,10.31835 10.55551,10.49219 13.4,10.49219 2.40053,0 3.2779,0.38547 5.15909,2.26667 1.8582,1.8582 2.26667,2.77124 2.26667,5.06666 0,2.29543 -0.40847,3.20847 -2.26667,5.06667 -1.89923,1.89923 -2.748,2.26667 -5.23599,2.26667 -2.23094,0 -3.40966,-0.4081 -4.74012,-1.64113 -2.1335,-1.97727 -3.22226,-4.59658 -2.73167,-6.57181 0.28295,-1.1392 -0.58307,-2.38793 -4.00261,-5.77147 l -4.36367,-4.31773 -6.9963,6.97249 -6.99631,6.97249 v 11.3957 c 0,11.31374 0.0121,11.40704 1.67788,12.97199 0.92284,0.86695 2.00739,2.67609 2.41012,4.0203 1.82516,6.09182 -5.16173,11.37949 -10.91295,8.25891 z m -17.999999,-48 c -2.112086,-1.14601 -3.841713,-4.12786 -3.841713,-6.62308 0,-2.28317 1.675313,-5.44598 3.36316,-6.3493 1.240007,-0.66362 1.334,-1.27304 1.159767,-7.51976 L 88.333331,99.666667 73.833332,99.487 c -7.975,-0.09882 -14.498327,-0.39882 -14.496282,-0.666667 0.0021,-0.267853 0.316146,-1.612 0.698003,-2.987 l 0.694284,-2.5 h 7.968661 7.968667 v -5.085866 c 0,-4.876027 -0.09627,-5.192427 -2.333333,-7.668587 -3.25798,-3.606193 -3.28056,-7.09832 -0.06667,-10.312213 C 76.167591,68.36574 77.013645,68 79.510091,68 c 3.618454,0 6.073387,1.717907 7.160014,5.010427 0.961773,2.914193 -0.04793,6.403413 -2.385034,8.24176 -1.475633,1.160733 -1.618406,1.749786 -1.618406,6.677093 v 5.404053 h 6 5.999999 v 9.883797 c 0,9.69834 0.03147,9.91336 1.67788,11.46007 0.922834,0.86695 2.007387,2.67609 2.41012,4.0203 1.825156,6.09182 -5.161733,11.37949 -10.912953,8.25891 z M 170.26666,80.4 C 168.36138,78.494713 168,77.655667 168,75.1373 c 0,-2.89994 -0.17107,-3.150247 -5.33334,-7.803967 l -5.33333,-4.807928 v -9.222237 -9.222237 l 3,1.022202 3,1.022203 v 6.541576 6.541576 l 4.74782,4.395756 C 172.37997,67.584293 173.09651,68 175.65792,68 c 5.20813,0 8.63955,4.72528 7.01218,9.65624 -1.08662,3.29252 -3.54156,5.010427 -7.16001,5.010427 -2.49645,0 -3.3425,-0.36574 -5.24343,-2.266667 z"
         id="path277" />
      <path
         style="fill:#a3a3a3;fill-opacity:1;stroke-width:0.666667"
         d="m 77.333331,229.64816 v -37.68517 l -7.870953,-7.81483 C 55.782479,170.56582 47.880578,156.26205 43.870433,137.82245 41.848802,128.52651 41.690792,106.72242 43.582101,98.035053 48.384668,75.97538 60.309645,56.893899 77.333331,44.028775 101.3995,25.841514 131.99293,20.735005 160.83486,30.091099 c 21.50751,6.976866 40.85712,23.686667 51.60783,44.567134 6.01764,11.687727 8.56841,21.20056 9.65528,36.008437 L 222.85642,121 l 11.28997,19.74445 c 11.60585,20.29688 12.52256,22.48066 11.5695,27.56091 -0.50477,2.69065 -3.63906,6.60925 -6.44842,8.06203 -1.29651,0.67045 -4.09467,0.96594 -9.14695,0.96594 h -7.27901 l -0.31844,12.5 c -0.28814,11.3114 -0.48454,12.97187 -2.0655,17.4624 -3.79172,10.77002 -11.26932,18.18284 -22.74341,22.54635 -1.86146,0.70789 -6.27474,1.15665 -14.0475,1.42838 l -11.33333,0.39621 -0.17755,17.83333 -0.17756,17.83333 H 124.65578 77.333331 Z M 166,243.33333 v -18 h 11.63385 c 6.39862,0 13.22362,-0.33731 15.16667,-0.74958 10.21997,-2.16846 18.84736,-10.05252 21.96631,-20.0737 1.0417,-3.347 1.23316,-6.23012 1.23316,-18.56944 v -14.60728 h 9.96283 c 9.57055,0 10.03647,-0.0633 11.83333,-1.60894 1.53105,-1.31695 1.86376,-2.13362 1.8333,-4.5 -0.0322,-2.50327 -1.61838,-5.61843 -11.82532,-23.22439 l -11.78812,-20.33333 -0.008,-7.07934 C 215.99006,98.726027 211.20249,83.172993 201.97519,69 197.60823,62.292408 186.02355,50.671213 179.05545,46.008013 153.38446,28.828441 119.90747,27.052916 92.748198,41.430519 67.861498,54.605064 51.469865,79.051907 48.560297,107.33333 c -2.740342,26.63653 5.527448,52.04244 22.898888,70.3655 2.45256,2.5869 6.12756,6.03475 8.166666,7.66187 l 3.70748,2.95841 v 36.50711 36.50711 H 124.66666 166 Z M 105.84171,174.99251 C 103.72193,173.80039 102,170.81561 102,168.33333 c 0,-2.27137 1.67255,-5.44451 3.34023,-6.33702 0.93233,-0.49897 1.32643,-1.3962 1.32643,-3.01976 v -2.30988 l -10.499996,-0.0245 -10.499999,-0.0246 -6.440954,-7.54874 C 72.992172,141.76318 72.684612,141.5088 69.675038,141.16958 59.595116,140.03339 59.732217,126 69.823238,126 c 2.496447,0 3.3425,0.36574 5.243427,2.26667 2.175333,2.17533 2.541346,3.31401 2.296413,7.14422 -0.08318,1.30071 1.2723,3.3773 5.330713,8.16667 L 88.136038,150 h 9.265313 9.265309 v -7.15665 -7.15666 l 7.7746,-7.7949 7.7746,-7.7949 -3.36656,-3.88178 c -1.8516,-2.13498 -4.00018,-4.45327 -4.7746,-5.15177 -1.38588,-1.25 -1.40804,-1.66802 -1.40804,-26.560687 V 59.211952 l -2.39093,-2.772643 c -2.15265,-2.49632 -2.3585,-3.069468 -2.06554,-5.751015 0.6884,-6.301123 7.97432,-9.067882 12.35175,-4.690457 1.0988,1.09881 2.1889,2.867733 2.42241,3.930939 0.52091,2.371647 -1.02438,6.335247 -2.93513,7.528533 -1.13794,0.710656 -1.38256,1.540041 -1.38256,4.687672 v 3.824253 l 11.83334,0.18205 11.83333,0.182049 0.18489,9.902834 c 0.18476,9.896513 0.1861,9.904053 2.08736,11.805313 2.36853,2.368533 3.00539,4.763913 2.04237,7.681887 -1.06543,3.228273 -3.54183,4.943303 -7.13786,4.943303 -2.51747,0 -3.33956,-0.3628 -5.3281,-2.351343 -2.18003,-2.180034 -2.32566,-2.57916 -1.99887,-5.478374 0.27063,-2.401046 0.832,-3.555506 2.418,-4.972593 2.04924,-1.831 2.06554,-1.89826 2.06554,-8.521627 v -6.676066 h -9 -9 v 17.17448 17.174483 l 10.50758,10.49218 c 10.33349,10.31835 10.55551,10.49219 13.4,10.49219 2.40053,0 3.2779,0.38547 5.15909,2.26667 1.8582,1.8582 2.26667,2.77124 2.26667,5.06666 0,5.38794 -5.80416,8.9456 -10.80197,6.62109 -2.37905,-1.10651 -4.04652,-3.84395 -4.04652,-6.64304 0,-2.2237 -0.51421,-3.03974 -4.24612,-6.73848 l -4.24612,-4.20837 -6.9963,6.97249 -6.99631,6.97249 v 11.68488 c 0,11.10154 0.069,11.72798 1.38256,12.5483 0.7604,0.47488 1.82518,1.92277 2.36616,3.21754 2.56905,6.14858 -4.7279,12.51982 -10.57367,9.23228 z m -17.999999,-48 c -2.11978,-1.19212 -3.841713,-4.1769 -3.841713,-6.65918 0,-2.27137 1.672553,-5.44451 3.340233,-6.33702 1.194407,-0.63923 1.326434,-1.40429 1.326434,-7.68643 V 99.333333 H 73.999998 c -8.066666,0 -14.666666,-0.190193 -14.666666,-0.422653 0,-0.23246 0.347486,-1.58246 0.772192,-3 l 0.772191,-2.577347 h 7.894477 7.894473 V 88.27264 c 0,-4.84702 -0.100947,-5.177753 -2.390933,-7.833333 -2.152647,-2.49632 -2.3585,-3.069467 -2.06554,-5.751014 0.871293,-7.975226 11.957266,-9.260966 14.460173,-1.677073 0.961493,2.913353 -0.04853,6.40286 -2.385294,8.240967 -1.475633,1.160733 -1.618406,1.749786 -1.618406,6.677093 v 5.404053 h 6 5.999999 V 103.5063 c 0,9.57169 0.08171,10.22401 1.382554,11.03639 0.760406,0.47488 1.82518,1.92277 2.366166,3.21754 2.569046,6.14858 -4.7279,12.51982 -10.573673,9.23228 z M 170.22701,80.360347 c -2.02195,-2.021947 -2.28088,-2.658994 -2.1,-5.166667 0.20341,-2.819967 0.12867,-2.930113 -5.29368,-7.802027 l -5.5,-4.941677 v -8.891655 c 0,-4.89041 0.19019,-8.891654 0.42265,-8.891654 0.23246,0 1.58246,0.347486 3,0.772192 l 2.57735,0.772191 v 6.856673 c 0,6.145588 0.14103,6.955454 1.35991,7.809188 0.74794,0.523884 2.8263,2.340895 4.61855,4.037802 2.7046,2.56072 3.69189,3.085714 5.80676,3.08778 5.52071,0.0053 9.18852,4.693694 7.55181,9.652954 -1.02346,3.10114 -3.82116,5.01122 -7.33994,5.01122 -2.30154,0 -3.20569,-0.4086 -5.10341,-2.30632 z"
         id="path275" />
      <path
         style="fill:#8c8c8c;fill-opacity:1;stroke-width:0.666667"
         d="M 77.333331,229.65901 V 191.9847 l -7.855399,-7.82569 C 60.792244,175.50618 55.680099,168.41241 51.05884,158.60011 44.286413,144.22025 42.353318,135.02595 42.382528,117.33333 42.406608,102.74777 43.153642,97.690473 46.967742,86.2922 51.415387,73.0006 57.889785,62.747825 68.647025,51.961151 81.729191,38.843187 96.025718,31.179596 114.66666,27.292529 c 9.21015,-1.920529 24.81382,-2.07585 33.64848,-0.334943 18.86331,3.717101 33.86775,11.727689 47.39703,25.304381 16.62974,16.688026 24.8452,35.120413 26.25164,58.898843 l 0.56156,9.49413 11.56364,20.17253 11.56364,20.17253 0.007,4.43599 c 0.006,3.94837 -0.21467,4.7101 -2.00969,6.92982 -3.35951,4.15433 -5.60413,4.96752 -13.7117,4.96752 h -7.08253 l -0.387,12.16667 c -0.22996,7.22975 -0.76742,13.51925 -1.32455,15.5 -2.76237,9.82111 -9.65759,18.22225 -18.52673,22.57301 -6.3463,3.11317 -10.02495,3.76032 -21.37511,3.76032 H 172 v 18 18 H 124.66666 77.333331 Z M 166,243.33333 v -18 h 12.19326 c 13.39086,0 17.1786,-0.62392 22.80674,-3.75679 4.92052,-2.73897 9.75612,-7.90651 12.37641,-13.22599 l 2.29025,-4.64945 0.20959,-16.18389 0.20959,-16.18388 h 9.59237 c 5.70932,0 10.26152,-0.30488 11.24536,-0.75314 2.05252,-0.9352 3.36785,-3.95638 2.84992,-6.54601 -0.21536,-1.07681 -5.61534,-11.05001 -11.99995,-22.16267 l -11.60839,-20.20484 -0.39781,-10 C 215.3856,102.07043 214.91796,99.170627 212.32699,90.333333 207.06689,72.392173 191.50287,52.819226 174.9784,43.364651 137.02944,21.651915 90.378064,30.926916 64.634269,65.302737 52.774374,81.139313 47.184804,100.59508 48.249588,122.33333 c 0.494325,10.09196 1.523057,15.79437 4.406808,24.42759 4.947251,14.81081 15.150169,29.14372 28.510269,40.05081 l 2.166666,1.76886 v 36.37637 36.37637 H 124.66666 166 Z m -59.86794,-68.44854 c -5.10816,-2.51744 -5.46076,-9.27534 -0.66556,-12.75592 0.75474,-0.54784 1.20016,-1.72309 1.20016,-3.16667 v -2.29553 l -10.166662,-0.0102 c -5.591667,-0.005 -10.474147,-0.23062 -10.84996,-0.5 -0.375813,-0.26939 -3.43656,-3.67418 -6.801667,-7.56619 -5.856026,-6.77298 -6.250133,-7.09125 -9.191546,-7.42279 -10.205266,-1.15028 -9.672867,-15.15504 0.576507,-15.16499 2.031906,-0.002 3.038926,0.46977 4.833333,2.26417 1.992493,1.9925 2.266666,2.68307 2.266666,5.70911 0,3.36176 0.134054,3.59814 5.719547,10.08565 l 5.719553,6.64321 8.780447,-0.18565 8.780452,-0.18566 0.18615,-7.33333 0.18615,-7.33333 7.74757,-7.77732 7.74756,-7.77733 -2.04382,-2.55601 c -1.12409,-1.4058 -3.26926,-3.7419 -4.76704,-5.19131 l -2.72324,-2.6353 V 83.941373 58.153347 l -1.56439,-1.025032 C 105.58499,53.513256 108.47048,44 115.08426,44 c 7.05312,0 10.46578,7.680729 5.5824,12.564103 -1.7834,1.783403 -2,2.438746 -2,6.051282 v 4.051282 h 12 12 v 9.8355 9.835493 l 2,1.88768 c 1.90092,1.794167 2.34684,3.088653 2.10404,6.107993 -0.46586,5.793307 -7.764,8.405367 -12.26018,4.38802 -1.92627,-1.72112 -2.17719,-2.342086 -2.17719,-5.38802 0,-3.04252 0.25185,-3.66774 2.16667,-5.37862 l 2.16666,-1.93592 v -6.67606 -6.676066 h -9 -9 V 90.174733 107.6828 l 10.17449,10.1586 C 138.9555,127.93997 139.03342,128 142.02614,128 c 3.41982,0 5.53296,1.21361 6.97766,4.00736 1.7123,3.31121 1.28726,5.89403 -1.3846,8.41392 -4.98602,4.70242 -12.28587,1.60759 -12.28587,-5.20869 0,-1.89096 -0.71757,-2.96042 -4.51431,-6.72806 l -4.5143,-4.47972 -6.81903,6.84231 -6.81903,6.84231 v 11.85393 c 0,11.83313 0.003,11.8565 1.67842,13.32195 3.63709,3.18118 3.17713,8.84091 -0.94367,11.6116 -2.66735,1.79344 -4.27489,1.88364 -7.26935,0.40788 z M 88.209805,127.02423 c -5.117194,-2.22562 -5.531867,-9.4196 -0.7433,-12.89536 1.023546,-0.74294 1.20016,-1.8957 1.20016,-7.83334 V 99.333333 H 73.955072 c -13.698632,0 -14.687725,-0.08033 -14.36499,-1.166666 0.19063,-0.641667 0.543369,-1.991667 0.783863,-3 l 0.437264,-1.833334 h 7.927729 7.927727 V 87.74334 c 0,-5.129553 -0.12886,-5.674427 -1.564393,-6.615027 C 69.584992,77.513253 72.470485,68 79.084258,68 c 7.05312,0 10.46578,7.680727 5.582407,12.5641 -1.892067,1.892067 -2,2.2906 -2,7.38462 v 5.384613 h 6 5.999999 v 10.031977 c 0,9.88632 0.0244,10.05329 1.678414,11.5 3.637093,3.18118 3.177133,8.84091 -0.943667,11.6116 -2.585387,1.73834 -4.175033,1.85932 -7.191606,0.54732 z M 170.51342,80.723953 c -1.89272,-1.691153 -2.18061,-2.379566 -2.22318,-5.316273 -0.0488,-3.365993 -0.0611,-3.3844 -5.50291,-8.210793 l -5.454,-4.837244 v -8.846488 c 0,-4.865568 0.19019,-8.846488 0.42265,-8.846488 0.23246,0 1.58246,0.347486 3,0.772192 l 2.57735,0.772191 v 6.758592 6.758591 l 4.61943,4.135884 C 171.81494,67.322013 172.96787,68 174.98587,68 c 4.16629,0 6.56296,1.852527 7.91367,6.116933 0.69159,2.18348 -0.90366,5.905047 -3.10712,7.248587 -3.18366,1.941213 -6.65715,1.701053 -9.279,-0.641567 z"
         id="path273" />
      <path
         style="fill:#767676;fill-opacity:1;stroke-width:0.666667"
         d="m 77.333331,229.40199 v -37.93134 l -4.789139,-4.23533 C 51.667545,168.77285 41.049631,142.75284 42.251185,113 42.860553,97.910847 45.677632,87.048953 52.356234,74.03766 70.267425,39.142971 108.69003,20.278798 148,27.079873 c 18.34886,3.174564 33.86145,11.363051 47.74174,25.200988 16.4738,16.423546 25.19831,36.043372 26.088,58.667199 l 0.36499,9.2814 11.59313,20.1546 c 12.96045,22.53168 13.53899,24.09075 11.03786,29.74496 -0.74385,1.68161 -2.45098,3.86834 -3.85909,4.94329 -2.3855,1.82108 -2.97058,1.94612 -10.57923,2.26102 l -8.05407,0.33334 L 221.97231,191 c -0.31754,11.72796 -0.54092,13.78651 -1.85524,17.09721 -3.5976,9.0621 -9.51408,15.56026 -17.78374,19.53212 -6.32195,3.03639 -10.11293,3.704 -21.03281,3.704 H 172 v 18 18 H 124.66666 77.333331 Z M 166,243.33333 v -18 h 12.19326 c 13.42858,0 17.67176,-0.70365 23.0337,-3.81972 4.79435,-2.78621 9.91275,-8.2835 12.1359,-13.03426 2.52289,-5.39129 3.25723,-11.1274 3.28321,-25.64602 l 0.0206,-11.5 h 9.87429 c 8.99772,0 10.0031,-0.12 11.32526,-1.35178 1.7471,-1.62767 2.4349,-4.02439 1.83772,-6.40376 -0.24234,-0.96555 -5.51444,-10.56975 -11.71577,-21.34266 l -11.27515,-19.58712 -0.68373,-10.49067 C 214.79682,93.2475 209.96976,79.569487 199.56241,65.496657 189.72005,52.187805 175.51384,41.827657 159.29708,36.132401 142.88052,30.366973 121.6293,30.221609 105.39092,35.763671 87.579318,41.842669 72.761138,53.199258 62.02386,69 55.942049,77.94986 51.279868,89.502793 49.244789,100.66667 47.850666,108.31444 48.05609,128.86201 49.598033,136 c 4.332006,20.05379 15.076414,37.3476 31.568632,50.81173 l 2.166666,1.76886 v 36.37637 36.37637 H 124.66666 166 Z m -59.899,-68.46358 c -4.57835,-2.2558 -5.293,-8.33578 -1.41051,-12.00023 1.40327,-1.32446 1.97617,-2.49395 1.97617,-4.03402 v -2.16883 H 96.360311 86.053958 l -1.710027,-1.83334 c -0.940513,-1.00833 -4.027653,-4.57528 -6.860313,-7.92656 -4.507426,-5.33268 -5.3676,-6.0527 -6.891286,-5.76847 -3.437527,0.64123 -8.582569,-3.77369 -8.589842,-7.37088 -0.0045,-2.21513 2.137108,-5.80537 4.054298,-6.79679 3.325817,-1.71984 6.454197,-1.25964 9.044304,1.33046 2.071673,2.07168 2.286033,2.63122 2.150013,5.61214 -0.1495,3.27637 -0.08996,3.38162 5.685373,10.05122 l 5.836453,6.74018 8.7802,-0.18565 8.780199,-0.18565 0.18615,-7.33333 0.18615,-7.33333 7.73875,-7.76849 7.73876,-7.76849 -1.372,-1.89818 c -0.7546,-1.044 -2.89581,-3.3869 -4.75824,-5.20645 l -3.38624,-3.30827 V 84.125867 58.534947 l -1.96181,-1.832612 c -2.16391,-2.021387 -3.05755,-4.539654 -2.45828,-6.927347 2.04351,-8.141957 14.42009,-7.264672 14.42009,1.022134 0,2.922965 -1.42954,6.174653 -2.97534,6.767834 -0.77704,0.298179 -1.02466,1.445429 -1.02466,4.747454 v 4.354257 h 12 12 v 9.8355 9.835493 l 2,1.88768 c 2.21373,2.089407 2.68598,5.539707 1.20354,8.793287 -1.80192,3.954793 -8.03622,4.917923 -11.22068,1.73346 -3.44404,-3.44404 -3.42536,-7.412154 0.0513,-10.888794 1.91257,-1.912553 1.96587,-2.145233 1.96587,-8.58124 v -6.615386 h -9 -9 V 90.174733 107.6828 l 10.31742,10.30131 c 10.12592,10.1101 10.36637,10.29778 12.95468,10.11089 1.4505,-0.10473 3.27372,0.1502 4.0516,0.56651 1.80667,0.9669 4.00392,4.55204 4.00714,6.53826 0.006,3.96738 -3.75747,7.4669 -8.03106,7.4669 -3.1737,0 -6.63311,-3.71224 -6.63311,-7.11788 0,-2.30613 -0.48631,-3.06713 -4.51431,-7.06426 l -4.5143,-4.47972 -6.81903,6.84231 -6.81903,6.84231 v 11.77067 11.77067 l 2,2 c 3.5276,3.5276 2.52099,9.43134 -2.00736,11.77304 -2.44477,1.26424 -3.77553,1.23704 -6.5583,-0.13406 z m -17.999995,-48 c -4.578354,-2.2558 -5.293,-8.33578 -1.410514,-12.00023 1.940687,-1.8317 1.976174,-1.98793 1.976174,-8.70069 V 99.333333 H 73.928672 c -13.763679,0 -14.708154,-0.07713 -14.286645,-1.166666 0.24824,-0.641667 0.617837,-1.991667 0.821326,-3 l 0.369979,-1.833334 h 7.916666 7.916667 V 87.93414 c 0,-5.116133 -0.102854,-5.495273 -1.961813,-7.231807 -2.163907,-2.021386 -3.057554,-4.539653 -2.45828,-6.927346 2.043506,-8.141956 14.420093,-7.264671 14.420093,1.022133 0,2.922967 -1.42954,6.174653 -2.97534,6.767833 -0.810974,0.3112 -1.02466,1.57932 -1.02466,6.080794 v 5.687586 h 6 5.999999 v 9.948717 9.94872 l 2,2 c 3.527596,3.5276 2.520987,9.43134 -2.00736,11.77304 -2.444773,1.26424 -3.775533,1.23704 -6.558299,-0.13406 z M 171.47786,81.6262 c -2.20692,-1.545787 -3.67455,-4.822553 -3.27174,-7.30478 0.32402,-1.996733 -0.0254,-2.466107 -5.25811,-7.063473 L 157.3428,62.333333 157.33814,53.5 c -0.003,-5.630761 0.24472,-8.833333 0.68334,-8.833333 0.37844,0 1.72844,0.434692 3,0.965982 l 2.31185,0.965982 v 6.603623 6.603622 l 4.60993,4.097062 C 171.89885,67.41846 172.9187,68 175.12826,68 c 2.52613,0 5.07294,1.258467 6.68387,3.30274 1.22519,1.55476 1.02283,6.786233 -0.32696,8.452567 -2.41226,2.977993 -7.15959,3.865513 -10.00731,1.870893 z"
         id="path271" />
      <path
         style="fill:#606060;fill-opacity:1;stroke-width:0.666667"
         d="m 77.333331,229.6207 v -37.71263 l -7.520073,-7.45404 c -14.22062,-14.09573 -22.718933,-29.99052 -26.262892,-49.1207 -1.615794,-8.72201 -1.61226,-28.00372 0.0066,-36.17993 7.417602,-37.462545 35.949892,-65.598667 73.208654,-72.192158 9.16273,-1.62148 23.75439,-1.497835 32.23435,0.273144 9.4763,1.979058 14.22651,3.626604 23.33333,8.092845 20.53073,10.06885 36.85002,28.35295 44.62614,49.998996 3.09982,8.628873 4.45313,15.764743 4.86307,25.642663 l 0.38605,9.30223 11.22755,19.516 c 6.17516,10.73381 11.5735,20.80944 11.99631,22.3903 1.49882,5.60391 -0.92696,11.05313 -6.0791,13.65591 -2.53248,1.27938 -4.02705,1.5 -10.16128,1.5 h -7.19208 v 11.85994 c 0,8.49876 -0.2893,12.97062 -1.02079,15.77903 -3.30743,12.69807 -14.63867,23.35429 -27.26831,25.6439 -2.17567,0.39442 -7.95067,0.71713 -12.83333,0.71713 h -8.87756 v 18 18 H 124.66666 77.333331 Z M 166,243.33333 v -18 h 12.59644 c 10.6622,0 13.25138,-0.20228 16.86162,-1.31738 10.97072,-3.38851 18.83761,-12.72779 20.51045,-24.34928 0.36946,-2.56667 0.67768,-9.99167 0.68494,-16.5 l 0.0132,-11.83334 h 9.92615 c 11.50408,0 12.56516,-0.41331 13.19933,-5.14144 0.35732,-2.66402 -0.16861,-3.7394 -11.26532,-23.03427 l -11.64014,-20.23978 -0.77222,-10.95892 C 215.68974,105.93151 214.76723,98.75 214.06443,96 209.16909,76.84486 197.97198,59.953243 182.33333,48.13145 176.78634,43.93829 163.874,37.365746 157.20152,35.339045 124.3435,25.358727 88.839071,35.720129 67.500838,61.516757 53.341953,78.633987 47.222468,97.819413 48.214457,121.9822 c 0.73326,17.86067 5.457931,32.01543 15.510981,46.46973 3.815487,5.48592 12.376447,14.55386 16.900673,17.90153 l 2.6757,1.97987 0.01573,36.5 0.01579,36.5 H 124.66666 166 Z m -59.9196,-68.47356 c -4.49842,-2.21607 -5.22283,-8.55233 -1.3503,-11.81084 1.69408,-1.42548 1.98479,-2.1009 1.81066,-4.20686 l -0.20743,-2.50874 -10.666666,-0.22014 -10.666666,-0.22016 -6.32564,-7.46166 c -5.961986,-7.03271 -6.468166,-7.46167 -8.80474,-7.46167 -3.234388,0 -5.954698,-2.05523 -7.134094,-5.38989 -0.83263,-2.35421 -0.805487,-2.89754 0.256563,-5.13564 2.367407,-4.98894 8.846698,-5.90541 12.538811,-1.77356 1.5655,1.75195 1.840587,2.60443 1.71668,5.31996 -0.145007,3.17796 -0.0472,3.34956 5.672467,9.9549 l 5.82002,6.7212 h 8.963299 8.963296 v -7.51088 -7.51087 L 114.33333,128 C 118.55,123.79529 122,120.04214 122,119.65966 c 0,-0.38248 -2.1,-2.77933 -4.66667,-5.32633 l -4.66667,-4.6309 V 83.874667 c 0,-25.100665 -0.0373,-25.84774 -1.32643,-26.537641 C 109.77297,56.498253 108,53.311537 108,51.333333 c 0,-5.420928 6.9628,-9.222162 11.35166,-6.19726 2.61254,1.80062 3.27112,3.001787 3.2938,6.007396 0.0165,2.189826 -0.42028,3.312954 -1.9788,5.08801 -1.75606,2.000053 -2,2.775329 -2,6.356531 v 4.078657 h 12 12 v 9.875273 9.875273 l 2,1.91612 c 1.63061,1.56222 2,2.459487 2,4.85806 0,2.47762 -0.3711,3.313047 -2.35134,5.29328 -2.17996,2.179957 -2.57922,2.325657 -5.478,1.998917 -6.6839,-0.75337 -9.03742,-7.937357 -4.10867,-12.541497 1.98431,-1.853626 1.98549,-1.859366 1.79515,-8.7318 L 136.33333,72.333333 127.5,72.147313 118.66666,71.9613 V 89.822047 107.6828 l 10.32536,10.30924 c 9.5429,9.52799 10.4918,10.29489 12.52176,10.12 1.20802,-0.10407 3.01147,0.12066 4.00767,0.49941 2.07088,0.78735 4.47237,4.32212 4.47605,6.58832 0.007,3.96738 -3.75747,7.4669 -8.03106,7.4669 -3.14696,0 -6.62466,-3.70782 -6.65936,-7.1 -0.0226,-2.2095 -0.62115,-3.21608 -4.3012,-7.23334 l -4.27494,-4.66666 -7.03214,6.98808 -7.03214,6.9881 v 11.89652 11.89653 l 2,2 c 3.64328,3.64328 2.4098,9.62526 -2.39904,11.63452 -2.80781,1.17318 -3.42052,1.15232 -6.18722,-0.21065 z m -18.000002,-48 c -4.47324,-2.20366 -5.223127,-8.55208 -1.391067,-11.77654 1.962227,-1.6511 1.977334,-1.71762 1.977334,-8.70686 V 99.333333 H 73.928672 c -13.763679,0 -14.708154,-0.07713 -14.286645,-1.166666 0.24824,-0.641667 0.617837,-1.991667 0.821326,-3 l 0.369979,-1.833334 h 7.916666 7.916667 V 87.69012 c 0,-4.95112 -0.162674,-5.730267 -1.326433,-6.353093 -1.56726,-0.838774 -3.340234,-4.025487 -3.340234,-6.003694 0,-5.420926 6.962807,-9.222162 11.35166,-6.19726 2.61254,1.80062 3.271127,3.001787 3.293807,6.007394 0.01653,2.189826 -0.42028,3.31296 -1.9788,5.088013 -1.870914,2.130853 -2,2.62718 -2,7.689867 v 5.411986 h 6 5.999999 v 10.051277 10.05129 l 2,2 c 3.643276,3.64328 2.409794,9.62526 -2.399046,11.63452 -2.807807,1.17318 -3.42052,1.15232 -6.18722,-0.21065 z M 172.17088,81.980787 c -2.35616,-0.947274 -4.29033,-4.57428 -3.94671,-7.400974 0.28158,-2.31634 0.0563,-2.631 -5.2507,-7.333333 L 157.42856,62.333333 157.38094,53.5 c -0.0262,-4.858333 0.21575,-8.833333 0.53764,-8.833333 0.32189,0 1.67189,0.454026 3,1.008946 l 2.41475,1.008947 v 6.589063 6.589064 l 4.5,3.972716 c 3.89089,3.434977 4.94827,4.02195 7.81171,4.336444 5.64762,0.620293 8.60122,5.631913 6.29815,10.686606 -1.4353,3.15014 -6.04207,4.62204 -9.77231,3.122334 z"
         id="path269" />
      <path
         style="fill:#494949;fill-opacity:1;stroke-width:0.666667"
         d="m 77.333331,229.57766 v -37.75567 l -6.833333,-6.74706 C 60.074397,174.78095 54.347265,166.49467 49.285882,154.38135 42.193507,137.40731 40.243844,116.57439 44.009393,98 50.488678,66.039513 72.937705,40.531166 103.55991,30.334026 c 9.26987,-3.086853 17.60583,-4.40176 28.02587,-4.420781 15.06718,-0.0275 27.19027,2.781783 40.74755,9.442438 29.1808,14.336445 48.08573,43.36739 49.4766,75.977647 l 0.38386,9 11.2375,19.61736 c 13.2075,23.05638 13.77762,24.53213 11.54328,29.87966 -2.43543,5.82879 -5.896,7.46809 -15.80791,7.48834 l -7.16667,0.0146 -0.008,11.83334 c -0.009,13.16732 -0.58805,16.46016 -4.11931,23.41732 -1.18946,2.34341 -3.8433,5.96769 -5.89743,8.05396 -7.77814,7.89988 -15.81508,10.69538 -30.74863,10.69538 H 172 v 18 18 H 124.66666 77.333331 Z m 89.333329,13.81393 v -17.94174 l 13.87051,-0.22492 13.87051,-0.22493 4.96282,-2.45485 c 6.1321,-3.03322 10.7199,-7.49034 13.63459,-13.24618 3.05204,-6.02708 3.66157,-10.20345 3.66157,-25.08808 v -12.87756 h 10.0303 c 9.76057,0 10.07431,-0.044 11.66667,-1.63636 3.23864,-3.23864 2.62924,-5.02309 -8.10228,-23.72518 -5.35626,-9.33448 -10.60626,-18.49605 -11.66667,-20.35903 -1.6598,-2.91601 -1.92802,-4.09179 -1.92802,-8.45176 0,-8.82362 -1.54411,-18.301247 -4.47941,-27.494333 C 203.61631,62.823249 181.03736,41.52718 153.46035,34.276474 115.41634,24.273726 75.613005,41.837203 57.400494,76.663493 50.223373,90.38772 47.590638,103.18791 48.212835,121.33333 c 0.429661,12.53042 1.730078,19.35945 5.463395,28.69058 5.528775,13.81872 12.863189,24.0252 24.823768,34.54445 l 4.833333,4.25089 v 36.25704 36.25704 H 125 166.66666 Z M 107,175.06677 c -3.33174,-1.47363 -4.675,-3.49373 -4.60004,-6.91793 0.0553,-2.52881 0.42202,-3.36149 2.16666,-4.92033 1.6952,-1.51466 2.10004,-2.39227 2.10004,-4.55244 V 156 H 96.040724 85.414785 l -6.540727,-7.68647 c -5.50232,-6.46616 -6.777973,-7.6286 -8.035113,-7.32204 -1.986713,0.48449 -5.732526,-1.13826 -7.085151,-3.0694 -0.603123,-0.86108 -1.087129,-2.85138 -1.087129,-4.47043 0,-2.4506 0.376855,-3.29518 2.351339,-5.26967 2.166968,-2.16696 2.591314,-2.32428 5.411801,-2.00638 4.53368,0.51102 6.554733,2.78991 6.62268,7.46758 0.05133,3.53342 0.176733,3.7609 5.666666,10.27842 l 5.61418,6.66503 9.166667,0.04 9.166662,0.04 v -7.49037 -7.49038 l 8.00354,-8.0228 8.00354,-8.0228 -5.00354,-4.97014 -5.00354,-4.97014 V 84.13204 58.564076 l -1.94655,-1.946555 c -2.49769,-2.497685 -3.07591,-5.142172 -1.79477,-8.208365 2.02798,-4.853641 8.58901,-5.763392 12.03447,-1.668696 2.44481,2.905491 2.33381,6.499048 -0.29315,9.490993 -1.75606,2.000052 -2,2.775328 -2,6.35653 v 4.078684 h 12 12 v 9.74532 9.745326 l 2,2.277874 c 2.9004,3.303366 2.80431,6.89384 -0.26666,9.964813 -2.66395,2.66395 -5.54755,2.98473 -8.83128,0.98244 -4.09114,-2.49464 -4.38347,-9.27756 -0.50923,-11.81606 1.53552,-1.006113 1.60717,-1.376573 1.60717,-8.30972 V 72 h -9 -9 v 17.825753 17.825757 l 10.45188,10.4672 c 9.24575,9.25932 10.65508,10.42656 12.21293,10.115 0.96858,-0.19372 2.87603,0.11365 4.23879,0.68304 5.10478,2.13292 5.63745,9.55336 0.89342,12.44598 -3.31521,2.02141 -6.19201,1.70894 -8.86368,-0.96273 -1.8876,-1.8876 -2.26667,-2.75487 -2.26667,-5.18593 0,-2.70824 -0.31349,-3.22996 -4.33703,-7.21774 l -4.33703,-4.29847 -6.9963,6.97249 -6.99631,6.9725 v 12.1995 c 0,10.35948 0.15455,12.2588 1.02466,12.5927 1.50998,0.57943 2.97534,3.82163 2.97534,6.58312 0,1.78334 -0.51132,2.92906 -1.94872,4.36644 -1.07179,1.0718 -2.39725,1.94872 -2.94547,1.94872 -0.54821,0 -1.39629,0.13906 -1.88461,0.30903 -0.48833,0.16996 -1.78786,-0.089 -2.88786,-0.57559 z m -18.000002,-48 c -3.33174,-1.47363 -4.674993,-3.49373 -4.60004,-6.91793 0.05533,-2.52881 0.422027,-3.36149 2.166667,-4.92033 l 2.10004,-1.87638 v -7.0094 -7.009397 H 74.042325 59.417979 L 60.237178,96.5 l 0.819198,-2.833333 7.805142,-0.187827 7.805147,-0.18782 v -5.36346 c 0,-5.037787 -0.118194,-5.481653 -1.946553,-7.310013 -2.497687,-2.497687 -3.075907,-5.142174 -1.794767,-8.208367 2.02798,-4.85364 8.589006,-5.763389 12.034466,-1.668693 2.444807,2.905493 2.333814,6.499046 -0.293146,9.490993 -1.86922,2.128927 -2,2.630067 -2,7.663907 v 5.386033 l 5.833333,0.192627 5.833333,0.19262 0.18418,10.194313 c 0.15106,8.36121 0.36528,10.2638 1.19132,10.58079 1.494287,0.5734 2.957833,3.82744 2.957833,6.5764 0,1.78334 -0.511326,2.92906 -1.94872,4.36644 -1.071793,1.0718 -2.397253,1.94872 -2.945473,1.94872 -0.548213,0 -1.396293,0.13906 -1.884613,0.30903 -0.488327,0.16996 -1.78786,-0.0891 -2.88786,-0.57559 z M 171.56872,81.38244 c -2.32196,-1.415853 -3.86238,-4.97806 -3.23544,-7.48198 0.33112,-1.32248 -0.49687,-2.380693 -5.30379,-6.778527 l -5.69616,-5.211399 V 53.2886 c 0,-4.742063 0.26336,-8.621933 0.58525,-8.621933 0.32189,0 1.67189,0.454026 3,1.008946 l 2.41475,1.008947 v 6.615433 6.615432 l 4.65747,4.169936 c 4.2405,3.796619 4.93328,4.175119 7.73823,4.227839 2.59438,0.04873 3.38521,0.398647 5.00919,2.216207 2.83106,3.168493 2.7057,6.826666 -0.33822,9.870593 -2.66395,2.663947 -5.54755,2.984733 -8.83128,0.98244 z"
         id="path267" />
      <path
         style="fill:#333333;fill-opacity:1;stroke-width:0.666667"
         d="M 77.293471,229.16667 77.253618,191 73.630265,188 C 62.47279,178.76203 51.941727,163.139 47.07221,148.60063 c -3.52762,-10.53201 -4.625389,-17.95285 -4.625389,-31.2673 0,-16.82344 2.095309,-26.75669 8.525114,-40.41507 11.239573,-23.875419 32.86017,-41.63499 58.901525,-48.382832 10.25555,-2.657423 25.23985,-3.31026 36.27205,-1.580304 24.91887,3.90752 46.84729,17.900173 60.65808,38.706273 9.55676,14.397356 14.28687,28.899723 15.00516,46.005273 l 0.36392,8.66666 11.54288,20.18936 c 12.02894,21.03951 13.20721,23.87109 11.71472,28.15244 -2.29551,6.58491 -6.11572,8.62278 -16.20332,8.64356 l -7.10638,0.0147 -0.25754,13.16667 c -0.22544,11.52588 -0.44052,13.66188 -1.7259,17.14058 -3.08276,8.343 -9.13438,15.28302 -16.87221,19.34914 -6.1557,3.23473 -11.76525,4.31806 -22.43159,4.33204 L 172,231.33333 v 18 18 H 124.66666 77.333331 l -0.03987,-38.16666 z M 166.66666,243.3816 V 225.42987 L 180.5,225.21493 194.33333,225 l 5,-2.41389 c 5.63324,-2.71959 10.37293,-7.0831 13.35812,-12.29789 3.21628,-5.61849 3.95434,-10.35633 3.96536,-25.45489 l 0.01,-13.5 h 10.0303 c 9.76057,0 10.07431,-0.044 11.66667,-1.63636 2.11275,-2.11275 2.16557,-5.76286 0.13636,-9.42373 -0.825,-1.48837 -6.03807,-10.63373 -11.5846,-20.32302 L 216.83079,122.33333 216.44886,114 C 215.39457,90.996427 207.24235,71.929927 191.84657,56.459867 172.97132,37.493557 146.48484,28.521154 120.28802,32.219118 85.286118,37.160015 57.572419,62.876747 49.632026,97.783853 47.95384,105.1614 47.586602,124.38617 48.9641,132.74953 c 3.34193,20.29024 13.500388,38.15908 29.535898,51.95396 l 4.833333,4.15797 v 36.23594 36.23593 H 125 166.66666 Z m -61.89984,-69.73295 c -1.10117,-0.92658 -2.1912,-2.5455 -2.42228,-3.59761 -0.51633,-2.35083 1.03793,-6.32075 2.93957,-7.50835 1.04743,-0.65413 1.38255,-1.55172 1.38255,-3.70306 V 156 H 96.048964 85.431258 l -6.434253,-7.5 c -4.327527,-5.04433 -6.908373,-7.52367 -7.882293,-7.57229 -0.796427,-0.0397 -2.146127,-0.11476 -2.999327,-0.16666 -0.853207,-0.0519 -2.428207,-0.9713 -3.500002,-2.0431 -1.598291,-1.59829 -1.948718,-2.5094 -1.948718,-5.06667 0,-2.65701 0.335088,-3.45303 2.266667,-5.38461 2.684106,-2.68411 5.54996,-2.98319 8.91662,-0.93054 2.545866,1.55222 3.651959,3.99168 3.358926,7.40806 -0.189233,2.20622 0.32416,3.06832 5.457787,9.16482 l 5.666666,6.72951 9.166667,0.0141 9.166662,0.0141 v -7.49038 -7.49037 l 8.00354,-8.0228 8.00354,-8.0228 -5.00354,-4.97014 -5.00354,-4.97014 V 84.132067 58.564103 l -1.94655,-1.946555 c -2.58741,-2.587405 -3.11825,-5.243709 -1.66143,-8.313723 3.30751,-6.97005 13.60798,-4.587702 13.60798,3.147325 0,2.183029 -0.43988,3.12207 -2.3637,5.045891 -2.21752,2.217522 -2.35152,2.594779 -2.16667,6.1 l 0.19704,3.736292 11.83333,0.18205 L 142,66.697433 v 9.403814 9.40382 l 2.33333,2.58272 c 1.83069,2.026353 2.33333,3.14574 2.33333,5.19632 0,7.712053 -10.78619,10.046003 -13.74132,2.97338 -1.28114,-3.066194 -0.70292,-5.71068 1.79477,-8.208367 1.90623,-1.906233 1.94655,-2.093013 1.94655,-9.016653 v -7.070094 l -9.16666,0.18548 -9.16667,0.18548 -0.17814,17.2761 -0.17815,17.276097 10.7814,10.85325 c 9.5946,9.65856 10.97692,10.81415 12.55774,10.49799 2.87665,-0.57534 6.29398,1.26187 7.64572,4.11046 3.55494,7.49145 -6.22339,13.84612 -11.79524,7.6654 -1.39528,-1.54774 -1.83333,-2.71275 -1.83333,-4.87574 0,-2.61326 -0.34919,-3.18816 -4.3373,-7.14082 l -4.33731,-4.29875 -7.32936,7.30663 L 112,138.31059 v 11.496 c 0,11.32534 0.0232,11.51122 1.56391,12.52072 4.05166,2.65475 3.93447,10.11029 -0.19365,12.3196 -2.39952,1.28418 -6.44936,0.81427 -8.60344,-0.99826 z m -17.999995,-48 c -1.101174,-0.92658 -2.1912,-2.5455 -2.42228,-3.59761 -0.516334,-2.35083 1.037926,-6.32075 2.939566,-7.50835 1.2598,-0.78676 1.382554,-1.5003 1.382554,-8.03639 V 99.333333 H 74.042325 59.417979 L 60.237178,96.5 l 0.819198,-2.833333 7.805142,-0.187827 7.805147,-0.18782 v -5.36346 c 0,-5.037787 -0.118194,-5.481653 -1.946553,-7.310013 -2.587407,-2.5874 -3.118247,-5.243707 -1.661427,-8.31372 3.307506,-6.970052 13.60798,-4.5877 13.60798,3.147326 0,2.17646 -0.439947,3.122127 -2.333334,5.015514 -2.272853,2.272853 -2.333333,2.46984 -2.333333,7.6 v 5.266666 h 6 6 v 9.984637 c 0,9.73968 0.03833,10.00976 1.563913,11.00934 4.05166,2.65475 3.934467,10.11029 -0.193653,12.3196 -2.399514,1.28418 -6.449353,0.81427 -8.603433,-0.99826 z M 171.54091,81.403027 c -2.27539,-1.42754 -3.79338,-5.165 -3.14578,-7.745234 0.28519,-1.136273 -0.72735,-2.404373 -5.01894,-6.285693 L 158,62.509851 v -8.886694 -8.886693 l 2.5,0.864191 2.5,0.86419 0.22724,6.934244 0.22725,6.934244 4.51051,3.95153 c 4.06174,3.558357 4.83175,3.965064 7.73902,4.08757 2.68658,0.113207 3.5419,0.486794 5.09558,2.225654 5.52395,6.18238 -2.22073,15.22046 -9.25869,10.80494 z"
         id="path265" />
    </g>
  </g>
</svg>
