<?xml version="1.0" encoding="UTF-8" standalone="no"?>
<!-- Created with Inkscape (http://www.inkscape.org/) -->

<svg
   version="1.1"
   id="svg294"
   width="320.66666"
   height="300.66666"
   viewBox="0 0 320.66666 300.66666"
   sodipodi:docname="LP2.svg"
   inkscape:version="1.2.1 (9c6d41e410, 2022-07-14)"
   xmlns:inkscape="http://www.inkscape.org/namespaces/inkscape"
   xmlns:sodipodi="http://sodipodi.sourceforge.net/DTD/sodipodi-0.dtd"
   xmlns="http://www.w3.org/2000/svg"
   xmlns:svg="http://www.w3.org/2000/svg">
  <defs
     id="defs298" />
  <sodipodi:namedview
     id="namedview296"
     pagecolor="#ffffff"
     bordercolor="#000000"
     borderopacity="0.25"
     inkscape:showpageshadow="2"
     inkscape:pageopacity="0.0"
     inkscape:pagecheckerboard="0"
     inkscape:deskcolor="#d1d1d1"
     showgrid="false"
     inkscape:zoom="3.4157429"
     inkscape:cx="107.44368"
     inkscape:cy="150.18695"
     inkscape:window-width="2560"
     inkscape:window-height="1334"
     inkscape:window-x="-11"
     inkscape:window-y="-11"
     inkscape:window-maximized="1"
     inkscape:current-layer="g300" />
  <g
     inkscape:groupmode="layer"
     inkscape:label="Image"
     id="g300">
    <g
       id="g304">
      <path
         style="fill:#b9b9b9;fill-opacity:1;stroke-width:0.666667"
         d="M 59.999999,150.00209 V 44.666666 h 9 8.999999 v 95.997704 95.99771 l 94.500002,0.16895 94.49999,0.16896 v 9 9 L 163.5,255.16875 59.999999,255.33752 Z M 95.999998,189 V 158.64893 L 118.5,158.82446 141,159 v 30 30 l -22.5,0.17553 -22.500002,0.17553 z m 62.973602,29.5 c -0.17484,-0.45834 -0.24042,-26.18334 -0.14574,-57.16667 L 159,105 l 22.5,-0.17554 22.5,-0.17553 v 57.3422 57.3422 h -22.35426 c -17.26942,0 -22.42656,-0.18955 -22.67214,-0.83333 z M 222,132 V 44.64893 l 22.49999,0.175534 22.5,0.175535 V 132 219 l -22.5,0.17553 L 222,219.35106 Z m -123.175535,5.8378 -4.162194,-4.1622 36.162709,-36.167275 36.16271,-36.167273 -8.31717,-8.337193 -8.31718,-8.337193 H 171.17667 192 v 20.823329 20.82333 l -8.17264,-8.153013 -8.17263,-8.153007 -35.99172,35.996345 C 119.86756,125.80164 103.51725,142 103.32898,142 c -0.18828,0 -2.2153,-1.87299 -4.504515,-4.1622 z"
         id="path318" />
      <path
         style="fill:#a3a3a3;fill-opacity:1;stroke-width:0.666667"
         d="M 59.999999,150.00209 V 44.666666 h 9 8.999999 v 95.997704 95.99771 l 94.500002,0.16895 94.49999,0.16896 v 9 9 L 163.5,255.16875 59.999999,255.33752 Z M 95.999998,189 V 158.64893 L 118.5,158.82446 141,159 v 30 30 l -22.5,0.17553 -22.500002,0.17553 z m 62.973602,29.5 c -0.17484,-0.45834 -0.24042,-26.18334 -0.14574,-57.16667 L 159,105 l 22.5,-0.17554 22.5,-0.17553 v 57.3422 57.3422 h -22.35426 c -17.26942,0 -22.42656,-0.18955 -22.67214,-0.83333 z M 222,132 V 44.64893 l 22.49999,0.175534 22.5,0.175535 V 132 219 l -22.5,0.17553 L 222,219.35106 Z m -123.175535,5.8378 -4.162194,-4.1622 36.162499,-36.167062 36.1625,-36.167067 -7.82697,-7.847416 c -4.30483,-4.316079 -7.82697,-8.067909 -7.82697,-8.337403 0,-0.269492 9.15,-0.489986 20.33333,-0.489986 H 192 v 20.823329 20.82333 l -8.17264,-8.153013 -8.17263,-8.153007 -35.99172,35.996345 C 119.86756,125.80164 103.51725,142 103.32898,142 c -0.18828,0 -2.2153,-1.87299 -4.504515,-4.1622 z"
         id="path316" />
      <path
         style="fill:#8c8c8c;fill-opacity:1;stroke-width:0.666667"
         d="M 59.999999,150.00209 V 44.666666 h 9 8.999999 v 95.997704 95.99771 l 94.500002,0.16895 94.49999,0.16896 v 9 9 L 163.5,255.16875 59.999999,255.33752 Z M 95.999998,189 V 158.64893 L 118.5,158.82446 141,159 v 30 30 l -22.5,0.17553 -22.500002,0.17553 z m 62.973602,29.5 c -0.17484,-0.45834 -0.24042,-26.18334 -0.14574,-57.16667 L 159,105 l 22.5,-0.17554 22.5,-0.17553 v 57.3422 57.3422 h -22.35426 c -17.26942,0 -22.42656,-0.18955 -22.67214,-0.83333 z M 222,132 V 44.64893 l 22.49999,0.175534 22.5,0.175535 V 132 219 l -22.5,0.17553 L 222,219.35106 Z m -123.175535,5.8378 -4.162194,-4.1622 36.162499,-36.167062 36.1625,-36.167067 -7.82697,-7.847416 c -4.30483,-4.316079 -7.82697,-8.067909 -7.82697,-8.337403 0,-0.269492 9.15,-0.489986 20.33333,-0.489986 H 192 v 20.823329 20.82333 l -8.17264,-8.153013 -8.17263,-8.153007 -35.99172,35.996345 C 119.86756,125.80164 103.51725,142 103.32898,142 c -0.18828,0 -2.2153,-1.87299 -4.504515,-4.1622 z"
         id="path314" />
      <path
         style="fill:#767676;fill-opacity:1;stroke-width:0.666667"
         d="M 59.999999,150 V 45.333332 h 9 8.999999 v 95.999998 96 h 94.333332 94.33333 v 8.66666 8.66667 H 163.33333 59.999999 Z m 35.999999,39 v -29.66667 h 22.333332 22.33333 V 189 218.66666 H 118.33333 95.999998 Z M 159.33333,162 V 105.33333 H 181.66666 204 V 162 218.66666 H 181.66666 159.33333 Z M 222,132 V 45.333332 h 22.33333 22.33333 V 132 218.66666 H 244.33333 222 Z m -123.175535,5.8378 -4.162194,-4.1622 36.162499,-36.167062 36.1625,-36.167067 -7.98321,-8.00407 -7.98322,-8.004069 H 171.51042 192 v 20.489996 20.489997 l -8.17264,-8.153013 -8.17263,-8.153007 -35.99172,35.996345 C 119.86756,125.80164 103.51725,142 103.32898,142 c -0.18828,0 -2.2153,-1.87299 -4.504515,-4.1622 z"
         id="path312" />
      <path
         style="fill:#606060;fill-opacity:1;stroke-width:0.666667"
         d="M 59.999999,150 V 45.333332 h 9 8.999999 v 95.999998 96 h 94.333332 94.33333 v 8.66666 8.66667 H 163.33333 59.999999 Z m 35.999999,39 v -29.66667 h 22.333332 22.33333 V 189 218.66666 H 118.33333 95.999998 Z M 159.33333,162 V 105.33333 H 181.66666 204 V 162 218.66666 H 181.66666 159.33333 Z M 222,132 V 45.333332 h 22.33333 22.33333 V 132 218.66666 H 244.33333 222 Z m -123.000069,5.99993 -3.958333,-4.00007 24.312532,-24.3747 c 13.37189,-13.406089 29.48561,-29.531055 35.80825,-35.833268 6.32265,-6.302207 11.49765,-11.754054 11.5,-12.115213 0.003,-0.36116 -3.51603,-4.18616 -7.81863,-8.5 l -7.82291,-7.843347 H 171.51042 192 v 20.489996 20.489997 l -8.17264,-8.153013 -8.17263,-8.153007 -35.99172,35.996345 C 119.86756,125.80164 103.51086,142 103.31478,142 c -0.19609,0 -2.13777,-1.80004 -4.314849,-4.00007 z"
         id="path310" />
      <path
         style="fill:#494949;fill-opacity:1;stroke-width:0.666667"
         d="M 59.999999,150 V 45.333332 h 9 8.999999 v 95.999998 96 h 94.333332 94.33333 v 8.66666 8.66667 H 163.33333 59.999999 Z m 35.999999,39 v -29.66667 h 22.333332 22.33333 V 189 218.66666 H 118.33333 95.999998 Z M 159.33333,162 V 105.33333 H 181.66666 204 V 162 218.66666 H 181.66666 159.33333 Z M 222,132 V 45.333332 h 22.33333 22.33333 V 132 218.66666 H 244.33333 222 Z m -122.999995,6 -3.976747,-4.01868 36.315342,-36.319922 36.31534,-36.319927 -7.98322,-8.00407 -7.98322,-8.004069 H 171.84375 192 v 20.286451 20.286448 l -7.16667,-7.350999 c -3.94167,-4.043047 -7.73297,-7.654614 -8.42513,-8.0257 -1.09461,-0.586854 -5.95708,4.02332 -37.34496,35.407228 l -36.08648,36.08193 z"
         id="path308" />
      <path
         style="fill:#333333;fill-opacity:1;stroke-width:0.666667"
         d="M 59.999999,150 V 45.333332 h 9 8.999999 v 95.999998 96 h 94.333332 94.33333 v 8.66666 8.66667 H 163.33333 59.999999 Z m 35.999999,39 v -29.66667 h 22.333332 22.33333 V 189 218.66666 H 118.33333 95.999998 Z M 159.33333,162 V 105.33333 H 181.66666 204 V 162 218.66666 H 181.66666 159.33333 Z M 222,132 V 45.333332 h 22.33333 22.33333 V 132 218.66666 H 244.33333 222 Z m -122.816349,5.7092 -3.816346,-4.04254 36.143315,-36.162595 36.14332,-36.162594 -7.98322,-8.00407 -7.98322,-8.004069 H 171.84375 192 v 20.286451 20.286448 l -7.16667,-7.350999 c -3.94167,-4.043047 -7.73297,-7.654614 -8.42513,-8.0257 -1.0943,-0.586687 -5.96439,4.014726 -37.33334,35.273748 L 103,141.75173 Z"
         id="path306" />
    </g>
  </g>
</svg>
