<?xml version="1.0" encoding="UTF-8" standalone="no"?>
<!-- Created with Inkscape (http://www.inkscape.org/) -->

<svg
   version="1.1"
   id="svg2"
   width="1228.8"
   height="1228.8"
   viewBox="0 0 1228.8 1228.8"
   sodipodi:docname="xrp.svg"
   inkscape:version="1.2.1 (9c6d41e410, 2022-07-14)"
   xmlns:inkscape="http://www.inkscape.org/namespaces/inkscape"
   xmlns:sodipodi="http://sodipodi.sourceforge.net/DTD/sodipodi-0.dtd"
   xmlns="http://www.w3.org/2000/svg"
   xmlns:svg="http://www.w3.org/2000/svg">
  <defs
     id="defs6" />
  <sodipodi:namedview
     id="namedview4"
     pagecolor="#ffffff"
     bordercolor="#000000"
     borderopacity="0.25"
     inkscape:showpageshadow="2"
     inkscape:pageopacity="0.0"
     inkscape:pagecheckerboard="0"
     inkscape:deskcolor="#d1d1d1"
     showgrid="false"
     inkscape:zoom="0.59098196"
     inkscape:cx="869.7389"
     inkscape:cy="656.53442"
     inkscape:window-width="2560"
     inkscape:window-height="1334"
     inkscape:window-x="-11"
     inkscape:window-y="-11"
     inkscape:window-maximized="1"
     inkscape:current-layer="g8" />
  <g
     inkscape:groupmode="layer"
     inkscape:label="Image"
     id="g8">
    <g
       id="g170"
       transform="matrix(0.98760742,0,0,0.99311461,8.61536,5.9999557)">
      <path
         style="fill:#b9b9b9;fill-opacity:1;stroke-width:0.32"
         d="m 595.68,1228.6079 c -10.61642,-0.4397 -18.89811,-0.8672 -24.64,-1.2718 -97.55235,-6.8745 -190.64602,-36.3532 -274.16581,-86.8164 -52.4378,-31.6833 -100.47636,-71.63 -141.48795,-117.655 C 83.12513,941.76995 33.619603,842.9129 12.179833,736.89725 -2.0729196,666.4201 -3.8781699,592.92176 6.8956755,521.76 25.42036,399.40355 80.202656,286.46083 165.44716,194.88 171.76039,188.0975 188.07408,171.78275 194.88,165.44524 250.66184,113.50254 314.32534,72.838042 384.072,44.600502 443.61277,20.494896 506.69306,5.9515888 571.2,1.4576954 c 16.03267,-1.11692094 21.69776,-1.28549601 43.2,-1.28549601 21.50224,0 27.16733,0.16857507 43.2,1.28549601 97.39283,6.7848966 190.77219,36.3389476 274.32582,86.8225956 52.4378,31.683259 100.47638,71.629979 141.48798,117.655049 72.2593,81.09266 121.7671,179.95442 143.2064,285.96741 13.2509,65.52317 15.7554,133.76963 7.3492,200.25725 -13.3792,105.81997 -54.0302,205.90093 -118.3452,291.36 -24.6319,32.7299 -52.8804,63.3652 -83.3842,90.4298 -75.31139,66.8202 -165.15606,113.9383 -262.27216,137.5459 -37.71165,9.1672 -73.05702,14.2614 -115.80784,16.6907 -5.63152,0.32 -43.0712,0.6455 -48.48,0.4215 z M 430.73034,849.35005 c 50.07766,-50.63853 92.70166,-93.49287 94.72,-95.23187 21.03299,-18.12224 45.34131,-28.87101 73.25884,-32.39392 5.44,-0.6865 20.11178,-0.9472 26.15648,-0.4648 29.41968,2.3478 55.98701,13.47062 78.48362,32.85833 2.01811,1.7392 44.64211,44.59386 94.72,95.23258 l 91.05072,92.07033 55.83648,0.01 55.83642,0.01 -5.31466,-5.36 c -2.9231,-2.948 -55.75459,-56.408 -117.40333,-118.8 -61.64873,-62.392 -113.90889,-115.168 -116.13366,-117.28 -46.1777,-43.83715 -108.29434,-64.76249 -171.36951,-57.72956 -44.45084,4.95628 -85.5998,23.51452 -119.58128,53.93136 -2.93014,2.62278 -136.0326,136.96441 -236.71441,238.9182 l -6.24115,6.32 55.82255,-0.01 55.82255,-0.01 z M 634.56,585.46675 c 41.82877,-4.36569 79.01795,-19.19366 111.40112,-44.41753 5.46026,-4.25312 10.79661,-8.91984 17.08832,-14.94407 5.99379,-5.73897 235.7431,-237.94691 235.93722,-238.46209 0.0616,-0.16341 -23.42407,-0.28306 -55.55856,-0.28306 h -55.66525 l -90.29117,91.28 c -49.66013,50.204 -91.55814,92.39424 -93.10672,93.7561 -21.51626,18.92179 -46.28954,29.87756 -75.56496,33.41795 -5.75728,0.69625 -21.88502,0.79139 -27.52,0.16233 -28.24515,-3.15308 -52.71754,-13.42566 -73.92,-31.0288 -4.56026,-3.78611 -7.72429,-6.96054 -106.20627,-106.55564 L 341.02746,287.36 h -55.66039 c -31.5753,0 -55.61425,0.12088 -55.55374,0.27935 0.21005,0.55008 237.20305,239.94574 240.53905,242.97764 34.85415,31.67706 79.26503,51.08496 125.80762,54.97888 2.2,0.18407 4.648,0.38711 5.44,0.45123 4.08874,0.33095 28.31571,-0.0956 32.96,-0.58035 z"
         id="path184" />
      <path
         style="fill:#a3a3a3;fill-opacity:1;stroke-width:0.32"
         d="m 592.32,1228.4416 c -120.83638,-4.3652 -236.34109,-43.609 -334.56,-113.6699 -42.25303,-30.1396 -81.36516,-66.3975 -114.9552,-106.566 C 93.620803,949.38922 55.88632,881.9801 31.718245,809.76 10.62442,746.7265 6.964352e-4,681.2911 6.964352e-4,614.4 6.964352e-4,504.87021 28.711114,398.65341 83.772118,304.48 119.64024,243.13308 166.17974,188.22393 221.28,142.24276 279.82862,93.38392 347.07581,55.800685 419.04,31.718245 493.89104,6.6697443 572.52314,-3.6541123 652,1.1321893 767.01424,8.0586435 877.08374,47.008042 971.04,114.0283 c 42.253,30.13965 81.3652,66.39744 114.9552,106.56597 49.184,58.8165 86.9185,126.22563 111.0866,198.44573 21.0938,63.0335 31.7175,128.4689 31.7175,195.36 0,109.52979 -28.7104,215.74659 -83.7714,309.92 -35.8682,61.34691 -82.4076,116.2561 -137.5079,162.2372 -58.54861,48.8589 -125.79581,86.4421 -197.76,110.5246 -63.75037,21.3337 -129.64278,31.9198 -197.12,31.6687 -7.216,-0.027 -16.36,-0.1659 -20.32,-0.3089 z M 430.24,849.86326 c 49.808,-50.36496 91.928,-92.79593 93.6,-94.29104 21.10957,-18.87638 46.48454,-30.3047 75.2,-33.86844 3.63133,-0.45066 6.9704,-0.57584 15.36,-0.57584 8.3896,0 11.72867,0.12518 15.36,0.57584 28.25082,3.50608 53.09981,14.51737 73.92,32.75612 2.2,1.92724 44.824,44.78541 94.72,95.24045 l 90.72,91.73642 55.83453,0.003 55.83457,0.003 -3.39403,-3.44 C 903.62083,842.95821 766.52624,704.3655 762.3168,700.35603 745.84704,684.66867 729.39264,673.1607 708.96,663.03907 684.9209,651.13091 661.58448,644.52346 633.6,641.70173 c -8.02499,-0.80919 -30.41187,-0.80704 -38.4,0.004 -28.32973,2.8752 -53.04509,9.97389 -77.12,22.15027 -18.18515,9.1975 -35.84211,21.57645 -50.21747,35.20646 -2.21607,2.10112 -155.63318,157.13024 -235.66488,238.14103 l -4.18876,4.24 55.83555,-0.003 55.83556,-0.003 90.56,-91.57267 z M 622.56,586.23418 c 50.45024,-2.15853 96.85411,-20.89428 134.18768,-54.17882 6.36915,-5.67837 6.12682,-5.43475 118.95066,-119.57536 56.97504,-57.64 108.14204,-109.372 113.70444,-114.96 l 10.11348,-10.16 H 943.62893 887.7416 l -83.13955,84.08 C 705.2385,471.92752 706.956,470.20198 702.70368,473.81306 673.05526,498.99014 635.42298,510.25472 597.12,505.41773 570.99046,502.11802 546.70083,491.30947 526.09632,473.81318 521.83846,470.1976 523.19802,471.56349 424.03738,371.28 l -82.98042,-83.92 h -55.88651 -55.88651 l 9.63325,9.68 c 5.2983,5.324 54.59521,55.184 109.5487,110.8 C 461.6608,522.39958 467.77155,528.53162 474.4,534.21235 c 37.33594,31.99795 82.53162,49.95639 130.88,52.0049 8.48877,0.35968 9.25181,0.36041 17.28,0.017 z"
         id="path182" />
      <path
         style="fill:#8c8c8c;fill-opacity:1;stroke-width:0.32"
         d="m 597.76,1228.6081 c -36.09712,-1.2678 -66.1807,-4.4977 -98.08,-10.5302 C 355.46173,1190.8048 225.71113,1112.4347 133.68755,997.01626 55.925258,899.48474 9.8605232,780.90925 1.4566593,656.64 0.39081504,640.8792 0.17836637,633.84602 0.1807311,614.4 0.18353799,591.31789 0.73398362,578.37133 2.5752759,558.08 17.688824,391.52627 100.3445,238.48461 231.78374,133.68755 329.32035,55.92119 447.88426,9.8609629 572.16,1.4566593 587.87338,0.39402266 594.96867,0.17948898 614.4,0.17948898 c 23.0511,0 35.97795,0.54989348 56.32,2.39578692 166.55741,15.1138831 319.59306,97.7663041 424.3924,229.2084641 77.7624,97.53152 123.8271,216.10701 132.2309,340.37626 1.0586,15.65315 1.2747,22.81494 1.2747,42.24 0,23.07206 -0.5493,35.99917 -2.3933,56.32 -15.1135,166.55373 -97.7692,319.59539 -229.20844,424.3924 -93.73677,74.7368 -206.87863,120.2177 -326.13626,131.1008 -7.66294,0.6993 -18.20454,1.4353 -28,1.9549 -6.14528,0.326 -39.19114,0.6483 -45.12,0.44 z M 430.25235,849.86883 c 49.80122,-50.36413 92.31309,-93.11977 94.47085,-95.01254 21.27347,-18.66093 45.93581,-29.61405 74.6368,-33.14797 5.75498,-0.70861 23.11923,-0.81709 28.64,-0.17894 29.80762,3.44556 55.652,14.91552 77.16944,34.24851 1.5568,1.39875 43.57677,43.74496 93.37773,94.10265 L 889.0943,941.44 h 55.8458 55.8458 l -2.58616,-2.64 C 985.04854,925.37475 772.3193,710.14486 766.9185,704.8 756.61642,694.60461 748.7375,687.86928 738.85194,680.80717 706.20125,657.48192 669.0593,644.1927 628.42003,641.2951 c -6.03545,-0.43033 -21.50841,-0.43152 -27.83456,-0.003 -28.95213,1.96506 -55.32704,9.09501 -81.22547,21.9578 -16.76176,8.32496 -30.90934,17.73798 -45.10973,30.0136 -4.71475,4.07571 -8.35507,7.62678 -25.47952,24.85507 C 435.97264,730.99408 238.7488,930.4865 230.75787,938.63898 l -2.74453,2.8 h 55.84567 55.84566 l 90.54768,-91.57117 z M 629.6585,585.91642 c 50.336,-3.92144 95.6912,-23.97492 131.97251,-58.3506 C 764.44394,524.90061 816.07379,472.824 876.36403,411.84 936.65424,350.856 989.02726,297.9 992.74851,294.16 l 6.76592,-6.8 h -55.90169 -55.9017 l -88.17389,89.2 c -48.49565,49.06 -90.08262,90.98906 -92.41552,93.17568 -10.17331,9.53549 -22.14528,17.7657 -34.14701,23.47459 -36.05139,17.14871 -77.59427,17.68586 -113.93414,1.47319 -13.75693,-6.13748 -25.82346,-14.18484 -37.20374,-24.81168 C 519.41491,467.6103 477.75578,425.62 429.26083,376.56 l -88.17257,-89.2 h -55.8785 -55.87849 l 9.10101,9.2 c 5.00555,5.06 58.7376,59.384 119.40455,120.72 60.66695,61.336 110.58419,111.736 110.92723,112 0.34304,0.264 2.25546,1.93718 4.24983,3.71821 10.32227,9.21801 23.17705,18.40726 35.69859,25.5192 29.72704,16.88422 62.80096,26.31065 97.68752,27.84201 4.24714,0.18644 18.71661,-0.0892 23.2585,-0.443 z"
         id="path180" />
      <path
         style="fill:#767676;fill-opacity:1;stroke-width:0.32"
         d="m 599.2,1228.6098 c -30.1711,-0.9988 -53.57021,-3.1065 -80,-7.2061 C 377.20995,1199.379 247.11829,1127.5962 151.77374,1018.6627 66.441056,921.16794 14.109724,799.00966 2.5816358,670.4 0.75813382,650.05664 0.18983048,636.75078 0.18983048,614.4 c 0,-22.35078 0.56830334,-35.65664 2.39180532,-56 C 17.103708,396.38883 96.075101,246.33812 221.81735,141.83811 307.39214,70.719882 409.99261,24.335896 519.2,7.3963082 c 32.78208,-5.084956 60.8081,-7.20647772 95.2,-7.20647772 22.35078,0 35.65664,0.56830334 56,2.39180532 156.75328,14.0507752 302.27206,88.3284502 406.6263,207.5557142 85.3326,97.4947 137.664,219.65299 149.1921,348.26265 1.8235,20.34336 2.3918,33.64922 2.3918,56 0,22.35078 -0.5683,35.65664 -2.3918,56 -14.5221,162.01117 -93.4935,312.06189 -219.2357,416.5619 -85.57905,71.1217 -188.0932,117.4673 -297.3827,134.4436 -22.18525,3.4461 -43.43574,5.5704 -67.68,6.7654 -6.60851,0.3258 -36.77536,0.6357 -42.72,0.4389 z M 430.66134,849.52 c 50.0066,-50.556 92.20576,-93.0464 93.77591,-94.42314 15.5983,-13.67683 33.10038,-23.30867 52.46451,-28.87254 32.7495,-9.40986 68.07946,-6.11939 98.29824,9.15507 11.06976,5.59533 19.75411,11.46707 29.16237,19.71747 1.56995,1.37674 43.76867,43.86714 93.77494,94.42314 l 90.92051,91.92 h 55.83236 55.83232 l -2.36122,-2.54314 C 993.44854,933.60573 761.69936,699.53766 758.448,696.58301 724.3873,665.63059 682.60502,646.96432 635.98006,641.8703 c -5.99388,-0.65484 -8.25148,-0.73206 -21.42006,-0.73251 -15.7425,0 -18.90032,0.19559 -30.88,1.91811 -33.25354,4.78141 -65.5657,17.71197 -92.8,37.13632 -9.07987,6.47604 -15.70243,11.94042 -24.06182,19.85386 -4.12788,3.90765 -236.18162,238.44426 -238.14778,240.69584 l -0.60959,0.69808 h 55.83972 55.83973 z M 624.64,586.23312 c 14.75334,-0.75843 27.72858,-2.69072 41.87437,-6.23597 33.02845,-8.27773 63.10368,-24.1231 89.40201,-47.10224 C 761.62029,527.91091 768.1551,521.3431 882.09424,406.08 939.07216,348.44 988.8009,298.148 992.6025,294.32 l 6.91206,-6.96 -55.99728,0.0258 -55.99728,0.0258 -89.42723,90.45422 c -49.18499,49.74982 -90.87299,91.78374 -92.64,93.40873 -27.88381,25.64266 -66.50307,38.34547 -104.75015,34.45482 -28.88214,-2.93799 -56.15187,-15.0529 -77.19772,-34.29594 -1.68032,-1.53638 -43.36832,-43.56957 -92.64,-93.4071 l -89.5849,-90.61368 -55.98433,-0.0263 -55.98434,-0.0263 7.04409,7.12 c 3.87425,3.916 57.30709,57.952 118.73965,120.08 61.43258,62.128 113.40768,114.4912 115.50026,116.36262 18.99859,16.99101 38.71696,29.53383 61.49718,39.11821 28.63207,12.04647 61.46122,17.79031 92.54749,16.19229 z"
         id="path178" />
      <path
         style="fill:#606060;fill-opacity:1;stroke-width:0.32"
         d="m 600.96,1228.6103 c -31.93494,-0.9023 -59.71376,-3.5156 -88.42938,-8.3191 -115.66435,-19.348 -222.64266,-71.1603 -310.12362,-150.2007 -13.87168,-12.5332 -31.3995,-30.0747 -44.13712,-44.1714 C 65.733805,923.50947 10.655326,793.46749 1.4573872,655.68 c -1.75048576,-26.22272 -1.75048576,-56.33728 0,-82.56 C 10.309254,440.51677 61.338227,315.67072 148.01347,214.56 164.16811,195.71486 184.09154,175.25775 202.407,158.70946 254.8184,111.35499 314.42216,73.597955 379.1552,46.745245 440.81085,21.169108 505.92842,5.9658851 573.12,1.4596284 c 26.14384,-1.75335791 56.41616,-1.75335791 82.56,0 113.6031,7.6188839 221.29562,45.9477096 314.08,111.7841616 31.2837,22.19778 59.2057,46.26692 87.094,75.07621 63.8451,65.95341 112.8747,147.24525 141.3739,234.4 17.5549,53.6856 27.1417,106.63882 29.9805,165.6 0.836,17.3617 0.4437,47.80141 -0.868,67.36 -8.6904,129.58013 -57.5774,251.80742 -140.5856,351.4924 -14.6073,17.5421 -28.6656,32.6354 -46.2748,49.6816 -69.80563,67.5742 -156.14438,118.1514 -249.28,146.0284 -48.8312,14.6159 -98.04144,22.9033 -150.08,25.2745 -7.3473,0.3348 -33.7912,0.6333 -40.16,0.4534 z M 430.72246,849.52 c 50.02036,-50.556 92.19066,-93.02547 93.71181,-94.37658 28.93699,-25.70256 67.55271,-37.78582 106.12573,-33.2079 27.20355,3.22858 53.32614,14.98064 73.80544,33.20371 1.52099,1.35341 43.69078,43.82477 93.71069,94.38077 l 90.94525,91.92 h 55.83596 c 30.7098,0 55.78796,-0.12067 55.72936,-0.26819 C 1000.4487,940.82506 785.2528,723.08419 770.44045,708.30387 754.032,691.93094 744.48234,684.03139 729.28,674.25558 c -39.51411,-25.40934 -88.4561,-37.14396 -135.46486,-32.4799 -41.50893,4.11843 -80.23168,19.81936 -112.61943,45.6639 -6.95056,5.54637 -11.70339,9.82356 -19.46873,17.52042 -9.68256,9.59715 -233.38265,235.88166 -233.51365,236.21146 -0.0587,0.14771 25.01903,0.26854 55.7282,0.26854 h 55.83485 z M 625.28,586.23264 c 48.89869,-2.70099 93.72419,-20.97235 130.56,-53.21763 5.49629,-4.81133 17.16333,-16.53962 130.25123,-130.93501 57.06819,-57.728 105.93402,-107.156 108.59069,-109.84 l 4.83034,-4.88 -55.99613,0.016 -55.99613,0.016 -82.08,83.0386 C 709.9409,467.045 705.04173,471.9411 699.2,476.60385 c -12.28816,9.80816 -26.20902,17.49456 -40.58253,22.40755 -38.21933,13.06378 -80.19248,8.59178 -114.4696,-12.19606 -10.35696,-6.28115 -16.49491,-11.2985 -28.94787,-23.66291 -5.544,-5.50458 -46.944,-47.30244 -92,-92.88407 l -81.92,-82.87576 -55.95852,-0.0163 -55.95851,-0.0163 9.63016,9.84 c 27.96363,28.57293 227.37986,229.89719 230.92687,233.13635 42.41629,38.73543 98.79754,59.02058 155.36,55.89629 z"
         id="path176" />
      <path
         style="fill:#494949;fill-opacity:1;stroke-width:0.32"
         d="m 602.4,1228.6076 c -86.43731,-2.1262 -165.40579,-20.034 -242.72,-55.0418 -8.21805,-3.7211 -30.53014,-14.8634 -38.4,-19.1762 C 263.90561,1122.9469 213.5092,1084.24 168.99869,1037.43 115.74338,981.42346 73.472291,915.77174 44.558205,844.16 20.23593,783.92083 5.7217242,720.28474 1.4599523,655.2 c -1.72258742,-26.30694 -1.72258742,-55.29306 0,-81.6 C 7.8474304,476.05197 37.242237,382.11853 87.62897,298.24 141.69202,208.24153 219.08683,132.56392 310.24,80.568154 329.28442,69.704806 352.41286,58.199674 372.64,49.527606 436.19155,22.280866 504.25539,6.0006608 573.6,1.4599523 c 26.30694,-1.72258742 55.29306,-1.72258742 81.6,0 74.15664,4.8558016 145.48051,22.7848727 213.92,53.7742177 8.21805,3.721132 30.53014,14.863388 38.4,19.176275 57.3744,31.442665 107.7708,70.149595 152.2813,116.959545 57.6063,60.58234 102.3541,132.47795 131.2531,210.88271 21.9905,59.66144 34.065,120.404 37.1458,186.8673 0.8096,17.46477 0.434,46.31555 -0.8602,66.08 -6.3874,97.54803 -35.7822,191.48147 -86.169,275.36 -54.063,89.9985 -131.4578,165.6761 -222.611,217.6718 -13.78944,7.8658 -36.02442,19.2595 -49.44,25.334 -73.084,33.0924 -148.90013,51.1669 -228.96,54.5838 -8.01414,0.342 -31.09347,0.6219 -37.76,0.458 z M 428.3096,851.92 c 48.6735,-49.236 90.54774,-91.45405 93.05386,-93.81792 14.58774,-13.75971 31.02368,-23.67766 49.62272,-29.94384 28.07187,-9.4577 58.20595,-9.51654 86.29382,-0.16851 16.76714,5.58032 31.94214,14.17539 45.35296,25.68777 4.80928,4.12845 5.24179,4.56276 99.75587,100.1625 l 86.60522,87.6 h 56.04896 56.04899 L 989.7257,930 C 983.47424,923.708 929.60538,869.24 870.01706,808.96 810.42877,748.68 759.99373,697.85942 757.9392,696.02541 721.98998,663.93443 679.25562,645.50086 631.296,641.39757 c -11.64829,-0.99661 -28.13546,-0.712 -40.896,0.70589 -44.23414,4.9152 -86.24173,23.94755 -119.88288,54.31532 -1.79206,1.61767 -51.04352,51.24356 -109.44771,110.27975 -58.40417,59.03619 -112.29055,113.50419 -119.74749,121.04 L 227.76384,941.44 h 56.02423 56.02422 z M 626.08,586.23526 c 49.58342,-2.90355 94.68323,-21.76534 132.02122,-55.21443 2.94364,-2.63702 223.17379,-224.89645 238.5167,-240.71443 l 2.85789,-2.9464 -55.97789,0.008 -55.97792,0.008 -90.27555,91.29338 c -49.65159,50.21136 -91.91559,92.70697 -93.92,94.43468 -18.74346,16.15584 -40.50154,26.65415 -64.28445,31.01735 -9.30147,1.70643 -12.48381,1.95952 -24.64,1.95952 -12.15619,0 -15.33853,-0.25309 -24.64,-1.95952 -24.38339,-4.47338 -46.92115,-15.53466 -65.64717,-32.21895 -1.69795,-1.5128 -43.52995,-43.65014 -92.96,-93.63849 L 341.28,287.3751 l -55.99142,-0.008 -55.99142,-0.008 2.10535,2.16 c 12.56392,12.89008 232.2132,234.8896 235.39394,237.91264 23.67184,22.49821 51.20483,38.88653 82.04384,48.83446 17.81142,5.74554 35.84941,9.01332 55.63971,10.07968 4.44941,0.23975 16.67965,0.17661 21.6,-0.11152 z"
         id="path174" />
      <path
         style="fill:#333333;fill-opacity:1;stroke-width:0.32"
         d="m 599.84,1228.4618 c -19.15363,-0.4344 -36.7073,-1.6386 -55.9601,-3.8389 -130.38844,-14.9011 -251.94995,-71.1122 -348.66087,-161.2236 -6.41595,-5.9781 -23.84024,-23.4024 -29.81837,-29.8183 C 75.288083,936.8688 19.078449,815.31024 4.1771046,684.9201 -0.16089722,646.9616 -0.9850696,607.45779 1.7711682,569.6 11.977237,429.41642 69.221997,298.44156 165.40066,195.21903 c 5.97813,-6.41595 23.40242,-23.84024 29.81837,-29.81837 C 291.92995,75.289264 413.49146,19.078253 543.8799,4.1771046 c 46.7457,-5.3422277 94.2945,-5.3422277 141.0402,0 130.38844,14.9011484 251.94995,71.1121594 348.6609,161.2235554 6.4159,5.97813 23.8402,23.40242 29.8183,29.81837 89.1209,95.64785 145.0561,215.51838 160.7359,344.46097 4.8516,39.89667 5.7694,80.83792 2.7262,121.6 -10.3637,138.81251 -67.803,269.63606 -163.4621,372.301 -5.9781,6.4159 -23.4024,23.8402 -29.8183,29.8183 -96.71095,90.1114 -218.27246,146.3225 -348.6609,161.2236 -13.00384,1.4861 -25.24957,2.5082 -38.57815,3.2198 -6.49443,0.3467 -30.4935,0.976 -34.18195,0.8963 -1.144,-0.025 -6.688,-0.1495 -12.32,-0.2772 z M 409.92,870.67322 C 532.96797,746.19213 525.03059,754.04746 535.38784,746.50147 c 28.88336,-21.04361 66.39187,-29.65478 102.17594,-23.4575 23.75084,4.11331 45.14313,14.08329 64.00438,29.82963 4.62403,3.86035 12.68285,11.95267 117.15184,117.63853 l 70.08,70.89629 56.15754,0.0157 56.15756,0.0157 -7.71145,-7.76 C 989.16234,929.412 936.08365,875.736 875.45101,814.4 814.81834,753.064 763.7856,701.50451 762.0449,699.82336 732.21213,671.01107 692.43542,650.98435 650.88,643.85418 c -13.14835,-2.25604 -22.57264,-3.02727 -36.8,-3.01159 -14.0633,0.0154 -22.7448,0.74234 -36.16,3.02749 -38.43843,6.54758 -76.1232,24.62797 -104.90611,50.33171 -1.99437,1.78103 -3.90749,3.45421 -4.25143,3.71821 -0.3439,0.264 -50.90726,51.312 -112.363,113.44 -61.45574,62.128 -115.5483,116.812 -120.2057,121.52 l -8.46799,8.56 56.13711,-0.0163 L 340,941.40736 409.92,870.67302 Z M 631.68,585.92141 c 25.34042,-2.29914 48.08592,-8.15187 70.22797,-18.07063 22.28057,-9.98083 43.64105,-24.43139 60.78118,-41.11907 5.75005,-5.5983 236.47655,-238.74873 236.61751,-239.10336 0.0587,-0.14759 -25.07776,-0.26835 -55.85876,-0.26835 h -55.9654 l -89.95015,90.96 c -49.47257,50.028 -91.36813,92.21082 -93.10125,93.73962 -21.03507,18.5551 -44.9782,29.43273 -73.18214,33.24752 -6.1929,0.83763 -20.73491,1.18086 -27.24896,0.64316 -30.04915,-2.48044 -56.58922,-13.73436 -79.40698,-33.67136 -1.67824,-1.46633 -43.60217,-43.67296 -93.16428,-93.79251 L 341.31578,287.36 h -55.96457 c -30.7805,0 -55.91654,0.11964 -55.85788,0.26587 0.21999,0.54831 232.15832,234.98927 237.29896,239.85941 21.5775,20.44214 46.13606,35.74842 73.7616,45.97232 18.88374,6.98867 39.36925,11.30518 60.59353,12.76765 5.31911,0.36653 25.33988,0.16729 30.53258,-0.30384 z"
         id="path172" />
    </g>
  </g>
</svg>
